<?xml version="1.0" encoding="utf-8"?>
<!-- Generator: Adobe Illustrator 23.0.2, SVG Export Plug-In . SVG Version: 6.00 Build 0)  -->
<svg version="1.1" id="Layer_1" xmlns="http://www.w3.org/2000/svg" xmlns:xlink="http://www.w3.org/1999/xlink" x="0px" y="0px"
	 viewBox="0 0 496 496" style="enable-background:new 0 0 496 496;" xml:space="preserve">
<style type="text/css">
	.st0{fill:url(#SVGID_1_);}
	.st1{fill:url(#SVGID_2_);}
	.st2{fill:url(#SVGID_3_);}
	.st3{fill:url(#SVGID_4_);}
	.st4{fill:url(#SVGID_5_);}
	.st5{fill:url(#SVGID_6_);}
	.st6{fill:url(#SVGID_7_);}
	.st7{fill:url(#SVGID_8_);}
	.st8{fill:url(#SVGID_9_);}
	.st9{fill:url(#SVGID_10_);}
	.st10{fill:url(#SVGID_11_);}
	.st11{fill:url(#SVGID_12_);}
	.st12{fill:url(#SVGID_13_);}
	.st13{fill:url(#SVGID_14_);}
	.st14{fill:url(#SVGID_15_);}
	.st15{fill:url(#SVGID_16_);}
	.st16{fill:url(#SVGID_17_);}
	.st17{fill:url(#SVGID_18_);}
	.st18{fill:url(#SVGID_19_);}
</style>
<linearGradient id="SVGID_1_" gradientUnits="userSpaceOnUse" x1="70.8672" y1="413.8184" x2="93.4922" y2="413.8184">
	<stop  offset="0" style="stop-color:#5ABE87"/>
	<stop  offset="1" style="stop-color:#003D7C"/>
</linearGradient>
<path class="st0" d="M70.9,413.8l11.3-11.3l11.3,11.3l-11.3,11.3L70.9,413.8z"/>
<linearGradient id="SVGID_2_" gradientUnits="userSpaceOnUse" x1="274.5039" y1="413.8203" x2="297.1328" y2="413.8203">
	<stop  offset="0" style="stop-color:#5ABE87"/>
	<stop  offset="1" style="stop-color:#003D7C"/>
</linearGradient>
<path class="st1" d="M274.5,413.8l11.3-11.3l11.3,11.3l-11.3,11.3L274.5,413.8z"/>
<linearGradient id="SVGID_3_" gradientUnits="userSpaceOnUse" x1="176" y1="456" x2="192" y2="456">
	<stop  offset="0" style="stop-color:#5ABE87"/>
	<stop  offset="1" style="stop-color:#003D7C"/>
</linearGradient>
<path class="st2" d="M176,448h16v16h-16V448z"/>
<linearGradient id="SVGID_4_" gradientUnits="userSpaceOnUse" x1="384" y1="340" x2="496" y2="340">
	<stop  offset="0" style="stop-color:#5ABE87"/>
	<stop  offset="1" style="stop-color:#003D7C"/>
</linearGradient>
<path class="st3" d="M480,264h-32c-8.8,0-16,7.2-16,16v48.6c-27.1,3.9-48,27.2-48,55.4v56c0,30.9,25.1,56,56,56s56-25.1,56-56v-56
	c0-28.2-20.9-51.5-48-55.4V280h32c8.8,0,16-7.2,16-16v-80h-16V264z M400,440v-32h32v71.2C413.8,475.5,400,459.3,400,440z M448,479.2
	V408h32v32C480,459.3,466.2,475.5,448,479.2z M480,384v8h-80v-8c0-22.1,17.9-40,40-40S480,361.9,480,384z"/>
<linearGradient id="SVGID_5_" gradientUnits="userSpaceOnUse" x1="480" y1="160" x2="496" y2="160">
	<stop  offset="0" style="stop-color:#5ABE87"/>
	<stop  offset="1" style="stop-color:#003D7C"/>
</linearGradient>
<path class="st4" d="M480,152h16v16h-16V152z"/>
<linearGradient id="SVGID_6_" gradientUnits="userSpaceOnUse" x1="480" y1="128" x2="496" y2="128">
	<stop  offset="0" style="stop-color:#5ABE87"/>
	<stop  offset="1" style="stop-color:#003D7C"/>
</linearGradient>
<path class="st5" d="M480,120h16v16h-16V120z"/>
<linearGradient id="SVGID_7_" gradientUnits="userSpaceOnUse" x1="0" y1="248" x2="496" y2="248">
	<stop  offset="0" style="stop-color:#5ABE87"/>
	<stop  offset="1" style="stop-color:#003D7C"/>
</linearGradient>
<path class="st6" d="M0,0v350.6l30.5,6.1c3.3,11.2,7.7,22.1,13.4,32.3l-17.3,25.9l54.5,54.5l25.9-17.3c10.2,5.6,21.1,10.1,32.3,13.4
	l6.1,30.5h77.1l6.1-30.5c11.2-3.3,22.1-7.7,32.3-13.4l25.9,17.3l54.5-54.5L324.1,389c5.6-10.2,10.1-21.1,13.4-32.3l30.5-6.1V304H256
	V112H32v192H16V80h464v24h16V0H0z M144,224c-13.2,0-24-10.8-24-24v-16c0-13.2,10.8-24,24-24s24,10.8,24,24v16
	C168,213.2,157.2,224,144,224z M144,240c2.7,0,5.4-0.3,8-0.8v5.5l-8,8l-8-8v-5.5C138.6,239.7,141.3,240,144,240z M125.7,257
	l18.3,18.3l18.3-18.3l34.1,9.7c6.8,2,11.6,8.3,11.6,15.4V304H80v-21.9c0-7.1,4.8-13.4,11.6-15.4L125.7,257z M255.5,320
	c-4,35.9-34.5,64-71.5,64s-67.5-28.1-71.5-64H255.5z M48,128h192v176h-16v-21.9c0-14.2-9.5-26.9-23.2-30.8L168,242v-10.2
	c9.7-7.3,16-18.8,16-31.8v-16c0-22.1-17.9-40-40-40s-40,17.9-40,40v16c0,13,6.3,24.5,16,31.8V242l-32.8,9.4
	C73.5,255.2,64,267.9,64,282.1V304H48V128z M64.4,320c4.1,62.4,56.1,112,119.6,112c28.8,0,56.7-10.4,78.5-29.4L252,390.5
	C233.1,407,208.9,416,184,416c-54.6,0-99.5-42.4-103.6-96h16c4.1,44.8,41.8,80,87.6,80s83.5-35.2,87.6-80h16
	c-1.7,22.1-10.4,43.1-25.1,60l12.1,10.5c17.2-19.8,27.3-44.6,29-70.5H352v17.4l-27.4,5.5l-1.2,4.9c-3.4,13.2-8.6,25.8-15.5,37.4
	l-2.6,4.3l15.5,23.3l-36,36l-23.3-15.5l-4.3,2.6c-11.6,6.9-24.2,12.1-37.4,15.5l-4.9,1.2l-5.5,27.4h-50.9l-5.5-27.4l-4.9-1.2
	c-13.2-3.4-25.8-8.6-37.4-15.5l-4.3-2.6l-23.3,15.5l-36-36l15.5-23.3l-2.6-4.3C53.3,373.6,48,361,44.7,347.8l-1.2-4.9L16,337.4V320
	H64.4z M16,64V16h464v48H16z"/>
<linearGradient id="SVGID_8_" gradientUnits="userSpaceOnUse" x1="432" y1="368" x2="448" y2="368">
	<stop  offset="0" style="stop-color:#5ABE87"/>
	<stop  offset="1" style="stop-color:#003D7C"/>
</linearGradient>
<path class="st7" d="M432,360h16v16h-16V360z"/>
<linearGradient id="SVGID_9_" gradientUnits="userSpaceOnUse" x1="32" y1="40" x2="48" y2="40">
	<stop  offset="0" style="stop-color:#5ABE87"/>
	<stop  offset="1" style="stop-color:#003D7C"/>
</linearGradient>
<path class="st8" d="M32,32h16v16H32V32z"/>
<linearGradient id="SVGID_10_" gradientUnits="userSpaceOnUse" x1="64" y1="40" x2="80" y2="40">
	<stop  offset="0" style="stop-color:#5ABE87"/>
	<stop  offset="1" style="stop-color:#003D7C"/>
</linearGradient>
<path class="st9" d="M64,32h16v16H64V32z"/>
<linearGradient id="SVGID_11_" gradientUnits="userSpaceOnUse" x1="96" y1="40" x2="112" y2="40">
	<stop  offset="0" style="stop-color:#5ABE87"/>
	<stop  offset="1" style="stop-color:#003D7C"/>
</linearGradient>
<path class="st10" d="M96,32h16v16H96V32z"/>
<linearGradient id="SVGID_12_" gradientUnits="userSpaceOnUse" x1="272" y1="144" x2="288" y2="144">
	<stop  offset="0" style="stop-color:#5ABE87"/>
	<stop  offset="1" style="stop-color:#003D7C"/>
</linearGradient>
<path class="st11" d="M272,136h16v16h-16V136z"/>
<linearGradient id="SVGID_13_" gradientUnits="userSpaceOnUse" x1="304" y1="144" x2="464" y2="144">
	<stop  offset="0" style="stop-color:#5ABE87"/>
	<stop  offset="1" style="stop-color:#003D7C"/>
</linearGradient>
<path class="st12" d="M304,136h160v16H304V136z"/>
<linearGradient id="SVGID_14_" gradientUnits="userSpaceOnUse" x1="272" y1="176" x2="464" y2="176">
	<stop  offset="0" style="stop-color:#5ABE87"/>
	<stop  offset="1" style="stop-color:#003D7C"/>
</linearGradient>
<path class="st13" d="M272,168h192v16H272V168z"/>
<linearGradient id="SVGID_15_" gradientUnits="userSpaceOnUse" x1="272" y1="208" x2="464" y2="208">
	<stop  offset="0" style="stop-color:#5ABE87"/>
	<stop  offset="1" style="stop-color:#003D7C"/>
</linearGradient>
<path class="st14" d="M272,200h192v16H272V200z"/>
<linearGradient id="SVGID_16_" gradientUnits="userSpaceOnUse" x1="272" y1="240" x2="288" y2="240">
	<stop  offset="0" style="stop-color:#5ABE87"/>
	<stop  offset="1" style="stop-color:#003D7C"/>
</linearGradient>
<path class="st15" d="M272,232h16v16h-16V232z"/>
<linearGradient id="SVGID_17_" gradientUnits="userSpaceOnUse" x1="304" y1="240" x2="320" y2="240">
	<stop  offset="0" style="stop-color:#5ABE87"/>
	<stop  offset="1" style="stop-color:#003D7C"/>
</linearGradient>
<path class="st16" d="M304,232h16v16h-16V232z"/>
<linearGradient id="SVGID_18_" gradientUnits="userSpaceOnUse" x1="336" y1="240" x2="464" y2="240">
	<stop  offset="0" style="stop-color:#5ABE87"/>
	<stop  offset="1" style="stop-color:#003D7C"/>
</linearGradient>
<path class="st17" d="M336,232h128v16H336V232z"/>
<linearGradient id="SVGID_19_" gradientUnits="userSpaceOnUse" x1="272" y1="272" x2="416" y2="272">
	<stop  offset="0" style="stop-color:#5ABE87"/>
	<stop  offset="1" style="stop-color:#003D7C"/>
</linearGradient>
<path class="st18" d="M272,264h144v16H272V264z"/>
</svg>
