<?xml version="1.0" encoding="utf-8"?>
<!-- Generator: Adobe Illustrator 23.0.2, SVG Export Plug-In . SVG Version: 6.00 Build 0)  -->
<svg version="1.1" id="Capa_1" xmlns="http://www.w3.org/2000/svg" xmlns:xlink="http://www.w3.org/1999/xlink" x="0px" y="0px"
	 viewBox="0 0 480 480" style="enable-background:new 0 0 480 480;" xml:space="preserve">
<style type="text/css">
	.st0{fill:url(#SVGID_1_);}
</style>
<linearGradient id="SVGID_1_" gradientUnits="userSpaceOnUse" x1="514.923" y1="419.5115" x2="15.8236" y2="131.3563">
	<stop  offset="0" style="stop-color:#623895"/>
	<stop  offset="1" style="stop-color:#EC0C8C"/>
</linearGradient>
<path class="st0" d="M116.3,232.7c2.5-5.2,3.7-10.9,3.7-16.7c0-22.1-17.9-40-40-40s-40,17.9-40,40c0,5.8,1.3,11.5,3.7,16.7
	C18.5,236.9,0,258.7,0,284.3V360c0,4.4,3.6,8,8,8l0,0h24v104c0,4.4,3.6,8,8,8l0,0h80c4.4,0,8-3.6,8-8l0,0V368h24c4.4,0,8-3.6,8-8
	l0,0v-75.7C160,258.7,141.5,236.9,116.3,232.7z M144,352h-16v-80h-16v192H88V352H72v112H48V272H32v80H16v-67.7
	c0-20,16.2-36.2,36.3-36.3H59c4.4,0,8-3.6,8-8c0-2.3-1-4.5-2.7-6c-5.3-4.5-8.3-11.1-8.3-18c0-13.3,10.7-24,24-24s24,10.7,24,24
	c0,6.9-3,13.5-8.3,18c-3.3,2.9-3.7,8-0.8,11.3c1.5,1.7,3.7,2.7,6,2.7h6.8c20,0,36.2,16.2,36.3,36.3V352z M400,32
	c-13.2,0-24-10.8-24-24c0-4.4-3.6-8-8-8s-8,3.6-8,8c0,13.2-10.8,24-24,24c-4.4,0-8,3.6-8,8s3.6,8,8,8c13.2,0,24,10.8,24,24
	c0,4.4,3.6,8,8,8s8-3.6,8-8c0-13.2,10.8-24,24-24c4.4,0,8-3.6,8-8S404.4,32,400,32z M368,48c-2.3-3-5-5.7-8-8c3-2.3,5.7-5,8-8
	c2.3,3,5,5.7,8,8C373,42.3,370.3,45,368,48z M472,424L472,424h-32v-24c0-4.4-3.6-8-8-8l0,0h-16V202.1L478.9,92
	c2.1-3.7,1-8.3-2.5-10.6l-24-16c-1.8-1.2-4.1-1.6-6.2-1.1s-4,1.9-5.1,3.8l-35.8,61.4c-8.1-20.6-31.3-30.7-51.8-22.7
	c-10.4,4.1-18.6,12.3-22.7,22.7L294.9,68c-2.2-3.8-7.1-5.1-10.9-2.9c-0.1,0.1-0.3,0.2-0.4,0.3l-24,16c-3.5,2.3-4.6,7-2.5,10.6
	L320,202.1V392h-16c-4.4,0-8,3.6-8,8l0,0v24h-32c-4.4,0-8,3.6-8,8l0,0v48h16v-40h32c4.4,0,8-3.6,8-8l0,0v-24h112v24c0,4.4,3.6,8,8,8
	l0,0h32v40h16v-48C480,427.6,476.4,424,472,424z M400,200v192h-24v-96h-16v96h-24V200c0-1.4-0.4-2.8-1.1-4L274.7,90.5l10.7-7.1
	l51.7,88.7c1.4,2.5,4.1,4,6.9,4h3c4.4,0,8-3.6,8-8c0-2.3-1-4.5-2.7-6c-5.3-4.5-8.3-11.1-8.3-18c0-13.3,10.7-24,24-24s24,10.7,24,24
	c0,6.9-3,13.5-8.3,18c-3.3,2.9-3.7,8-0.8,11.3c1.5,1.7,3.7,2.7,6,2.7h3c2.8,0,5.5-1.5,6.9-4l51.7-88.7l10.7,7.1L401.1,196
	C400.4,197.2,400,198.6,400,200z M224,184h16v16h-16V184z M256,200h16v16h-16V200z M288,216h16v16h-16V216z M224,240h16v16h-16V240z
	 M256,256h16v16h-16V256z M288,272h16v16h-16V272z M432,264h16v16h-16V264z M464,280h16v16h-16V280z M432,320h16v16h-16V320z
	 M464,336h16v16h-16V336z M229.1,73.8l-48.2-40c-3.4-2.8-8.4-2.4-11.3,1c-1.2,1.5-1.9,3.3-1.8,5.2l0.1,15.9H64c-4.4,0-8,3.6-8,8l0,0
	v80c0,4.4,3.6,8,8,8l0,0h32c4.4,0,8-3.6,8-8l0,0v-40h64v16c0,4.4,3.6,8,8,8c1.9,0,3.7-0.7,5.1-1.9l48-40c1.8-1.5,2.9-3.8,2.9-6.2
	C232,77.6,230.9,75.4,229.1,73.8z M184,102.9V96c0-4.4-3.6-8-8-8l0,0H96c-4.4,0-8,3.6-8,8l0,0v40H72V72h104c4.4,0,8-3.6,8-8v-0.1
	l-0.1-6.8L211.5,80L184,102.9z"/>
</svg>
