<?xml version="1.0" encoding="utf-8"?>
<!-- Generator: Adobe Illustrator 23.0.2, SVG Export Plug-In . SVG Version: 6.00 Build 0)  -->
<svg version="1.1" id="Layer_1" xmlns="http://www.w3.org/2000/svg" xmlns:xlink="http://www.w3.org/1999/xlink" x="0px" y="0px"
	 viewBox="0 0 966 966" style="enable-background:new 0 0 966 966;" xml:space="preserve">
<style type="text/css">
	.st0{fill:url(#SVGID_1_);}
	.st1{fill:url(#SVGID_2_);}
	.st2{fill:url(#SVGID_3_);}
	.st3{fill:url(#SVGID_4_);}
	.st4{fill:url(#SVGID_5_);}
	.st5{fill:url(#SVGID_6_);}
	.st6{fill:url(#SVGID_7_);}
	.st7{fill:url(#SVGID_8_);}
	.st8{fill:url(#SVGID_9_);}
	.st9{fill:url(#SVGID_10_);}
	.st10{fill:url(#SVGID_11_);}
	.st11{fill:url(#SVGID_12_);}
	.st12{fill:url(#SVGID_13_);}
	.st13{fill:url(#SVGID_14_);}
	.st14{fill:url(#SVGID_15_);}
	.st15{fill:url(#SVGID_16_);}
	.st16{fill:url(#SVGID_17_);}
	.st17{fill:url(#SVGID_18_);}
	.st18{fill:url(#SVGID_19_);}
	.st19{fill:url(#SVGID_20_);}
	.st20{fill:url(#SVGID_21_);}
</style>
<g id="surface1">
	<linearGradient id="SVGID_1_" gradientUnits="userSpaceOnUse" x1="0" y1="435.9263" x2="841.36" y2="435.9263">
		<stop  offset="0" style="stop-color:#EF7C00"/>
		<stop  offset="1" style="stop-color:#EF4A38"/>
	</linearGradient>
	<path class="st0" d="M77.9,856.6H483v-31.2H77.9c-25.8,0-46.7-20.9-46.7-46.7V93.1c0-25.8,20.9-46.7,46.7-46.7h685.5
		c25.8,0,46.7,20.9,46.7,46.7v358.4h31.2V93.1c-0.1-43-34.9-77.9-77.9-77.9H77.9C34.9,15.3,0.1,50.1,0,93.1v685.5
		C0.1,821.7,34.9,856.5,77.9,856.6z"/>
	<linearGradient id="SVGID_2_" gradientUnits="userSpaceOnUse" x1="62.3276" y1="93.1518" x2="93.4836" y2="93.1518">
		<stop  offset="0" style="stop-color:#EF7C00"/>
		<stop  offset="1" style="stop-color:#EF4A38"/>
	</linearGradient>
	<path class="st1" d="M62.3,77.6h31.2v31.2H62.3V77.6z"/>
	<linearGradient id="SVGID_3_" gradientUnits="userSpaceOnUse" x1="124.6435" y1="93.1518" x2="155.8112" y2="93.1518">
		<stop  offset="0" style="stop-color:#EF7C00"/>
		<stop  offset="1" style="stop-color:#EF4A38"/>
	</linearGradient>
	<path class="st2" d="M124.6,77.6h31.2v31.2h-31.2V77.6z"/>
	<linearGradient id="SVGID_4_" gradientUnits="userSpaceOnUse" x1="186.9672" y1="93.1518" x2="218.131" y2="93.1518">
		<stop  offset="0" style="stop-color:#EF7C00"/>
		<stop  offset="1" style="stop-color:#EF4A38"/>
	</linearGradient>
	<path class="st3" d="M187,77.6h31.2v31.2H187V77.6z"/>
	<linearGradient id="SVGID_5_" gradientUnits="userSpaceOnUse" x1="62.3276" y1="155.4736" x2="779.0324" y2="155.4736">
		<stop  offset="0" style="stop-color:#EF7C00"/>
		<stop  offset="1" style="stop-color:#EF4A38"/>
	</linearGradient>
	<path class="st4" d="M62.3,139.9H779v31.2H62.3V139.9z"/>
	<linearGradient id="SVGID_6_" gradientUnits="userSpaceOnUse" x1="61.8576" y1="298.2139" x2="244.7217" y2="298.2139">
		<stop  offset="0" style="stop-color:#EF7C00"/>
		<stop  offset="1" style="stop-color:#EF4A38"/>
	</linearGradient>
	<path class="st5" d="M222.7,206.8l-39.6,39.6c-33.5-22.1-78.2-15.4-103.6,15.7c-25.4,31.1-23.1,76.3,5.3,104.7
		c28.4,28.4,73.6,30.7,104.7,5.3c31.1-25.4,37.9-70.2,15.7-103.6l39.6-39.6L222.7,206.8z M140.2,358c-25.8,0-46.7-20.9-46.7-46.7
		c0-25.8,20.9-46.7,46.7-46.7c7,0,13.8,1.6,20,4.7l-31,31l22,22l31.1-31c3,6.2,4.6,13.1,4.7,20C187,337.1,166,358,140.2,358z"/>
	<linearGradient id="SVGID_7_" gradientUnits="userSpaceOnUse" x1="264.8727" y1="280.119" x2="529.7377" y2="280.119">
		<stop  offset="0" style="stop-color:#EF7C00"/>
		<stop  offset="1" style="stop-color:#EF4A38"/>
	</linearGradient>
	<path class="st6" d="M264.9,264.5h264.9v31.2H264.9V264.5z"/>
	<linearGradient id="SVGID_8_" gradientUnits="userSpaceOnUse" x1="264.8727" y1="342.4388" x2="373.9343" y2="342.4388">
		<stop  offset="0" style="stop-color:#EF7C00"/>
		<stop  offset="1" style="stop-color:#EF4A38"/>
	</linearGradient>
	<path class="st7" d="M264.9,326.9h109.1V358H264.9V326.9z"/>
	<linearGradient id="SVGID_9_" gradientUnits="userSpaceOnUse" x1="405.0981" y1="342.4388" x2="623.2213" y2="342.4388">
		<stop  offset="0" style="stop-color:#EF7C00"/>
		<stop  offset="1" style="stop-color:#EF4A38"/>
	</linearGradient>
	<path class="st8" d="M405.1,326.9h218.1V358H405.1V326.9z"/>
	<linearGradient id="SVGID_10_" gradientUnits="userSpaceOnUse" x1="560.9015" y1="280.119" x2="716.7087" y2="280.119">
		<stop  offset="0" style="stop-color:#EF7C00"/>
		<stop  offset="1" style="stop-color:#EF4A38"/>
	</linearGradient>
	<path class="st9" d="M560.9,264.5h155.8v31.2H560.9V264.5z"/>
	<linearGradient id="SVGID_11_" gradientUnits="userSpaceOnUse" x1="61.8576" y1="485.1815" x2="244.7217" y2="485.1815">
		<stop  offset="0" style="stop-color:#EF7C00"/>
		<stop  offset="1" style="stop-color:#EF4A38"/>
	</linearGradient>
	<path class="st10" d="M222.7,393.7l-39.6,39.6C149.7,411.2,104.9,418,79.5,449c-25.4,31.1-23.1,76.3,5.3,104.7
		c28.4,28.4,73.6,30.6,104.7,5.3c31.1-25.4,37.9-70.2,15.7-103.6l39.6-39.6L222.7,393.7z M140.2,545c-25.8,0-46.7-20.9-46.7-46.7
		c0-25.8,20.9-46.7,46.7-46.7c7,0,13.8,1.6,20,4.7l-31,31l22,22l31.1-31c3,6.2,4.6,13.1,4.7,20C187,524.1,166,545,140.2,545z"/>
	<linearGradient id="SVGID_12_" gradientUnits="userSpaceOnUse" x1="264.8727" y1="467.0822" x2="529.7377" y2="467.0822">
		<stop  offset="0" style="stop-color:#EF7C00"/>
		<stop  offset="1" style="stop-color:#EF4A38"/>
	</linearGradient>
	<path class="st11" d="M264.9,451.5h264.9v31.2H264.9V451.5z"/>
	<linearGradient id="SVGID_13_" gradientUnits="userSpaceOnUse" x1="264.8727" y1="529.4079" x2="373.9343" y2="529.4079">
		<stop  offset="0" style="stop-color:#EF7C00"/>
		<stop  offset="1" style="stop-color:#EF4A38"/>
	</linearGradient>
	<path class="st12" d="M264.9,513.8h109.1V545H264.9V513.8z"/>
	<linearGradient id="SVGID_14_" gradientUnits="userSpaceOnUse" x1="405.0981" y1="529.4079" x2="529.7377" y2="529.4079">
		<stop  offset="0" style="stop-color:#EF7C00"/>
		<stop  offset="1" style="stop-color:#EF4A38"/>
	</linearGradient>
	<path class="st13" d="M405.1,513.8h124.6V545H405.1V513.8z"/>
	<linearGradient id="SVGID_15_" gradientUnits="userSpaceOnUse" x1="560.9015" y1="467.0822" x2="623.2213" y2="467.0822">
		<stop  offset="0" style="stop-color:#EF7C00"/>
		<stop  offset="1" style="stop-color:#EF4A38"/>
	</linearGradient>
	<path class="st14" d="M560.9,451.5h62.3v31.2h-62.3V451.5z"/>
	<linearGradient id="SVGID_16_" gradientUnits="userSpaceOnUse" x1="61.8576" y1="672.1486" x2="244.7217" y2="672.1486">
		<stop  offset="0" style="stop-color:#EF7C00"/>
		<stop  offset="1" style="stop-color:#EF4A38"/>
	</linearGradient>
	<path class="st15" d="M222.7,580.7l-39.6,39.6c-33.5-22.1-78.2-15.4-103.6,15.7c-25.4,31.1-23.1,76.3,5.3,104.7
		c28.4,28.4,73.6,30.6,104.7,5.3c31.1-25.4,37.9-70.2,15.7-103.6l39.6-39.6L222.7,580.7z M140.2,732c-25.8,0-46.7-20.9-46.7-46.7
		c0-25.8,20.9-46.7,46.7-46.7c7,0,13.8,1.6,20,4.7l-31,31l22,22l31.1-31c3,6.2,4.6,13.1,4.7,20C187,711,166,732,140.2,732z"/>
	<linearGradient id="SVGID_17_" gradientUnits="userSpaceOnUse" x1="264.8727" y1="654.0553" x2="467.4179" y2="654.0553">
		<stop  offset="0" style="stop-color:#EF7C00"/>
		<stop  offset="1" style="stop-color:#EF4A38"/>
	</linearGradient>
	<path class="st16" d="M264.9,638.5h202.5v31.2H264.9V638.5z"/>
	<linearGradient id="SVGID_18_" gradientUnits="userSpaceOnUse" x1="264.8727" y1="716.3751" x2="373.9343" y2="716.3751">
		<stop  offset="0" style="stop-color:#EF7C00"/>
		<stop  offset="1" style="stop-color:#EF4A38"/>
	</linearGradient>
	<path class="st17" d="M264.9,700.8h109.1V732H264.9V700.8z"/>
	<linearGradient id="SVGID_19_" gradientUnits="userSpaceOnUse" x1="405.0981" y1="716.3751" x2="467.4179" y2="716.3751">
		<stop  offset="0" style="stop-color:#EF7C00"/>
		<stop  offset="1" style="stop-color:#EF4A38"/>
	</linearGradient>
	<path class="st18" d="M405.1,700.8h62.3V732h-62.3V700.8z"/>
	<linearGradient id="SVGID_20_" gradientUnits="userSpaceOnUse" x1="498.5817" y1="716.377" x2="965.9996" y2="716.377">
		<stop  offset="0" style="stop-color:#EF7C00"/>
		<stop  offset="1" style="stop-color:#EF4A38"/>
	</linearGradient>
	<path class="st19" d="M732.3,950.1c129.1,0,233.7-104.6,233.7-233.7c0-129.1-104.6-233.7-233.7-233.7S498.6,587.3,498.6,716.4
		C498.7,845.4,603.3,949.9,732.3,950.1z M732.3,513.8c111.9,0,202.5,90.7,202.5,202.5s-90.7,202.5-202.5,202.5
		c-111.9,0-202.6-90.7-202.6-202.5C529.9,604.6,620.5,514,732.3,513.8z"/>
	<linearGradient id="SVGID_21_" gradientUnits="userSpaceOnUse" x1="609.3616" y1="703.0777" x2="852.3689" y2="703.0777">
		<stop  offset="0" style="stop-color:#EF7C00"/>
		<stop  offset="1" style="stop-color:#EF4A38"/>
	</linearGradient>
	<path class="st20" d="M637.3,725l-27.9,13.9l31.2,62.3c2.2,4.5,6.5,7.6,11.4,8.4c0.8,0.1,1.6,0.2,2.4,0.2c4.1,0,8.1-1.6,11-4.6
		l187-187l-22-22L658.7,768L637.3,725z"/>
</g>
</svg>
