<?xml version="1.0" encoding="utf-8"?>
<!-- Generator: Adobe Illustrator 23.0.2, SVG Export Plug-In . SVG Version: 6.00 Build 0)  -->
<svg version="1.1" id="Layer_1" xmlns="http://www.w3.org/2000/svg" xmlns:xlink="http://www.w3.org/1999/xlink" x="0px" y="0px"
	 viewBox="0 0 966 966" style="enable-background:new 0 0 966 966;" xml:space="preserve">
<style type="text/css">
	.st0{fill:url(#SVGID_1_);}
</style>
<linearGradient id="SVGID_1_" gradientUnits="userSpaceOnUse" x1="978.293" y1="757.8313" x2="-52.2626" y2="162.8398">
	<stop  offset="1.281415e-03" style="stop-color:#EA0647"/>
	<stop  offset="1" style="stop-color:#FBAD1A"/>
</linearGradient>
<path class="st0" d="M77.9,856.6H483v-31.2H77.9c-25.8,0-46.7-20.9-46.7-46.7V93.1c0-25.8,20.9-46.7,46.7-46.7h685.5
	c25.8,0,46.7,20.9,46.7,46.7v358.4h31.2V93.1c-0.1-43-34.9-77.9-77.9-77.9H77.9C34.9,15.3,0.1,50.1,0,93.1v685.5
	C0.1,821.7,34.9,856.5,77.9,856.6z M62.3,77.6h31.2v31.2H62.3V77.6z M124.6,77.6h31.2v31.2h-31.2C124.6,108.8,124.6,77.6,124.6,77.6
	z M187,77.6h31.2v31.2H187V77.6z M62.3,139.9H779v31.2H62.3V139.9z M222.7,206.8l-39.6,39.6c-33.5-22.1-78.2-15.4-103.6,15.7
	s-23.1,76.3,5.3,104.7c28.4,28.4,73.6,30.7,104.7,5.3c31.1-25.4,37.9-70.2,15.7-103.6l39.6-39.6L222.7,206.8z M140.2,358
	c-25.8,0-46.7-20.9-46.7-46.7c0-25.8,20.9-46.7,46.7-46.7c7,0,13.8,1.6,20,4.7l-31,31l22,22l31.1-31c3,6.2,4.6,13.1,4.7,20
	C187,337.1,166,358,140.2,358z M264.9,264.5h264.9v31.2H264.9V264.5z M264.9,326.9H374V358H264.9V326.9z M405.1,326.9h218.1V358
	H405.1V326.9z M560.9,264.5h155.8v31.2H560.9V264.5z M222.7,393.7l-39.6,39.6C149.7,411.2,104.9,418,79.5,449
	c-25.4,31.1-23.1,76.3,5.3,104.7s73.6,30.6,104.7,5.3c31.1-25.4,37.9-70.2,15.7-103.6l39.6-39.6L222.7,393.7z M140.2,545
	c-25.8,0-46.7-20.9-46.7-46.7s20.9-46.7,46.7-46.7c7,0,13.8,1.6,20,4.7l-31,31l22,22l31.1-31c3,6.2,4.6,13.1,4.7,20
	C187,524.1,166,545,140.2,545z M264.9,451.5h264.9v31.2H264.9V451.5z M264.9,513.8H374V545H264.9V513.8z M405.1,513.8h124.6V545
	H405.1V513.8z M560.9,451.5h62.3v31.2h-62.3V451.5z M222.7,580.7l-39.6,39.6c-33.5-22.1-78.2-15.4-103.6,15.7
	c-25.4,31.1-23.1,76.3,5.3,104.7s73.6,30.6,104.7,5.3c31.1-25.4,37.9-70.2,15.7-103.6l39.6-39.6L222.7,580.7z M140.2,732
	c-25.8,0-46.7-20.9-46.7-46.7s20.9-46.7,46.7-46.7c7,0,13.8,1.6,20,4.7l-31,31l22,22l31.1-31c3,6.2,4.6,13.1,4.7,20
	C187,711,166,732,140.2,732z M264.9,638.5h202.5v31.2H264.9V638.5z M264.9,700.8H374V732H264.9V700.8z M405.1,700.8h62.3V732h-62.3
	V700.8z M732.3,950.1c129.1,0,233.7-104.6,233.7-233.7S861.4,482.7,732.3,482.7S498.6,587.3,498.6,716.4
	C498.7,845.4,603.3,949.9,732.3,950.1z M732.3,513.8c111.9,0,202.5,90.7,202.5,202.5s-90.7,202.5-202.5,202.5
	c-111.9,0-202.6-90.7-202.6-202.5C529.9,604.6,620.5,514,732.3,513.8z M637.3,725l-27.9,13.9l31.2,62.3c2.2,4.5,6.5,7.6,11.4,8.4
	c0.8,0.1,1.6,0.2,2.4,0.2c4.1,0,8.1-1.6,11-4.6l187-187l-22-22L658.7,768L637.3,725z"/>
</svg>
