<?xml version="1.0" encoding="utf-8"?>
<!-- Generator: Adobe Illustrator 23.0.2, SVG Export Plug-In . SVG Version: 6.00 Build 0)  -->
<svg version="1.1" id="Layer_1" xmlns="http://www.w3.org/2000/svg" xmlns:xlink="http://www.w3.org/1999/xlink" x="0px" y="0px"
	 viewBox="0 0 512 512" style="enable-background:new 0 0 512 512;" xml:space="preserve">
<style type="text/css">
	.st0{fill:url(#SVGID_1_);}
	.st1{fill:url(#SVGID_2_);}
	.st2{fill:url(#SVGID_3_);}
	.st3{fill:url(#SVGID_4_);}
	.st4{fill:url(#SVGID_5_);}
	.st5{fill:url(#SVGID_6_);}
	.st6{fill:url(#SVGID_7_);}
	.st7{fill:url(#SVGID_8_);}
	.st8{fill:url(#SVGID_9_);}
	.st9{fill:url(#SVGID_10_);}
</style>
<g>
	<g>
		<g>
			<linearGradient id="SVGID_1_" gradientUnits="userSpaceOnUse" x1="202.499" y1="356.953" x2="217.499" y2="356.953">
				<stop  offset="0" style="stop-color:#623895"/>
				<stop  offset="1" style="stop-color:#EC0C8C"/>
			</linearGradient>
			<path class="st0" d="M210,374.2c4.1,0,7.5-3.4,7.5-7.5v-19.4c0-4.1-3.4-7.5-7.5-7.5c-4.1,0-7.5,3.4-7.5,7.5v19.4
				C202.5,370.8,205.9,374.2,210,374.2z"/>
			<linearGradient id="SVGID_2_" gradientUnits="userSpaceOnUse" x1="224.781" y1="356.953" x2="239.781" y2="356.953">
				<stop  offset="0" style="stop-color:#623895"/>
				<stop  offset="1" style="stop-color:#EC0C8C"/>
			</linearGradient>
			<path class="st1" d="M232.3,374.2c4.1,0,7.5-3.4,7.5-7.5v-19.4c0-4.1-3.4-7.5-7.5-7.5s-7.5,3.4-7.5,7.5v19.4
				C224.8,370.8,228.1,374.2,232.3,374.2z"/>
			<linearGradient id="SVGID_3_" gradientUnits="userSpaceOnUse" x1="247.062" y1="356.953" x2="262.062" y2="356.953">
				<stop  offset="0" style="stop-color:#623895"/>
				<stop  offset="1" style="stop-color:#EC0C8C"/>
			</linearGradient>
			<path class="st2" d="M254.6,374.2c4.1,0,7.5-3.4,7.5-7.5v-19.4c0-4.1-3.4-7.5-7.5-7.5s-7.5,3.4-7.5,7.5v19.4
				C247.1,370.8,250.4,374.2,254.6,374.2z"/>
			<linearGradient id="SVGID_4_" gradientUnits="userSpaceOnUse" x1="170.999" y1="51.1815" x2="379.75" y2="51.1815">
				<stop  offset="0" style="stop-color:#623895"/>
				<stop  offset="1" style="stop-color:#EC0C8C"/>
			</linearGradient>
			<path class="st3" d="M188.2,102.4c4.1,0,7.5-3.4,7.5-7.5s-3.4-7.5-7.5-7.5c-1.2,0-2.2-1-2.2-2.2V17.2c0-1.2,1-2.2,2.2-2.2h174.4
				c1.2,0,2.2,1,2.2,2.2c0,4.1,3.4,7.5,7.5,7.5s7.5-3.4,7.5-7.5C379.8,7.7,372,0,362.6,0H188.2C178.7,0,171,7.7,171,17.2v67.9
				C171,94.6,178.7,102.4,188.2,102.4z"/>
			<linearGradient id="SVGID_5_" gradientUnits="userSpaceOnUse" x1="134.624" y1="464.7007" x2="329.4827" y2="464.7007">
				<stop  offset="0" style="stop-color:#623895"/>
				<stop  offset="1" style="stop-color:#EC0C8C"/>
			</linearGradient>
			<path class="st4" d="M322.9,417.5c-4.1-0.5-7.9,2.4-8.4,6.5l-9,73H158.1l-8.5-73c-0.5-4.1-4.2-7.1-8.3-6.6
				c-4.1,0.5-7.1,4.2-6.6,8.3l9.2,79.6c0.4,3.8,3.6,6.6,7.4,6.6h160.8c3.8,0,7-2.8,7.4-6.6l9.8-79.6
				C329.9,421.7,327,418,322.9,417.5z"/>
			<linearGradient id="SVGID_6_" gradientUnits="userSpaceOnUse" x1="248.499" y1="74.964" x2="291.178" y2="74.964">
				<stop  offset="0" style="stop-color:#623895"/>
				<stop  offset="1" style="stop-color:#EC0C8C"/>
			</linearGradient>
			<path class="st5" d="M256,82.5h27.7c4.1,0,7.5-3.4,7.5-7.5s-3.4-7.5-7.5-7.5H256c-4.1,0-7.5,3.4-7.5,7.5S251.9,82.5,256,82.5z"/>
			<linearGradient id="SVGID_7_" gradientUnits="userSpaceOnUse" x1="248.499" y1="99.231" x2="350.687" y2="99.231">
				<stop  offset="0" style="stop-color:#623895"/>
				<stop  offset="1" style="stop-color:#EC0C8C"/>
			</linearGradient>
			<path class="st6" d="M256,106.7h87.2c4.1,0,7.5-3.4,7.5-7.5s-3.4-7.5-7.5-7.5H256c-4.1,0-7.5,3.4-7.5,7.5S251.9,106.7,256,106.7z
				"/>
			<linearGradient id="SVGID_8_" gradientUnits="userSpaceOnUse" x1="93.5" y1="293.8585" x2="372" y2="293.8585">
				<stop  offset="0" style="stop-color:#623895"/>
				<stop  offset="1" style="stop-color:#EC0C8C"/>
			</linearGradient>
			<path class="st7" d="M354.8,213.6h-11.9v-11.9c0-9.5-7.7-17.2-17.2-17.2h-186c-9.5,0-17.2,7.7-17.2,17.2v11.9h-11.9
				c-9.5,0-17.2,7.7-17.2,17.2v29.1c0,4.1,3.4,7.5,7.5,7.5h15.3l5,43.2h-0.8c-4.9,0-9.6,2.1-12.8,5.8c-3.3,3.7-4.8,8.6-4.2,13.4
				l6.8,58.2c1,8.7,8.3,15.2,17.1,15.2h209.6c8.7,0,16-6.5,17.1-15.1l7.2-58.2c0.6-4.9-0.9-9.8-4.2-13.5c-3.3-3.7-8-5.8-12.9-5.8
				h-0.5l5.3-43.2h15.6c4.1,0,7.5-3.4,7.5-7.5v-29.1C372,221.3,364.3,213.6,354.8,213.6z M344.1,325.6c0.9,0,1.4,0.5,1.6,0.7
				c0.2,0.3,0.6,0.9,0.5,1.7l-7.2,58.2c-0.1,1.1-1.1,1.9-2.2,1.9H127.3c-1.1,0-2-0.8-2.2-2l-6.8-58.2c-0.1-0.9,0.3-1.5,0.5-1.7
				c0.2-0.3,0.8-0.7,1.6-0.7h9.2c0,0,0,0,0,0c0,0,0,0,0,0H344.1z M131.4,267.4h202.4l-5.3,43.2H136.4L131.4,267.4z M357,252.4H122.9
				c0,0,0,0-0.1,0h-14.3v-21.6c0-1.2,1-2.2,2.2-2.2h158.9c4.1,0,7.5-3.4,7.5-7.5s-3.4-7.5-7.5-7.5h-132v-11.9c0-1.2,1-2.2,2.2-2.2
				h186c1.2,0,2.2,1,2.2,2.2v11.9h-29.3c-4.1,0-7.5,3.4-7.5,7.5s3.4,7.5,7.5,7.5h56.2c1.2,0,2.2,1,2.2,2.2L357,252.4L357,252.4z"/>
			<linearGradient id="SVGID_9_" gradientUnits="userSpaceOnUse" x1="306.624" y1="74.964" x2="389.437" y2="74.964">
				<stop  offset="0" style="stop-color:#623895"/>
				<stop  offset="1" style="stop-color:#EC0C8C"/>
			</linearGradient>
			<path class="st8" d="M389.4,75c0-4.1-3.4-7.5-7.5-7.5h-67.8c-4.1,0-7.5,3.4-7.5,7.5s3.4,7.5,7.5,7.5h67.8
				C386.1,82.5,389.4,79.1,389.4,75z"/>
			<linearGradient id="SVGID_10_" gradientUnits="userSpaceOnUse" x1="209.749" y1="99.7165" x2="418.5" y2="99.7165">
				<stop  offset="0" style="stop-color:#623895"/>
				<stop  offset="1" style="stop-color:#EC0C8C"/>
			</linearGradient>
			<path class="st9" d="M399,38.8h-47.4c-4.1,0-7.5,3.4-7.5,7.5s3.4,7.5,7.5,7.5H399c2.5,0,4.5,2,4.5,4.5v63.4c0,2.5-2,4.5-4.5,4.5
				H253.7c-7.4,0-14.1,4.1-17.4,10.8l-3.1,6.1c-0.8,1.5-2.3,2.5-4,2.5c-2.5,0-4.5-2-4.5-4.5V58.3c0-2.5,2-4.5,4.5-4.5h92.9
				c4.1,0,7.5-3.4,7.5-7.5s-3.4-7.5-7.5-7.5h-92.9c-10.7,0-19.5,8.7-19.5,19.5v82.8c0,10.8,8.7,19.5,19.5,19.5
				c7.4,0,14.1-4.1,17.4-10.8l3.1-6.1c0.8-1.5,2.3-2.5,4-2.5H399c10.7,0,19.5-8.7,19.5-19.5V58.3C418.5,47.6,409.8,38.8,399,38.8z"
				/>
		</g>
	</g>
</g>
</svg>
