<?xml version="1.0" encoding="utf-8"?>
<!-- Generator: Adobe Illustrator 23.0.2, SVG Export Plug-In . SVG Version: 6.00 Build 0)  -->
<svg version="1.1" id="Layer_1" xmlns="http://www.w3.org/2000/svg" xmlns:xlink="http://www.w3.org/1999/xlink" x="0px" y="0px"
	 viewBox="0 0 480 480" style="enable-background:new 0 0 480 480;" xml:space="preserve">
<style type="text/css">
	.st0{fill:url(#SVGID_1_);}
</style>
<linearGradient id="SVGID_1_" gradientUnits="userSpaceOnUse" x1="462.1765" y1="370.7583" x2="27.7472" y2="119.9405">
	<stop  offset="0" style="stop-color:#FFFFFF"/>
	<stop  offset="0" style="stop-color:#55CFD8"/>
	<stop  offset="1" style="stop-color:#008CFF"/>
</linearGradient>
<path class="st0" d="M376,480c22.1,0,40-17.9,40-40V176h32V32h-32V8c0-4.4-3.6-8-8-8H152c-2.1,0-4.2,0.8-5.7,2.4l-80,80
	C64.8,83.8,64,85.9,64,88v312H32v40c0,22.1,17.9,40,40,40H376z M432,160H192V48h240V160z M144,27.3V80H91.3L144,27.3z M80,96h72
	c4.4,0,8-3.6,8-8V16h240v16H176v144h224v264c0,13.3-10.7,24-24,24s-24-10.7-24-24v-32c0-4.4-3.6-8-8-8H80V96z M48,440v-24h288v24
	c0,8.7,2.9,17.1,8.2,24H72C58.7,464,48,453.3,48,440z M96,112h16v16H96V112z M128,136h16v16h-16V136z M368,384h16v16h-16V384z
	 M224,112h32c4.4,0,8-3.6,8-8V72c0-4.4-3.6-8-8-8h-40c-4.4,0-8,3.6-8,8v72h16V112z M224,80h24v16h-24V80z M288,144h24
	c1.2,0,2.5-0.3,3.6-0.8c13.6-8.2,21.5-23.3,20.4-39.2c1-15.8-6.8-30.9-20.4-39.2c-1.1-0.6-2.3-0.8-3.6-0.8h-24c-4.4,0-8,3.6-8,8v64
	C280,140.4,283.6,144,288,144z M296,80h13.7c7.1,5.9,11,14.8,10.3,24c0.7,9.2-3.2,18.1-10.3,24H296V80z M368,112h16V96h-16V80h40V64
	h-48c-4.4,0-8,3.6-8,8v72h16V112z M96,192h64v16H96V192z M176,192h16v16h-16V192z M96,224h80v16H96V224z M96,256h16v16H96V256z
	 M128,256h48v16h-48V256z M96,288h96v16H96V288z M208,192h32v16h-32V192z M192,224h48v16h-48V224z M192,256h48v16h-48V256z M208,288
	h32v16h-32V288z M384,192H256v112h128V192z M368,288h-96v-80h96V288z M32,200v-16h16v-16H32v-16H16v16H0v16h16v16H32z M464,280h-16
	v16h-16v16h16v16h16v-16h16v-16h-16V280z M96,384h160v-64H96V384z M112,336h128v32H112V336z M272,320h88v16h-88V320z M272,352h112
	v16H272V352z"/>
</svg>
