<?xml version="1.0" encoding="utf-8"?>
<!-- Generator: Adobe Illustrator 23.0.2, SVG Export Plug-In . SVG Version: 6.00 Build 0)  -->
<svg version="1.1" id="Layer_1" xmlns="http://www.w3.org/2000/svg" xmlns:xlink="http://www.w3.org/1999/xlink" x="0px" y="0px"
	 viewBox="0 0 480 480" style="enable-background:new 0 0 480 480;" xml:space="preserve">
<style type="text/css">
	.st0{fill:url(#SVGID_1_);}
	.st1{fill:url(#SVGID_2_);}
	.st2{fill:url(#SVGID_3_);}
	.st3{fill:url(#SVGID_4_);}
	.st4{fill:url(#SVGID_5_);}
	.st5{fill:url(#SVGID_6_);}
	.st6{fill:url(#SVGID_7_);}
	.st7{fill:url(#SVGID_8_);}
	.st8{fill:url(#SVGID_9_);}
	.st9{fill:url(#SVGID_10_);}
	.st10{fill:url(#SVGID_11_);}
	.st11{fill:url(#SVGID_12_);}
	.st12{fill:url(#SVGID_13_);}
	.st13{fill:url(#SVGID_14_);}
	.st14{fill:url(#SVGID_15_);}
	.st15{fill:url(#SVGID_16_);}
	.st16{fill:url(#SVGID_17_);}
	.st17{fill:url(#SVGID_18_);}
	.st18{fill:url(#SVGID_19_);}
	.st19{fill:url(#SVGID_20_);}
	.st20{fill:url(#SVGID_21_);}
	.st21{fill:url(#SVGID_22_);}
	.st22{fill:url(#SVGID_23_);}
</style>
<linearGradient id="SVGID_1_" gradientUnits="userSpaceOnUse" x1="434.1437" y1="438.4312" x2="72.2036" y2="76.4911">
	<stop  offset="0" style="stop-color:#FFFFFF"/>
	<stop  offset="0" style="stop-color:#59EFD2"/>
	<stop  offset="2.086049e-02" style="stop-color:#5FE6D0"/>
	<stop  offset="0.1666" style="stop-color:#86AFC3"/>
	<stop  offset="0.3134" style="stop-color:#A880B8"/>
	<stop  offset="0.4582" style="stop-color:#C359AF"/>
	<stop  offset="0.6007" style="stop-color:#D93BA8"/>
	<stop  offset="0.7399" style="stop-color:#E825A3"/>
	<stop  offset="0.8747" style="stop-color:#F118A0"/>
	<stop  offset="1" style="stop-color:#F4149F"/>
</linearGradient>
<path class="st0" d="M376,480c22.1,0,40-17.9,40-40V176h32V32h-32V8c0-4.4-3.6-8-8-8H152c-2.1,0-4.2,0.8-5.7,2.4l-80,80
	C64.8,83.8,64,85.9,64,88v312H32v40c0,22.1,17.9,40,40,40H376z M432,160H192V48h240V160z M144,27.3V80H91.3L144,27.3z M80,96h72
	c4.4,0,8-3.6,8-8V16h240v16H176v144h224v264c0,13.3-10.7,24-24,24s-24-10.7-24-24v-32c0-4.4-3.6-8-8-8H80V96z M48,440v-24h288v24
	c0,8.7,2.9,17.1,8.2,24H72C58.7,464,48,453.3,48,440z"/>
<linearGradient id="SVGID_2_" gradientUnits="userSpaceOnUse" x1="112" y1="128" x2="96" y2="112">
	<stop  offset="0" style="stop-color:#FFFFFF"/>
	<stop  offset="0" style="stop-color:#59EFD2"/>
	<stop  offset="2.086049e-02" style="stop-color:#5FE6D0"/>
	<stop  offset="0.1666" style="stop-color:#86AFC3"/>
	<stop  offset="0.3134" style="stop-color:#A880B8"/>
	<stop  offset="0.4582" style="stop-color:#C359AF"/>
	<stop  offset="0.6007" style="stop-color:#D93BA8"/>
	<stop  offset="0.7399" style="stop-color:#E825A3"/>
	<stop  offset="0.8747" style="stop-color:#F118A0"/>
	<stop  offset="1" style="stop-color:#F4149F"/>
</linearGradient>
<path class="st1" d="M96,112h16v16H96V112z"/>
<linearGradient id="SVGID_3_" gradientUnits="userSpaceOnUse" x1="144" y1="152" x2="128" y2="136">
	<stop  offset="0" style="stop-color:#FFFFFF"/>
	<stop  offset="0" style="stop-color:#59EFD2"/>
	<stop  offset="2.086049e-02" style="stop-color:#5FE6D0"/>
	<stop  offset="0.1666" style="stop-color:#86AFC3"/>
	<stop  offset="0.3134" style="stop-color:#A880B8"/>
	<stop  offset="0.4582" style="stop-color:#C359AF"/>
	<stop  offset="0.6007" style="stop-color:#D93BA8"/>
	<stop  offset="0.7399" style="stop-color:#E825A3"/>
	<stop  offset="0.8747" style="stop-color:#F118A0"/>
	<stop  offset="1" style="stop-color:#F4149F"/>
</linearGradient>
<path class="st2" d="M128,136h16v16h-16V136z"/>
<linearGradient id="SVGID_4_" gradientUnits="userSpaceOnUse" x1="384" y1="400" x2="368" y2="384">
	<stop  offset="0" style="stop-color:#FFFFFF"/>
	<stop  offset="0" style="stop-color:#59EFD2"/>
	<stop  offset="2.086049e-02" style="stop-color:#5FE6D0"/>
	<stop  offset="0.1666" style="stop-color:#86AFC3"/>
	<stop  offset="0.3134" style="stop-color:#A880B8"/>
	<stop  offset="0.4582" style="stop-color:#C359AF"/>
	<stop  offset="0.6007" style="stop-color:#D93BA8"/>
	<stop  offset="0.7399" style="stop-color:#E825A3"/>
	<stop  offset="0.8747" style="stop-color:#F118A0"/>
	<stop  offset="1" style="stop-color:#F4149F"/>
</linearGradient>
<path class="st3" d="M368,384h16v16h-16V384z"/>
<g>
	<linearGradient id="SVGID_5_" gradientUnits="userSpaceOnUse" x1="250.475" y1="120.825" x2="203.175" y2="73.525">
		<stop  offset="0" style="stop-color:#FFFFFF"/>
		<stop  offset="0" style="stop-color:#59EFD2"/>
		<stop  offset="2.086049e-02" style="stop-color:#5FE6D0"/>
		<stop  offset="0.1666" style="stop-color:#86AFC3"/>
		<stop  offset="0.3134" style="stop-color:#A880B8"/>
		<stop  offset="0.4582" style="stop-color:#C359AF"/>
		<stop  offset="0.6007" style="stop-color:#D93BA8"/>
		<stop  offset="0.7399" style="stop-color:#E825A3"/>
		<stop  offset="0.8747" style="stop-color:#F118A0"/>
		<stop  offset="1" style="stop-color:#F4149F"/>
	</linearGradient>
	<path class="st4" d="M224,112h32c4.4,0,8-3.6,8-8V72c0-4.4-3.6-8-8-8h-40c-4.4,0-8,3.6-8,8v72h16V112z M224,80h24v16h-24V80z"/>
	<linearGradient id="SVGID_6_" gradientUnits="userSpaceOnUse" x1="328.5827" y1="131.9816" x2="272.6505" y2="76.0495">
		<stop  offset="0" style="stop-color:#FFFFFF"/>
		<stop  offset="0" style="stop-color:#59EFD2"/>
		<stop  offset="2.086049e-02" style="stop-color:#5FE6D0"/>
		<stop  offset="0.1666" style="stop-color:#86AFC3"/>
		<stop  offset="0.3134" style="stop-color:#A880B8"/>
		<stop  offset="0.4582" style="stop-color:#C359AF"/>
		<stop  offset="0.6007" style="stop-color:#D93BA8"/>
		<stop  offset="0.7399" style="stop-color:#E825A3"/>
		<stop  offset="0.8747" style="stop-color:#F118A0"/>
		<stop  offset="1" style="stop-color:#F4149F"/>
	</linearGradient>
	<path class="st5" d="M288,144h24c1.2,0,2.5-0.3,3.6-0.8c13.6-8.2,21.5-23.3,20.4-39.2c1-15.8-6.8-30.9-20.4-39.2
		c-1.1-0.6-2.3-0.8-3.6-0.8h-24c-4.4,0-8,3.6-8,8v64C280,140.4,283.6,144,288,144z M296,80h13.7c7.1,5.9,11,14.8,10.3,24
		c0.7,9.2-3.2,18.1-10.3,24H296V80z"/>
	<linearGradient id="SVGID_7_" gradientUnits="userSpaceOnUse" x1="394" y1="118" x2="348.35" y2="72.35">
		<stop  offset="0" style="stop-color:#FFFFFF"/>
		<stop  offset="0" style="stop-color:#59EFD2"/>
		<stop  offset="2.086049e-02" style="stop-color:#5FE6D0"/>
		<stop  offset="0.1666" style="stop-color:#86AFC3"/>
		<stop  offset="0.3134" style="stop-color:#A880B8"/>
		<stop  offset="0.4582" style="stop-color:#C359AF"/>
		<stop  offset="0.6007" style="stop-color:#D93BA8"/>
		<stop  offset="0.7399" style="stop-color:#E825A3"/>
		<stop  offset="0.8747" style="stop-color:#F118A0"/>
		<stop  offset="1" style="stop-color:#F4149F"/>
	</linearGradient>
	<path class="st6" d="M368,112h16V96h-16V80h40V64h-48c-4.4,0-8,3.6-8,8v72h16V112z"/>
</g>
<linearGradient id="SVGID_8_" gradientUnits="userSpaceOnUse" x1="148" y1="220" x2="108" y2="180">
	<stop  offset="0" style="stop-color:#FFFFFF"/>
	<stop  offset="0" style="stop-color:#59EFD2"/>
	<stop  offset="2.086049e-02" style="stop-color:#5FE6D0"/>
	<stop  offset="0.1666" style="stop-color:#86AFC3"/>
	<stop  offset="0.3134" style="stop-color:#A880B8"/>
	<stop  offset="0.4582" style="stop-color:#C359AF"/>
	<stop  offset="0.6007" style="stop-color:#D93BA8"/>
	<stop  offset="0.7399" style="stop-color:#E825A3"/>
	<stop  offset="0.8747" style="stop-color:#F118A0"/>
	<stop  offset="1" style="stop-color:#F4149F"/>
</linearGradient>
<path class="st7" d="M96,192h64v16H96V192z"/>
<linearGradient id="SVGID_9_" gradientUnits="userSpaceOnUse" x1="192" y1="208" x2="176" y2="192">
	<stop  offset="0" style="stop-color:#FFFFFF"/>
	<stop  offset="0" style="stop-color:#59EFD2"/>
	<stop  offset="2.086049e-02" style="stop-color:#5FE6D0"/>
	<stop  offset="0.1666" style="stop-color:#86AFC3"/>
	<stop  offset="0.3134" style="stop-color:#A880B8"/>
	<stop  offset="0.4582" style="stop-color:#C359AF"/>
	<stop  offset="0.6007" style="stop-color:#D93BA8"/>
	<stop  offset="0.7399" style="stop-color:#E825A3"/>
	<stop  offset="0.8747" style="stop-color:#F118A0"/>
	<stop  offset="1" style="stop-color:#F4149F"/>
</linearGradient>
<path class="st8" d="M176,192h16v16h-16V192z"/>
<linearGradient id="SVGID_10_" gradientUnits="userSpaceOnUse" x1="160" y1="256" x2="112" y2="208">
	<stop  offset="0" style="stop-color:#FFFFFF"/>
	<stop  offset="0" style="stop-color:#59EFD2"/>
	<stop  offset="2.086049e-02" style="stop-color:#5FE6D0"/>
	<stop  offset="0.1666" style="stop-color:#86AFC3"/>
	<stop  offset="0.3134" style="stop-color:#A880B8"/>
	<stop  offset="0.4582" style="stop-color:#C359AF"/>
	<stop  offset="0.6007" style="stop-color:#D93BA8"/>
	<stop  offset="0.7399" style="stop-color:#E825A3"/>
	<stop  offset="0.8747" style="stop-color:#F118A0"/>
	<stop  offset="1" style="stop-color:#F4149F"/>
</linearGradient>
<path class="st9" d="M96,224h80v16H96V224z"/>
<linearGradient id="SVGID_11_" gradientUnits="userSpaceOnUse" x1="112" y1="272" x2="96" y2="256">
	<stop  offset="0" style="stop-color:#FFFFFF"/>
	<stop  offset="0" style="stop-color:#59EFD2"/>
	<stop  offset="2.086049e-02" style="stop-color:#5FE6D0"/>
	<stop  offset="0.1666" style="stop-color:#86AFC3"/>
	<stop  offset="0.3134" style="stop-color:#A880B8"/>
	<stop  offset="0.4582" style="stop-color:#C359AF"/>
	<stop  offset="0.6007" style="stop-color:#D93BA8"/>
	<stop  offset="0.7399" style="stop-color:#E825A3"/>
	<stop  offset="0.8747" style="stop-color:#F118A0"/>
	<stop  offset="1" style="stop-color:#F4149F"/>
</linearGradient>
<path class="st10" d="M96,256h16v16H96V256z"/>
<linearGradient id="SVGID_12_" gradientUnits="userSpaceOnUse" x1="168" y1="280" x2="136" y2="248">
	<stop  offset="0" style="stop-color:#FFFFFF"/>
	<stop  offset="0" style="stop-color:#59EFD2"/>
	<stop  offset="2.086049e-02" style="stop-color:#5FE6D0"/>
	<stop  offset="0.1666" style="stop-color:#86AFC3"/>
	<stop  offset="0.3134" style="stop-color:#A880B8"/>
	<stop  offset="0.4582" style="stop-color:#C359AF"/>
	<stop  offset="0.6007" style="stop-color:#D93BA8"/>
	<stop  offset="0.7399" style="stop-color:#E825A3"/>
	<stop  offset="0.8747" style="stop-color:#F118A0"/>
	<stop  offset="1" style="stop-color:#F4149F"/>
</linearGradient>
<path class="st11" d="M128,256h48v16h-48V256z"/>
<linearGradient id="SVGID_13_" gradientUnits="userSpaceOnUse" x1="172" y1="324" x2="116" y2="268">
	<stop  offset="0" style="stop-color:#FFFFFF"/>
	<stop  offset="0" style="stop-color:#59EFD2"/>
	<stop  offset="2.086049e-02" style="stop-color:#5FE6D0"/>
	<stop  offset="0.1666" style="stop-color:#86AFC3"/>
	<stop  offset="0.3134" style="stop-color:#A880B8"/>
	<stop  offset="0.4582" style="stop-color:#C359AF"/>
	<stop  offset="0.6007" style="stop-color:#D93BA8"/>
	<stop  offset="0.7399" style="stop-color:#E825A3"/>
	<stop  offset="0.8747" style="stop-color:#F118A0"/>
	<stop  offset="1" style="stop-color:#F4149F"/>
</linearGradient>
<path class="st12" d="M96,288h96v16H96V288z"/>
<linearGradient id="SVGID_14_" gradientUnits="userSpaceOnUse" x1="236" y1="212" x2="212" y2="188">
	<stop  offset="0" style="stop-color:#FFFFFF"/>
	<stop  offset="0" style="stop-color:#59EFD2"/>
	<stop  offset="2.086049e-02" style="stop-color:#5FE6D0"/>
	<stop  offset="0.1666" style="stop-color:#86AFC3"/>
	<stop  offset="0.3134" style="stop-color:#A880B8"/>
	<stop  offset="0.4582" style="stop-color:#C359AF"/>
	<stop  offset="0.6007" style="stop-color:#D93BA8"/>
	<stop  offset="0.7399" style="stop-color:#E825A3"/>
	<stop  offset="0.8747" style="stop-color:#F118A0"/>
	<stop  offset="1" style="stop-color:#F4149F"/>
</linearGradient>
<path class="st13" d="M208,192h32v16h-32V192z"/>
<linearGradient id="SVGID_15_" gradientUnits="userSpaceOnUse" x1="232" y1="248" x2="200" y2="216">
	<stop  offset="0" style="stop-color:#FFFFFF"/>
	<stop  offset="0" style="stop-color:#59EFD2"/>
	<stop  offset="2.086049e-02" style="stop-color:#5FE6D0"/>
	<stop  offset="0.1666" style="stop-color:#86AFC3"/>
	<stop  offset="0.3134" style="stop-color:#A880B8"/>
	<stop  offset="0.4582" style="stop-color:#C359AF"/>
	<stop  offset="0.6007" style="stop-color:#D93BA8"/>
	<stop  offset="0.7399" style="stop-color:#E825A3"/>
	<stop  offset="0.8747" style="stop-color:#F118A0"/>
	<stop  offset="1" style="stop-color:#F4149F"/>
</linearGradient>
<path class="st14" d="M192,224h48v16h-48V224z"/>
<linearGradient id="SVGID_16_" gradientUnits="userSpaceOnUse" x1="232" y1="280" x2="200" y2="248">
	<stop  offset="0" style="stop-color:#FFFFFF"/>
	<stop  offset="0" style="stop-color:#59EFD2"/>
	<stop  offset="2.086049e-02" style="stop-color:#5FE6D0"/>
	<stop  offset="0.1666" style="stop-color:#86AFC3"/>
	<stop  offset="0.3134" style="stop-color:#A880B8"/>
	<stop  offset="0.4582" style="stop-color:#C359AF"/>
	<stop  offset="0.6007" style="stop-color:#D93BA8"/>
	<stop  offset="0.7399" style="stop-color:#E825A3"/>
	<stop  offset="0.8747" style="stop-color:#F118A0"/>
	<stop  offset="1" style="stop-color:#F4149F"/>
</linearGradient>
<path class="st15" d="M192,256h48v16h-48V256z"/>
<linearGradient id="SVGID_17_" gradientUnits="userSpaceOnUse" x1="236" y1="308" x2="212" y2="284">
	<stop  offset="0" style="stop-color:#FFFFFF"/>
	<stop  offset="0" style="stop-color:#59EFD2"/>
	<stop  offset="2.086049e-02" style="stop-color:#5FE6D0"/>
	<stop  offset="0.1666" style="stop-color:#86AFC3"/>
	<stop  offset="0.3134" style="stop-color:#A880B8"/>
	<stop  offset="0.4582" style="stop-color:#C359AF"/>
	<stop  offset="0.6007" style="stop-color:#D93BA8"/>
	<stop  offset="0.7399" style="stop-color:#E825A3"/>
	<stop  offset="0.8747" style="stop-color:#F118A0"/>
	<stop  offset="1" style="stop-color:#F4149F"/>
</linearGradient>
<path class="st16" d="M208,288h32v16h-32V288z"/>
<linearGradient id="SVGID_18_" gradientUnits="userSpaceOnUse" x1="380" y1="308" x2="260" y2="188">
	<stop  offset="0" style="stop-color:#FFFFFF"/>
	<stop  offset="0" style="stop-color:#59EFD2"/>
	<stop  offset="2.086049e-02" style="stop-color:#5FE6D0"/>
	<stop  offset="0.1666" style="stop-color:#86AFC3"/>
	<stop  offset="0.3134" style="stop-color:#A880B8"/>
	<stop  offset="0.4582" style="stop-color:#C359AF"/>
	<stop  offset="0.6007" style="stop-color:#D93BA8"/>
	<stop  offset="0.7399" style="stop-color:#E825A3"/>
	<stop  offset="0.8747" style="stop-color:#F118A0"/>
	<stop  offset="1" style="stop-color:#F4149F"/>
</linearGradient>
<path class="st17" d="M384,192H256v112h128V192z M368,288h-96v-80h96V288z"/>
<linearGradient id="SVGID_19_" gradientUnits="userSpaceOnUse" x1="40" y1="192" x2="8" y2="160">
	<stop  offset="0" style="stop-color:#FFFFFF"/>
	<stop  offset="0" style="stop-color:#59EFD2"/>
	<stop  offset="2.086049e-02" style="stop-color:#5FE6D0"/>
	<stop  offset="0.1666" style="stop-color:#86AFC3"/>
	<stop  offset="0.3134" style="stop-color:#A880B8"/>
	<stop  offset="0.4582" style="stop-color:#C359AF"/>
	<stop  offset="0.6007" style="stop-color:#D93BA8"/>
	<stop  offset="0.7399" style="stop-color:#E825A3"/>
	<stop  offset="0.8747" style="stop-color:#F118A0"/>
	<stop  offset="1" style="stop-color:#F4149F"/>
</linearGradient>
<path class="st18" d="M32,200v-16h16v-16H32v-16H16v16H0v16h16v16H32z"/>
<linearGradient id="SVGID_20_" gradientUnits="userSpaceOnUse" x1="472" y1="320" x2="440" y2="288">
	<stop  offset="0" style="stop-color:#FFFFFF"/>
	<stop  offset="0" style="stop-color:#59EFD2"/>
	<stop  offset="2.086049e-02" style="stop-color:#5FE6D0"/>
	<stop  offset="0.1666" style="stop-color:#86AFC3"/>
	<stop  offset="0.3134" style="stop-color:#A880B8"/>
	<stop  offset="0.4582" style="stop-color:#C359AF"/>
	<stop  offset="0.6007" style="stop-color:#D93BA8"/>
	<stop  offset="0.7399" style="stop-color:#E825A3"/>
	<stop  offset="0.8747" style="stop-color:#F118A0"/>
	<stop  offset="1" style="stop-color:#F4149F"/>
</linearGradient>
<path class="st19" d="M464,280h-16v16h-16v16h16v16h16v-16h16v-16h-16V280z"/>
<linearGradient id="SVGID_21_" gradientUnits="userSpaceOnUse" x1="232" y1="408" x2="120" y2="296">
	<stop  offset="0" style="stop-color:#FFFFFF"/>
	<stop  offset="0" style="stop-color:#59EFD2"/>
	<stop  offset="2.086049e-02" style="stop-color:#5FE6D0"/>
	<stop  offset="0.1666" style="stop-color:#86AFC3"/>
	<stop  offset="0.3134" style="stop-color:#A880B8"/>
	<stop  offset="0.4582" style="stop-color:#C359AF"/>
	<stop  offset="0.6007" style="stop-color:#D93BA8"/>
	<stop  offset="0.7399" style="stop-color:#E825A3"/>
	<stop  offset="0.8747" style="stop-color:#F118A0"/>
	<stop  offset="1" style="stop-color:#F4149F"/>
</linearGradient>
<path class="st20" d="M96,384h160v-64H96V384z M112,336h128v32H112V336z"/>
<linearGradient id="SVGID_22_" gradientUnits="userSpaceOnUse" x1="342" y1="354" x2="290" y2="302">
	<stop  offset="0" style="stop-color:#FFFFFF"/>
	<stop  offset="0" style="stop-color:#59EFD2"/>
	<stop  offset="2.086049e-02" style="stop-color:#5FE6D0"/>
	<stop  offset="0.1666" style="stop-color:#86AFC3"/>
	<stop  offset="0.3134" style="stop-color:#A880B8"/>
	<stop  offset="0.4582" style="stop-color:#C359AF"/>
	<stop  offset="0.6007" style="stop-color:#D93BA8"/>
	<stop  offset="0.7399" style="stop-color:#E825A3"/>
	<stop  offset="0.8747" style="stop-color:#F118A0"/>
	<stop  offset="1" style="stop-color:#F4149F"/>
</linearGradient>
<path class="st21" d="M272,320h88v16h-88V320z"/>
<linearGradient id="SVGID_23_" gradientUnits="userSpaceOnUse" x1="360" y1="392" x2="296" y2="328">
	<stop  offset="0" style="stop-color:#FFFFFF"/>
	<stop  offset="0" style="stop-color:#59EFD2"/>
	<stop  offset="2.086049e-02" style="stop-color:#5FE6D0"/>
	<stop  offset="0.1666" style="stop-color:#86AFC3"/>
	<stop  offset="0.3134" style="stop-color:#A880B8"/>
	<stop  offset="0.4582" style="stop-color:#C359AF"/>
	<stop  offset="0.6007" style="stop-color:#D93BA8"/>
	<stop  offset="0.7399" style="stop-color:#E825A3"/>
	<stop  offset="0.8747" style="stop-color:#F118A0"/>
	<stop  offset="1" style="stop-color:#F4149F"/>
</linearGradient>
<path class="st22" d="M272,352h112v16H272V352z"/>
</svg>
