<?xml version="1.0" encoding="utf-8"?>
<!-- Generator: Adobe Illustrator 23.0.2, SVG Export Plug-In . SVG Version: 6.00 Build 0)  -->
<svg version="1.1" id="Layer_1" xmlns="http://www.w3.org/2000/svg" xmlns:xlink="http://www.w3.org/1999/xlink" x="0px" y="0px"
	 viewBox="0 0 512 512" style="enable-background:new 0 0 512 512;" xml:space="preserve">
<style type="text/css">
	.st0{fill:url(#SVGID_1_);}
	.st1{fill:url(#SVGID_2_);}
	.st2{fill:url(#SVGID_3_);}
	.st3{fill:url(#SVGID_4_);}
	.st4{fill:url(#SVGID_5_);}
</style>
<linearGradient id="SVGID_1_" gradientUnits="userSpaceOnUse" x1="4.882812e-04" y1="238.6138" x2="512.0015" y2="238.6138">
	<stop  offset="0" style="stop-color:#623895"/>
	<stop  offset="1" style="stop-color:#EC0C8C"/>
</linearGradient>
<path class="st0" d="M505.4,344.2l-76.9-77c18.6-24.5,30.2-53.9,33.2-84.6c3.6-37.8-5.8-76-26.5-107.5c-2.3-3.5-6.9-4.4-10.4-2.1
	c-3.5,2.3-4.4,6.9-2.1,10.4c39.2,59.7,31,139.7-19.6,190.3c-59.1,59.1-155.2,59.1-214.3,0c-59.1-59.1-59.1-155.2,0-214.3
	C247.9,0.2,344,0.2,403,59.3l0.4,0.4c2.9,2.9,7.7,3,10.6,0c2.9-2.9,3-7.7,0-10.6l-0.4-0.4c-64.9-64.9-170.6-64.9-235.5,0
	c-2,2-4,4.1-5.9,6.2H7.5c-4.1,0-7.5,3.4-7.5,7.5v33.2c0,4.1,3.4,7.5,7.5,7.5c4.1,0,7.5-3.4,7.5-7.5V69.9h145.2
	c-5.7,8.1-10.7,16.5-14.8,25.2H52c-4.1,0-7.5,3.4-7.5,7.5s3.4,7.5,7.5,7.5h87.2c-2.2,6-3.9,12.1-5.4,18.3H52c-4.1,0-7.5,3.4-7.5,7.5
	c0,4.1,3.4,7.5,7.5,7.5h79.1c-0.8,6.1-1.3,12.2-1.5,18.3H52c-4.1,0-7.5,3.4-7.5,7.5c0,4.1,3.4,7.5,7.5,7.5h77.8
	c1.4,21.8,6.9,43.4,16.8,63.3H134c-4.1,0-7.5,3.4-7.5,7.5v222c0,4.1,3.4,7.5,7.5,7.5h60c4.1,0,7.5-3.4,7.5-7.5V303.6
	c6.8,4.7,13.8,8.8,21,12.3v153.8c0,4.1,3.4,7.5,7.5,7.5h60c4.1,0,7.5-3.4,7.5-7.5V332.9c5.8-0.1,11.7-0.4,17.5-1.1v115.9
	c0,4.1,3.4,7.5,7.5,7.5c4.1,0,7.5-3.4,7.5-7.5V329.4c23.7-4.9,46.5-15,66.7-30.4l76.9,76.9c4.3,4.2,9.9,6.6,15.9,6.6
	c6,0,11.7-2.3,15.9-6.6C514.2,367.2,514.2,352.9,505.4,344.2z M186.5,462.2h-45v-207H155c6.5,10.3,14.2,20,23.2,29
	c2.7,2.7,5.5,5.3,8.3,7.8V462.2z M237.5,462.2V322.4c14.5,5.4,29.7,8.7,45,10v129.9H237.5z M494.8,365.4c-1.4,1.4-3.3,2.2-5.3,2.2
	s-3.9-0.8-5.3-2.2l-76-76c1.8-1.7,3.7-3.4,5.4-5.2c1.8-1.8,3.5-3.6,5.2-5.4l76,76C497.7,357.7,497.7,362.4,494.8,365.4z"/>
<linearGradient id="SVGID_2_" gradientUnits="userSpaceOnUse" x1="4.882812e-04" y1="316.3047" x2="330.0083" y2="316.3047">
	<stop  offset="0" style="stop-color:#623895"/>
	<stop  offset="1" style="stop-color:#EC0C8C"/>
</linearGradient>
<path class="st1" d="M322.5,472.5c-4.1,0-7.5,3.4-7.5,7.5v17H15V128.1c0-4.1-3.4-7.5-7.5-7.5c-4.1,0-7.5,3.4-7.5,7.5v376.4
	c0,4.1,3.4,7.5,7.5,7.5h315c4.1,0,7.5-3.4,7.5-7.5V480C330,475.9,326.7,472.5,322.5,472.5z"/>
<linearGradient id="SVGID_3_" gradientUnits="userSpaceOnUse" x1="32.5005" y1="388.709" x2="107.5044" y2="388.709">
	<stop  offset="0" style="stop-color:#623895"/>
	<stop  offset="1" style="stop-color:#EC0C8C"/>
</linearGradient>
<path class="st2" d="M32.5,307.7v162c0,4.1,3.4,7.5,7.5,7.5h60c4.1,0,7.5-3.4,7.5-7.5v-162c0-4.1-3.4-7.5-7.5-7.5H40
	C35.9,300.2,32.5,303.6,32.5,307.7z M47.5,315.2h45v147h-45V315.2z"/>
<linearGradient id="SVGID_4_" gradientUnits="userSpaceOnUse" x1="44.5005" y1="202.6816" x2="115.5825" y2="202.6816">
	<stop  offset="0" style="stop-color:#623895"/>
	<stop  offset="1" style="stop-color:#EC0C8C"/>
</linearGradient>
<path class="st3" d="M108.1,210.2c4.1,0,7.5-3.4,7.5-7.5c0-4.1-3.4-7.5-7.5-7.5H52c-4.1,0-7.5,3.4-7.5,7.5c0,4.1,3.4,7.5,7.5,7.5
	H108.1z"/>
<linearGradient id="SVGID_5_" gradientUnits="userSpaceOnUse" x1="159.4771" y1="166.4492" x2="432.3638" y2="166.4492">
	<stop  offset="0" style="stop-color:#623895"/>
	<stop  offset="1" style="stop-color:#EC0C8C"/>
</linearGradient>
<path class="st4" d="M295.9,30c-36.5,0-70.8,14.2-96.5,39.9s-39.9,60-39.9,96.5s14.2,70.8,39.9,96.5c25.7,25.7,60,39.9,96.5,39.9
	s70.8-14.2,96.5-39.9c25.7-25.7,39.9-60,39.9-96.5s-14.2-70.8-39.9-96.5C366.7,44.2,332.4,30,295.9,30z M381.8,252.4
	c-22.9,22.9-53.4,35.5-85.9,35.5c-32.5,0-63-12.6-85.9-35.5c-22.9-22.9-35.5-53.4-35.5-85.9c0-32.5,12.6-63,35.5-85.9
	C233.7,56.8,264.8,45,295.9,45s62.2,11.8,85.9,35.5c22.9,22.9,35.5,53.4,35.5,85.9C417.4,198.9,404.7,229.5,381.8,252.4z"/>
</svg>
