<?xml version="1.0" encoding="utf-8"?>
<!-- Generator: Adobe Illustrator 23.0.2, SVG Export Plug-In . SVG Version: 6.00 Build 0)  -->
<svg version="1.1" id="Capa_1" xmlns="http://www.w3.org/2000/svg" xmlns:xlink="http://www.w3.org/1999/xlink" x="0px" y="0px"
	 viewBox="0 0 480 480" style="enable-background:new 0 0 480 480;" xml:space="preserve">
<style type="text/css">
	.st0{fill:url(#SVGID_1_);}
	.st1{fill:url(#SVGID_2_);}
	.st2{fill:url(#SVGID_3_);}
	.st3{fill:url(#SVGID_4_);}
	.st4{fill:url(#SVGID_5_);}
	.st5{fill:url(#SVGID_6_);}
	.st6{fill:url(#SVGID_7_);}
	.st7{fill:url(#SVGID_8_);}
	.st8{fill:url(#SVGID_9_);}
	.st9{fill:url(#SVGID_10_);}
	.st10{fill:url(#SVGID_11_);}
	.st11{fill:url(#SVGID_12_);}
	.st12{fill:url(#SVGID_13_);}
	.st13{fill:url(#SVGID_14_);}
	.st14{fill:url(#SVGID_15_);}
	.st15{fill:url(#SVGID_16_);}
	.st16{fill:url(#SVGID_17_);}
	.st17{fill:url(#SVGID_18_);}
	.st18{fill:url(#SVGID_19_);}
	.st19{fill:url(#SVGID_20_);}
	.st20{fill:url(#SVGID_21_);}
	.st21{fill:url(#SVGID_22_);}
	.st22{fill:url(#SVGID_23_);}
	.st23{fill:url(#SVGID_24_);}
	.st24{fill:url(#SVGID_25_);}
	.st25{fill:url(#SVGID_26_);}
	.st26{fill:url(#SVGID_27_);}
	.st27{fill:url(#SVGID_28_);}
	.st28{fill:url(#SVGID_29_);}
	.st29{fill:url(#SVGID_30_);}
	.st30{fill:url(#SVGID_31_);}
	.st31{fill:url(#SVGID_32_);}
	.st32{fill:url(#SVGID_33_);}
</style>
<g>
	<g>
		
			<linearGradient id="SVGID_1_" gradientUnits="userSpaceOnUse" x1="0" y1="104" x2="144" y2="104" gradientTransform="matrix(1 0 0 -1 0 480)">
			<stop  offset="0" style="stop-color:#623895"/>
			<stop  offset="1" style="stop-color:#EC0C8C"/>
		</linearGradient>
		<path class="st0" d="M125.1,383.1c-5.5-3.6-11.7-5.9-18.2-6.7c12.5-9.8,20.2-24.5,21.1-40.4c0-52.9-30.5-64-56-64s-56,11.1-56,64
			c0.9,15.9,8.6,30.6,21.1,40.4C15.9,379,0,397,0,418.4V472c0,4.4,3.6,8,8,8h128c4.4,0,8-3.6,8-8v-53.6
			C144,404.2,136.9,391,125.1,383.1z M32.4,327.5C34.6,300.7,47.2,288,72,288c22.7,0,35.2,10.7,38.8,33.1l-26.7-16
			c-3.8-2.3-8.7-1-11,2.7c-0.3,0.5-0.5,1-0.7,1.6C68.4,321.6,46.5,326.2,32.4,327.5z M33.1,343.6c13.7-1.1,38.4-5.3,49.9-20.4
			l28.6,17.2C108.4,359.9,84.3,376,72,376C54.2,373,39.3,360.6,33.1,343.6z M78.6,422.1l-6.6,6.6l-6.6-6.6l6.6-16.5L78.6,422.1z
			 M128,464H16v-45.6c0-14.6,11.8-26.4,26.4-26.4h17.8l-11.6,29c-1.2,3-0.5,6.4,1.8,8.6l16,16c3.1,3.1,8.2,3.1,11.3,0l16-16
			c2.3-2.3,3-5.7,1.8-8.6l-11.6-29h17.8c14.6,0,26.4,11.8,26.4,26.4L128,464L128,464z"/>
	</g>
</g>
<g>
	<g>
		
			<linearGradient id="SVGID_2_" gradientUnits="userSpaceOnUse" x1="168" y1="104" x2="312" y2="104" gradientTransform="matrix(1 0 0 -1 0 480)">
			<stop  offset="0" style="stop-color:#623895"/>
			<stop  offset="1" style="stop-color:#EC0C8C"/>
		</linearGradient>
		<path class="st1" d="M293.1,383.1c-5.5-3.6-11.7-5.9-18.2-6.7c12.5-9.8,20.2-24.5,21.1-40.4c0-52.9-30.5-64-56-64s-56,11.1-56,64
			c0.9,15.9,8.6,30.6,21.1,40.4c-21.2,2.6-37.1,20.6-37.1,42V472c0,4.4,3.6,8,8,8h128c4.4,0,8-3.6,8-8v-53.6
			C312,404.2,304.9,391,293.1,383.1z M200.4,327.5c2.2-26.8,14.8-39.5,39.6-39.5c22.7,0,35.2,10.7,38.8,33.1l-26.7-16
			c-3.8-2.3-8.7-1-11,2.7c-0.3,0.5-0.5,1-0.7,1.6C236.4,321.6,214.5,326.2,200.4,327.5z M201.1,343.6c13.7-1.1,38.4-5.3,49.9-20.4
			l28.6,17.2c-3.2,19.6-27.3,35.7-39.6,35.7C222.2,373,207.3,360.6,201.1,343.6z M246.6,422.1l-6.6,6.6l-6.6-6.6l6.6-16.5
			L246.6,422.1z M296,464H184v-45.6c0-14.6,11.8-26.4,26.4-26.4h17.8l-11.6,29c-1.2,3-0.5,6.4,1.8,8.6l16,16c3.1,3.1,8.2,3.1,11.3,0
			l16-16c2.3-2.3,3-5.7,1.8-8.6l-11.6-29h17.8c14.6,0,26.4,11.8,26.4,26.4L296,464L296,464z"/>
	</g>
</g>
<g>
	<g>
		
			<linearGradient id="SVGID_3_" gradientUnits="userSpaceOnUse" x1="336" y1="104" x2="480" y2="104" gradientTransform="matrix(1 0 0 -1 0 480)">
			<stop  offset="0" style="stop-color:#623895"/>
			<stop  offset="1" style="stop-color:#EC0C8C"/>
		</linearGradient>
		<path class="st2" d="M461.1,383.1c-5.5-3.6-11.7-5.9-18.2-6.7c12.5-9.8,20.2-24.5,21.1-40.4c0-52.9-30.5-64-56-64s-56,11.1-56,64
			c0.9,15.9,8.6,30.6,21.1,40.4c-21.2,2.6-37.1,20.6-37.1,42V472c0,4.4,3.6,8,8,8h128c4.4,0,8-3.6,8-8v-53.6
			C480,404.2,472.9,391,461.1,383.1z M368.4,327.5c2.2-26.8,14.8-39.5,39.6-39.5c22.7,0,35.2,10.7,38.8,33.1l-26.7-16
			c-3.8-2.3-8.7-1-11,2.7c-0.3,0.5-0.5,1-0.7,1.6C404.4,321.6,382.5,326.2,368.4,327.5z M369.1,343.6c13.7-1.1,38.4-5.3,49.9-20.4
			l28.6,17.2c-3.2,19.6-27.3,35.7-39.6,35.7C390.2,373,375.3,360.6,369.1,343.6z M414.6,422.1l-6.6,6.6l-6.6-6.6l6.6-16.5
			L414.6,422.1z M464,464H352v-45.6c0-14.6,11.8-26.4,26.4-26.4h17.8l-11.6,29c-1.2,3-0.5,6.4,1.8,8.6l16,16c3.1,3.1,8.2,3.1,11.3,0
			l16-16c2.3-2.3,3-5.7,1.8-8.6l-11.6-29h17.8c14.6,0,26.4,11.8,26.4,26.4L464,464L464,464z"/>
	</g>
</g>
<g>
	<g>
		
			<linearGradient id="SVGID_4_" gradientUnits="userSpaceOnUse" x1="111.9957" y1="319.9642" x2="376" y2="319.9642" gradientTransform="matrix(1 0 0 -1 0 480)">
			<stop  offset="0" style="stop-color:#623895"/>
			<stop  offset="1" style="stop-color:#EC0C8C"/>
		</linearGradient>
		<path class="st3" d="M368,240V136c0-4.4-3.6-8-8-8h-72v-24c0-4.4-3.6-8-8-8h-48.6c-11.7-20.4-33.8-32.7-57.4-32
			c-35.1,2-62.4,31.2-62,66.4c0,20.9,5.9,41.3,17.2,59l32.3,50.7H152v16h224v-16L368,240L368,240z M200,240h-9.4l9.4-14.8V240z
			 M176,233.1l-33.3-52.4c-9.6-15-14.7-32.5-14.7-50.4c-0.5-26.5,20-48.7,46.5-50.4h1.5c26.5,0,48,21.5,48,48v2.4
			c0,17.9-5.1,35.3-14.7,50.4L176,233.1z M272,240h-56v-40l6.8-10.7c11.2-17.6,17.2-38.1,17.2-59V128c0-5.4-0.7-10.8-2.1-16H272V240
			z M328,240h-16v-24h16V240z M352,152h-16v16h16v8h-16v16h16v48h-8v-32c0-4.4-3.6-8-8-8h-32c-4.4,0-8,3.6-8,8v32h-8v-48h16v-16h-16
			v-8h16v-16h-16v-8h64V152z"/>
	</g>
</g>
<g>
	<g>
		
			<linearGradient id="SVGID_5_" gradientUnits="userSpaceOnUse" x1="248" y1="352" x2="264" y2="352" gradientTransform="matrix(1 0 0 -1 0 480)">
			<stop  offset="0" style="stop-color:#623895"/>
			<stop  offset="1" style="stop-color:#EC0C8C"/>
		</linearGradient>
		<rect x="248" y="120" class="st4" width="16" height="16"/>
	</g>
</g>
<g>
	<g>
		
			<linearGradient id="SVGID_6_" gradientUnits="userSpaceOnUse" x1="312" y1="320" x2="328" y2="320" gradientTransform="matrix(1 0 0 -1 0 480)">
			<stop  offset="0" style="stop-color:#623895"/>
			<stop  offset="1" style="stop-color:#EC0C8C"/>
		</linearGradient>
		<rect x="312" y="152" class="st5" width="16" height="16"/>
	</g>
</g>
<g>
	<g>
		
			<linearGradient id="SVGID_7_" gradientUnits="userSpaceOnUse" x1="312" y1="296" x2="328" y2="296" gradientTransform="matrix(1 0 0 -1 0 480)">
			<stop  offset="0" style="stop-color:#623895"/>
			<stop  offset="1" style="stop-color:#EC0C8C"/>
		</linearGradient>
		<rect x="312" y="176" class="st6" width="16" height="16"/>
	</g>
</g>
<g>
	<g>
		
			<linearGradient id="SVGID_8_" gradientUnits="userSpaceOnUse" x1="248" y1="328" x2="264" y2="328" gradientTransform="matrix(1 0 0 -1 0 480)">
			<stop  offset="0" style="stop-color:#623895"/>
			<stop  offset="1" style="stop-color:#EC0C8C"/>
		</linearGradient>
		<rect x="248" y="144" class="st7" width="16" height="16"/>
	</g>
</g>
<g>
	<g>
		
			<linearGradient id="SVGID_9_" gradientUnits="userSpaceOnUse" x1="248" y1="304" x2="264" y2="304" gradientTransform="matrix(1 0 0 -1 0 480)">
			<stop  offset="0" style="stop-color:#623895"/>
			<stop  offset="1" style="stop-color:#EC0C8C"/>
		</linearGradient>
		<rect x="248" y="168" class="st8" width="16" height="16"/>
	</g>
</g>
<g>
	<g>
		
			<linearGradient id="SVGID_10_" gradientUnits="userSpaceOnUse" x1="224" y1="280" x2="240" y2="280" gradientTransform="matrix(1 0 0 -1 0 480)">
			<stop  offset="0" style="stop-color:#623895"/>
			<stop  offset="1" style="stop-color:#EC0C8C"/>
		</linearGradient>
		<rect x="224" y="192" class="st9" width="16" height="16"/>
	</g>
</g>
<g>
	<g>
		
			<linearGradient id="SVGID_11_" gradientUnits="userSpaceOnUse" x1="248" y1="280" x2="264" y2="280" gradientTransform="matrix(1 0 0 -1 0 480)">
			<stop  offset="0" style="stop-color:#623895"/>
			<stop  offset="1" style="stop-color:#EC0C8C"/>
		</linearGradient>
		<rect x="248" y="192" class="st10" width="16" height="16"/>
	</g>
</g>
<g>
	<g>
		
			<linearGradient id="SVGID_12_" gradientUnits="userSpaceOnUse" x1="224" y1="256" x2="240" y2="256" gradientTransform="matrix(1 0 0 -1 0 480)">
			<stop  offset="0" style="stop-color:#623895"/>
			<stop  offset="1" style="stop-color:#EC0C8C"/>
		</linearGradient>
		<rect x="224" y="216" class="st11" width="16" height="16"/>
	</g>
</g>
<g>
	<g>
		
			<linearGradient id="SVGID_13_" gradientUnits="userSpaceOnUse" x1="248" y1="256" x2="264" y2="256" gradientTransform="matrix(1 0 0 -1 0 480)">
			<stop  offset="0" style="stop-color:#623895"/>
			<stop  offset="1" style="stop-color:#EC0C8C"/>
		</linearGradient>
		<rect x="248" y="216" class="st12" width="16" height="16"/>
	</g>
</g>
<g>
	<g>
		
			<linearGradient id="SVGID_14_" gradientUnits="userSpaceOnUse" x1="428.256" y1="304.05" x2="446.52" y2="304.05" gradientTransform="matrix(1 0 0 -1 0 480)">
			<stop  offset="0" style="stop-color:#623895"/>
			<stop  offset="1" style="stop-color:#EC0C8C"/>
		</linearGradient>
		<path class="st13" d="M443.9,166.9l-15.7,3.2c1,4.9,1.8,9.9,2.4,14.9l15.9-1.9C445.9,177.7,445,172.2,443.9,166.9z"/>
	</g>
</g>
<g>
	<g>
		
			<linearGradient id="SVGID_15_" gradientUnits="userSpaceOnUse" x1="33.44" y1="303.7" x2="51.68" y2="303.7" gradientTransform="matrix(1 0 0 -1 0 480)">
			<stop  offset="0" style="stop-color:#623895"/>
			<stop  offset="1" style="stop-color:#EC0C8C"/>
		</linearGradient>
		<path class="st14" d="M36,167.3c-1.1,5.3-1.9,10.8-2.6,16.1l15.9,1.9c0.6-4.9,1.4-9.9,2.4-14.9L36,167.3z"/>
	</g>
</g>
<g>
	<g>
		
			<linearGradient id="SVGID_16_" gradientUnits="userSpaceOnUse" x1="407.376" y1="363.35" x2="428.776" y2="363.35" gradientTransform="matrix(1 0 0 -1 0 480)">
			<stop  offset="0" style="stop-color:#623895"/>
			<stop  offset="1" style="stop-color:#EC0C8C"/>
		</linearGradient>
		<path class="st15" d="M421.3,106l-13.9,7.9c2.5,4.3,4.8,8.8,6.9,13.4l14.5-6.8C426.5,115.6,424,110.7,421.3,106z"/>
	</g>
</g>
<g>
	<g>
		
			<linearGradient id="SVGID_17_" gradientUnits="userSpaceOnUse" x1="390.576" y1="390.05" x2="412.736" y2="390.05" gradientTransform="matrix(1 0 0 -1 0 480)">
			<stop  offset="0" style="stop-color:#623895"/>
			<stop  offset="1" style="stop-color:#EC0C8C"/>
		</linearGradient>
		<path class="st16" d="M403.1,78.9l-12.6,9.9c3.1,3.9,6.1,8,8.9,12.2l13.3-8.9C409.7,87.6,406.5,83.2,403.1,78.9z"/>
	</g>
</g>
<g>
	<g>
		
			<linearGradient id="SVGID_18_" gradientUnits="userSpaceOnUse" x1="67.1" y1="389.75" x2="89.26" y2="389.75" gradientTransform="matrix(1 0 0 -1 0 480)">
			<stop  offset="0" style="stop-color:#623895"/>
			<stop  offset="1" style="stop-color:#EC0C8C"/>
		</linearGradient>
		<path class="st17" d="M76.7,79.2c-3.4,4.2-6.6,8.7-9.6,13.2l13.3,8.9c2.8-4.2,5.8-8.2,8.9-12.2L76.7,79.2z"/>
	</g>
</g>
<g>
	<g>
		
			<linearGradient id="SVGID_19_" gradientUnits="userSpaceOnUse" x1="370.112" y1="413.8" x2="392.512" y2="413.8" gradientTransform="matrix(1 0 0 -1 0 480)">
			<stop  offset="0" style="stop-color:#623895"/>
			<stop  offset="1" style="stop-color:#EC0C8C"/>
		</linearGradient>
		<path class="st18" d="M381,55l-10.8,11.8c3.7,3.4,7.3,7,10.7,10.6l11.7-10.9C388.9,62.6,385,58.8,381,55z"/>
	</g>
</g>
<g>
	<g>
		
			<linearGradient id="SVGID_20_" gradientUnits="userSpaceOnUse" x1="51.1" y1="363.1" x2="72.468" y2="363.1" gradientTransform="matrix(1 0 0 -1 0 480)">
			<stop  offset="0" style="stop-color:#623895"/>
			<stop  offset="1" style="stop-color:#EC0C8C"/>
		</linearGradient>
		<path class="st19" d="M58.5,106.3c-2.6,4.7-5.1,9.6-7.4,14.5l14.5,6.7c2.1-4.6,4.4-9.1,6.9-13.4L58.5,106.3z"/>
	</g>
</g>
<g>
	<g>
		
			<linearGradient id="SVGID_21_" gradientUnits="userSpaceOnUse" x1="39.8" y1="334.2" x2="59.864" y2="334.2" gradientTransform="matrix(1 0 0 -1 0 480)">
			<stop  offset="0" style="stop-color:#623895"/>
			<stop  offset="1" style="stop-color:#EC0C8C"/>
		</linearGradient>
		<path class="st20" d="M44.8,135.9c-1.9,5.1-3.6,10.3-5,15.5l15.4,4.3c1.4-4.8,2.9-9.6,4.7-14.3L44.8,135.9z"/>
	</g>
</g>
<g>
	<g>
		
			<linearGradient id="SVGID_22_" gradientUnits="userSpaceOnUse" x1="87.3" y1="413.6" x2="109.692" y2="413.6" gradientTransform="matrix(1 0 0 -1 0 480)">
			<stop  offset="0" style="stop-color:#623895"/>
			<stop  offset="1" style="stop-color:#EC0C8C"/>
		</linearGradient>
		<path class="st21" d="M98.8,55.2c-4,3.7-7.9,7.6-11.5,11.5L99,77.6c3.4-3.7,7-7.2,10.6-10.6L98.8,55.2z"/>
	</g>
</g>
<g>
	<g>
		
			<linearGradient id="SVGID_23_" gradientUnits="userSpaceOnUse" x1="420.048" y1="334.45" x2="440.148" y2="334.45" gradientTransform="matrix(1 0 0 -1 0 480)">
			<stop  offset="0" style="stop-color:#623895"/>
			<stop  offset="1" style="stop-color:#EC0C8C"/>
		</linearGradient>
		<path class="st22" d="M435,135.6l-15,5.6c1.8,4.7,3.3,9.5,4.7,14.3l15.4-4.4C438.6,145.9,436.9,140.7,435,135.6z"/>
	</g>
</g>
<g>
	<g>
		
			<linearGradient id="SVGID_24_" gradientUnits="userSpaceOnUse" x1="167.9" y1="462.2" x2="187.764" y2="462.2" gradientTransform="matrix(1 0 0 -1 0 480)">
			<stop  offset="0" style="stop-color:#623895"/>
			<stop  offset="1" style="stop-color:#EC0C8C"/>
		</linearGradient>
		<path class="st23" d="M183.4,7.8c-5.2,1.5-10.5,3.2-15.5,5l5.5,15c4.6-1.7,9.5-3.3,14.3-4.7L183.4,7.8z"/>
	</g>
</g>
<g>
	<g>
		
			<linearGradient id="SVGID_25_" gradientUnits="userSpaceOnUse" x1="199.3" y1="469.5" x2="217.3" y2="469.5" gradientTransform="matrix(1 0 0 -1 0 480)">
			<stop  offset="0" style="stop-color:#623895"/>
			<stop  offset="1" style="stop-color:#EC0C8C"/>
		</linearGradient>
		<path class="st24" d="M215.4,1.4c-5.3,0.6-10.8,1.5-16.1,2.5l3.1,15.7c4.9-1,10-1.8,14.9-2.4L215.4,1.4z"/>
	</g>
</g>
<g>
	<g>
		
			<linearGradient id="SVGID_26_" gradientUnits="userSpaceOnUse" x1="231.68" y1="471.8947" x2="248" y2="471.8947" gradientTransform="matrix(1 0 0 -1 0 480)">
			<stop  offset="0" style="stop-color:#623895"/>
			<stop  offset="1" style="stop-color:#EC0C8C"/>
		</linearGradient>
		<path class="st25" d="M231.7,0.2l0.6,16c5-0.2,10.1-0.2,15.1,0l0.6-16C242.6-0.1,237.1,0,231.7,0.2z"/>
	</g>
</g>
<g>
	<g>
		
			<linearGradient id="SVGID_27_" gradientUnits="userSpaceOnUse" x1="138.3" y1="450.2" x2="159.548" y2="450.2" gradientTransform="matrix(1 0 0 -1 0 480)">
			<stop  offset="0" style="stop-color:#623895"/>
			<stop  offset="1" style="stop-color:#EC0C8C"/>
		</linearGradient>
		<path class="st26" d="M152.8,19.1c-4.9,2.3-9.8,4.8-14.5,7.4l7.8,14c4.4-2.5,8.9-4.8,13.4-6.9L152.8,19.1z"/>
	</g>
</g>
<g>
	<g>
		
			<linearGradient id="SVGID_28_" gradientUnits="userSpaceOnUse" x1="262.4" y1="469.5" x2="280.352" y2="469.5" gradientTransform="matrix(1 0 0 -1 0 480)">
			<stop  offset="0" style="stop-color:#623895"/>
			<stop  offset="1" style="stop-color:#EC0C8C"/>
		</linearGradient>
		<path class="st27" d="M264.2,1.4l-1.8,15.9c4.9,0.6,9.9,1.4,14.9,2.3l3.1-15.7C275,2.9,269.6,2,264.2,1.4z"/>
	</g>
</g>
<g>
	<g>
		
			<linearGradient id="SVGID_29_" gradientUnits="userSpaceOnUse" x1="346.448" y1="434.05" x2="368.548" y2="434.05" gradientTransform="matrix(1 0 0 -1 0 480)">
			<stop  offset="0" style="stop-color:#623895"/>
			<stop  offset="1" style="stop-color:#EC0C8C"/>
		</linearGradient>
		<path class="st28" d="M355.3,34.9l-8.9,13.3c4.1,2.8,8.2,5.7,12.2,8.8l9.9-12.6C364.2,41.1,359.8,37.8,355.3,34.9z"/>
	</g>
</g>
<g>
	<g>
		
			<linearGradient id="SVGID_30_" gradientUnits="userSpaceOnUse" x1="291.928" y1="462.3" x2="311.76" y2="462.3" gradientTransform="matrix(1 0 0 -1 0 480)">
			<stop  offset="0" style="stop-color:#623895"/>
			<stop  offset="1" style="stop-color:#EC0C8C"/>
		</linearGradient>
		<path class="st29" d="M296.2,7.7l-4.3,15.4c4.8,1.3,9.6,2.9,14.3,4.6l5.5-15C306.7,10.8,301.4,9.1,296.2,7.7z"/>
	</g>
</g>
<g>
	<g>
		
			<linearGradient id="SVGID_31_" gradientUnits="userSpaceOnUse" x1="111.232" y1="433.8" x2="133.332" y2="433.8" gradientTransform="matrix(1 0 0 -1 0 480)">
			<stop  offset="0" style="stop-color:#623895"/>
			<stop  offset="1" style="stop-color:#EC0C8C"/>
		</linearGradient>
		<path class="st30" d="M124.4,35.1c-4.5,3-9,6.3-13.2,9.6l9.9,12.6c3.9-3.1,8-6.1,12.2-8.9L124.4,35.1z"/>
	</g>
</g>
<g>
	<g>
		
			<linearGradient id="SVGID_32_" gradientUnits="userSpaceOnUse" x1="320.16" y1="450.45" x2="341.4" y2="450.45" gradientTransform="matrix(1 0 0 -1 0 480)">
			<stop  offset="0" style="stop-color:#623895"/>
			<stop  offset="1" style="stop-color:#EC0C8C"/>
		</linearGradient>
		<path class="st31" d="M326.8,18.9l-6.7,14.5c4.5,2.1,9,4.4,13.4,6.8l7.8-14C336.6,23.7,331.8,21.2,326.8,18.9z"/>
	</g>
</g>
<g>
	<g>
		
			<linearGradient id="SVGID_33_" gradientUnits="userSpaceOnUse" x1="144" y1="352" x2="208" y2="352" gradientTransform="matrix(1 0 0 -1 0 480)">
			<stop  offset="0" style="stop-color:#623895"/>
			<stop  offset="1" style="stop-color:#EC0C8C"/>
		</linearGradient>
		<path class="st32" d="M176,96c-17.7,0-32,14.3-32,32s14.3,32,32,32s32-14.3,32-32S193.7,96,176,96z M176,144c-8.8,0-16-7.2-16-16
			s7.2-16,16-16s16,7.2,16,16S184.8,144,176,144z"/>
	</g>
</g>
</svg>
