<?xml version="1.0" encoding="utf-8"?>
<!-- Generator: Adobe Illustrator 23.0.2, SVG Export Plug-In . SVG Version: 6.00 Build 0)  -->
<svg version="1.1" id="Capa_1" xmlns="http://www.w3.org/2000/svg" xmlns:xlink="http://www.w3.org/1999/xlink" x="0px" y="0px"
	 viewBox="0 0 480 480" style="enable-background:new 0 0 480 480;" xml:space="preserve">
<style type="text/css">
	.st0{fill:url(#SVGID_1_);}
	.st1{fill:url(#SVGID_2_);}
	.st2{fill:url(#SVGID_3_);}
	.st3{fill:url(#SVGID_4_);}
	.st4{fill:url(#SVGID_5_);}
	.st5{fill:url(#SVGID_6_);}
	.st6{fill:url(#SVGID_7_);}
	.st7{fill:url(#SVGID_8_);}
	.st8{fill:url(#SVGID_9_);}
	.st9{fill:url(#SVGID_10_);}
	.st10{fill:url(#SVGID_11_);}
	.st11{fill:url(#SVGID_12_);}
	.st12{fill:url(#SVGID_13_);}
	.st13{fill:url(#SVGID_14_);}
	.st14{fill:url(#SVGID_15_);}
	.st15{fill:url(#SVGID_16_);}
	.st16{fill:url(#SVGID_17_);}
	.st17{fill:url(#SVGID_18_);}
	.st18{fill:url(#SVGID_19_);}
	.st19{fill:url(#SVGID_20_);}
	.st20{fill:url(#SVGID_21_);}
	.st21{fill:url(#SVGID_22_);}
	.st22{fill:url(#SVGID_23_);}
	.st23{fill:url(#SVGID_24_);}
	.st24{fill:url(#SVGID_25_);}
	.st25{fill:url(#SVGID_26_);}
	.st26{fill:url(#SVGID_27_);}
</style>
<g>
	<g>
		<linearGradient id="SVGID_1_" gradientUnits="userSpaceOnUse" x1="-1.509315e-04" y1="240.004" x2="480.008" y2="240.004">
			<stop  offset="0" style="stop-color:#623895"/>
			<stop  offset="1" style="stop-color:#EC0C8C"/>
		</linearGradient>
		<path class="st0" d="M477,465.8l-40-32c-1.4-1.1-3.2-1.8-5-1.8h-76.2l-26.7-32H440c22.1,0,40-17.9,40-40V40c0-22.1-17.9-40-40-40
			H40C17.9,0,0,17.9,0,40v320c0,22.1,17.9,40,40,40h110.9l-26.7,32H48c-1.8,0-3.6,0.6-5,1.8l-40,32c-3.5,2.8-4,7.8-1.3,11.2
			c1.5,1.9,3.8,3,6.3,3h464c4.4,0,8-3.6,8-8C480,469.6,478.9,467.3,477,465.8z M40,384c-13.3,0-24-10.7-24-24V40
			c0-13.3,10.7-24,24-24h400c13.3,0,24,10.7,24,24v320c0,13.3-10.7,24-24,24H40z M171.8,400h136.5l26.7,32H145.1L171.8,400z
			 M30.8,464l20-16h378.4l20,16H30.8z"/>
	</g>
</g>
<g>
	<g>
		<linearGradient id="SVGID_2_" gradientUnits="userSpaceOnUse" x1="32.004" y1="184.004" x2="448.004" y2="184.004">
			<stop  offset="0" style="stop-color:#623895"/>
			<stop  offset="1" style="stop-color:#EC0C8C"/>
		</linearGradient>
		<path class="st1" d="M440,32H40c-4.4,0-8,3.6-8,8v288c0,4.4,3.6,8,8,8h400c4.4,0,8-3.6,8-8V40C448,35.6,444.4,32,440,32z M432,320
			H48V48h384V320z"/>
	</g>
</g>
<g>
	<g>
		<linearGradient id="SVGID_3_" gradientUnits="userSpaceOnUse" x1="200.004" y1="360.004" x2="280.004" y2="360.004">
			<stop  offset="0" style="stop-color:#623895"/>
			<stop  offset="1" style="stop-color:#EC0C8C"/>
		</linearGradient>
		<rect x="200" y="352" class="st2" width="80" height="16"/>
	</g>
</g>
<g>
	<g>
		<linearGradient id="SVGID_4_" gradientUnits="userSpaceOnUse" x1="64.004" y1="160.004" x2="248.004" y2="160.004">
			<stop  offset="0" style="stop-color:#623895"/>
			<stop  offset="1" style="stop-color:#EC0C8C"/>
		</linearGradient>
		<path class="st3" d="M240,224V120c0-4.4-3.6-8-8-8h-72V88c0-4.4-3.6-8-8-8H80c-4.4,0-8,3.6-8,8v136h-8v16h88h96v-16H240z M144,224
			H88V96h56V224z M200,224h-16v-24h16V224z M224,136h-16v16h16v8h-16v16h16v48h-8v-32c0-4.4-3.6-8-8-8h-32c-4.4,0-8,3.6-8,8v32h-8
			v-48h16v-16h-16v-8h16v-16h-16v-8h64V136z"/>
	</g>
</g>
<g>
	<g>
		<linearGradient id="SVGID_5_" gradientUnits="userSpaceOnUse" x1="96.004" y1="112.004" x2="112.004" y2="112.004">
			<stop  offset="0" style="stop-color:#623895"/>
			<stop  offset="1" style="stop-color:#EC0C8C"/>
		</linearGradient>
		<rect x="96" y="104" class="st4" width="16" height="16"/>
	</g>
</g>
<g>
	<g>
		<linearGradient id="SVGID_6_" gradientUnits="userSpaceOnUse" x1="120.004" y1="112.004" x2="136.004" y2="112.004">
			<stop  offset="0" style="stop-color:#623895"/>
			<stop  offset="1" style="stop-color:#EC0C8C"/>
		</linearGradient>
		<rect x="120" y="104" class="st5" width="16" height="16"/>
	</g>
</g>
<g>
	<g>
		<linearGradient id="SVGID_7_" gradientUnits="userSpaceOnUse" x1="184.004" y1="144.004" x2="200.004" y2="144.004">
			<stop  offset="0" style="stop-color:#623895"/>
			<stop  offset="1" style="stop-color:#EC0C8C"/>
		</linearGradient>
		<rect x="184" y="136" class="st6" width="16" height="16"/>
	</g>
</g>
<g>
	<g>
		<linearGradient id="SVGID_8_" gradientUnits="userSpaceOnUse" x1="184.004" y1="168.004" x2="200.004" y2="168.004">
			<stop  offset="0" style="stop-color:#623895"/>
			<stop  offset="1" style="stop-color:#EC0C8C"/>
		</linearGradient>
		<rect x="184" y="160" class="st7" width="16" height="16"/>
	</g>
</g>
<g>
	<g>
		<linearGradient id="SVGID_9_" gradientUnits="userSpaceOnUse" x1="96.004" y1="136.004" x2="112.004" y2="136.004">
			<stop  offset="0" style="stop-color:#623895"/>
			<stop  offset="1" style="stop-color:#EC0C8C"/>
		</linearGradient>
		<rect x="96" y="128" class="st8" width="16" height="16"/>
	</g>
</g>
<g>
	<g>
		<linearGradient id="SVGID_10_" gradientUnits="userSpaceOnUse" x1="120.004" y1="136.004" x2="136.004" y2="136.004">
			<stop  offset="0" style="stop-color:#623895"/>
			<stop  offset="1" style="stop-color:#EC0C8C"/>
		</linearGradient>
		<rect x="120" y="128" class="st9" width="16" height="16"/>
	</g>
</g>
<g>
	<g>
		<linearGradient id="SVGID_11_" gradientUnits="userSpaceOnUse" x1="96.004" y1="160.004" x2="112.004" y2="160.004">
			<stop  offset="0" style="stop-color:#623895"/>
			<stop  offset="1" style="stop-color:#EC0C8C"/>
		</linearGradient>
		<rect x="96" y="152" class="st10" width="16" height="16"/>
	</g>
</g>
<g>
	<g>
		<linearGradient id="SVGID_12_" gradientUnits="userSpaceOnUse" x1="120.004" y1="160.004" x2="136.004" y2="160.004">
			<stop  offset="0" style="stop-color:#623895"/>
			<stop  offset="1" style="stop-color:#EC0C8C"/>
		</linearGradient>
		<rect x="120" y="152" class="st11" width="16" height="16"/>
	</g>
</g>
<g>
	<g>
		<linearGradient id="SVGID_13_" gradientUnits="userSpaceOnUse" x1="96.004" y1="184.004" x2="112.004" y2="184.004">
			<stop  offset="0" style="stop-color:#623895"/>
			<stop  offset="1" style="stop-color:#EC0C8C"/>
		</linearGradient>
		<rect x="96" y="176" class="st12" width="16" height="16"/>
	</g>
</g>
<g>
	<g>
		<linearGradient id="SVGID_14_" gradientUnits="userSpaceOnUse" x1="120.004" y1="184.004" x2="136.004" y2="184.004">
			<stop  offset="0" style="stop-color:#623895"/>
			<stop  offset="1" style="stop-color:#EC0C8C"/>
		</linearGradient>
		<rect x="120" y="176" class="st13" width="16" height="16"/>
	</g>
</g>
<g>
	<g>
		<linearGradient id="SVGID_15_" gradientUnits="userSpaceOnUse" x1="96.004" y1="208.004" x2="112.004" y2="208.004">
			<stop  offset="0" style="stop-color:#623895"/>
			<stop  offset="1" style="stop-color:#EC0C8C"/>
		</linearGradient>
		<rect x="96" y="200" class="st14" width="16" height="16"/>
	</g>
</g>
<g>
	<g>
		<linearGradient id="SVGID_16_" gradientUnits="userSpaceOnUse" x1="120.004" y1="208.004" x2="136.004" y2="208.004">
			<stop  offset="0" style="stop-color:#623895"/>
			<stop  offset="1" style="stop-color:#EC0C8C"/>
		</linearGradient>
		<rect x="120" y="200" class="st15" width="16" height="16"/>
	</g>
</g>
<g>
	<g>
		<linearGradient id="SVGID_17_" gradientUnits="userSpaceOnUse" x1="288.004" y1="96.004" x2="400.004" y2="96.004">
			<stop  offset="0" style="stop-color:#623895"/>
			<stop  offset="1" style="stop-color:#EC0C8C"/>
		</linearGradient>
		<rect x="288" y="88" class="st16" width="112" height="16"/>
	</g>
</g>
<g>
	<g>
		<linearGradient id="SVGID_18_" gradientUnits="userSpaceOnUse" x1="320.004" y1="120.004" x2="368.004" y2="120.004">
			<stop  offset="0" style="stop-color:#623895"/>
			<stop  offset="1" style="stop-color:#EC0C8C"/>
		</linearGradient>
		<rect x="320" y="112" class="st17" width="48" height="16"/>
	</g>
</g>
<g>
	<g>
		<linearGradient id="SVGID_19_" gradientUnits="userSpaceOnUse" x1="88.004" y1="280.004" x2="216.004" y2="280.004">
			<stop  offset="0" style="stop-color:#623895"/>
			<stop  offset="1" style="stop-color:#EC0C8C"/>
		</linearGradient>
		<path class="st18" d="M208,256H96c-4.4,0-8,3.6-8,8v32c0,4.4,3.6,8,8,8h112c4.4,0,8-3.6,8-8v-32C216,259.6,212.4,256,208,256z
			 M200,288h-96v-16h96V288z"/>
	</g>
</g>
<g>
	<g>
		<linearGradient id="SVGID_20_" gradientUnits="userSpaceOnUse" x1="328.004" y1="160.004" x2="416.004" y2="160.004">
			<stop  offset="0" style="stop-color:#623895"/>
			<stop  offset="1" style="stop-color:#EC0C8C"/>
		</linearGradient>
		<rect x="328" y="152" class="st19" width="88" height="16"/>
	</g>
</g>
<g>
	<g>
		<linearGradient id="SVGID_21_" gradientUnits="userSpaceOnUse" x1="272.004" y1="160.004" x2="312.004" y2="160.004">
			<stop  offset="0" style="stop-color:#623895"/>
			<stop  offset="1" style="stop-color:#EC0C8C"/>
		</linearGradient>
		<rect x="272" y="152" class="st20" width="40" height="16"/>
	</g>
</g>
<g>
	<g>
		<linearGradient id="SVGID_22_" gradientUnits="userSpaceOnUse" x1="376.004" y1="192.004" x2="416.004" y2="192.004">
			<stop  offset="0" style="stop-color:#623895"/>
			<stop  offset="1" style="stop-color:#EC0C8C"/>
		</linearGradient>
		<rect x="376" y="184" class="st21" width="40" height="16"/>
	</g>
</g>
<g>
	<g>
		<linearGradient id="SVGID_23_" gradientUnits="userSpaceOnUse" x1="272.004" y1="192.004" x2="360.004" y2="192.004">
			<stop  offset="0" style="stop-color:#623895"/>
			<stop  offset="1" style="stop-color:#EC0C8C"/>
		</linearGradient>
		<rect x="272" y="184" class="st22" width="88" height="16"/>
	</g>
</g>
<g>
	<g>
		<linearGradient id="SVGID_24_" gradientUnits="userSpaceOnUse" x1="320.004" y1="224.004" x2="416.004" y2="224.004">
			<stop  offset="0" style="stop-color:#623895"/>
			<stop  offset="1" style="stop-color:#EC0C8C"/>
		</linearGradient>
		<rect x="320" y="216" class="st23" width="96" height="16"/>
	</g>
</g>
<g>
	<g>
		<linearGradient id="SVGID_25_" gradientUnits="userSpaceOnUse" x1="272.004" y1="224.004" x2="304.004" y2="224.004">
			<stop  offset="0" style="stop-color:#623895"/>
			<stop  offset="1" style="stop-color:#EC0C8C"/>
		</linearGradient>
		<rect x="272" y="216" class="st24" width="32" height="16"/>
	</g>
</g>
<g>
	<g>
		<linearGradient id="SVGID_26_" gradientUnits="userSpaceOnUse" x1="376.004" y1="256.004" x2="416.004" y2="256.004">
			<stop  offset="0" style="stop-color:#623895"/>
			<stop  offset="1" style="stop-color:#EC0C8C"/>
		</linearGradient>
		<rect x="376" y="248" class="st25" width="40" height="16"/>
	</g>
</g>
<g>
	<g>
		<linearGradient id="SVGID_27_" gradientUnits="userSpaceOnUse" x1="272.004" y1="256.004" x2="360.004" y2="256.004">
			<stop  offset="0" style="stop-color:#623895"/>
			<stop  offset="1" style="stop-color:#EC0C8C"/>
		</linearGradient>
		<rect x="272" y="248" class="st26" width="88" height="16"/>
	</g>
</g>
</svg>
