<svg xmlns="http://www.w3.org/2000/svg" xmlns:xlink="http://www.w3.org/1999/xlink" viewBox="0 0 351.42 300.45"><defs><style>.cls-1{isolation:isolate;}.cls-2{fill:#feb721;opacity:0.5;}.cls-3{opacity:0.1;}.cls-4{fill:#ef7c00;}.cls-5{fill:#2e6094;}.cls-11,.cls-6,.cls-61{fill:#bfcfde;}.cls-7{fill:#a1b7cf;}.cls-13,.cls-8,.cls-9{fill:#6187ae;}.cls-8{opacity:0.23;}.cls-13,.cls-15,.cls-45,.cls-52,.cls-8{mix-blend-mode:multiply;}.cls-10{fill:#94aec8;}.cls-11{opacity:0.59;}.cls-12{fill:url(#linear-gradient);}.cls-14{fill:#ec0c8c;}.cls-16{fill:#174e88;}.cls-17{fill:url(#linear-gradient-2);}.cls-18{fill:url(#linear-gradient-3);}.cls-19{fill:url(#linear-gradient-4);}.cls-20{fill:#3d6c9b;}.cls-21{fill:#1c854b;}.cls-22{fill:#85a2c0;}.cls-23{fill:#9bc9b0;}.cls-24{fill:#003d7c;}.cls-25{fill:#0a4581;}.cls-26{fill:#24588e;}.cls-27,.cls-45{fill:#144d86;}.cls-28{fill:#0d4783;}.cls-29{fill:#f2bdde;}.cls-30,.cls-62{fill:#fff;}.cls-31{fill:#f4a957;}.cls-32{fill:#386899;}.cls-33{fill:#0f4984;}.cls-34,.cls-35{fill:#e8eef3;}.cls-35{mix-blend-mode:color-burn;}.cls-36{fill:#2b5e92;}.cls-37{fill:#f7add4;}.cls-38{fill:#d6e0ea;}.cls-39{fill:#e0e8ef;}.cls-40{fill:#edf1f6;}.cls-41{fill:#c9d6e3;}.cls-42{fill:#adc1d5;}.cls-43{fill:#ed74bf;}.cls-44{fill:#ed3a83;}.cls-45{opacity:0.32;}.cls-46{fill:#4ea073;}.cls-47{fill:#dd43cb;}.cls-48{fill:#623895;}.cls-49{fill:#e6ecf2;}.cls-50{fill:#89bfa1;}.cls-51{fill:#bbdac9;}.cls-52{fill:#547da7;opacity:0.09;}.cls-53{fill:#65ac85;}.cls-54{fill:#499d6f;}.cls-55{fill:#3b6a9a;}.cls-56{fill:#77b693;}.cls-57{fill:#50a174;}.cls-58{fill:#c6e0d2;}.cls-59{fill:#8faac5;}.cls-60{opacity:0.28;}.cls-61{opacity:0.22;}.cls-62{opacity:0.34;}.cls-63{fill:#f7f9fb;opacity:0.8;}</style><linearGradient id="linear-gradient" x1="346.79" y1="60.51" x2="347.06" y2="60.24" gradientUnits="userSpaceOnUse"><stop offset="0" stop-color="#40d5e6"/><stop offset="1" stop-color="#698db2"/></linearGradient><linearGradient id="linear-gradient-2" x1="280.64" y1="147.39" x2="299.08" y2="128.94" gradientUnits="userSpaceOnUse"><stop offset="0" stop-color="#ec0c8c"/><stop offset="1" stop-color="#698db2"/></linearGradient><linearGradient id="linear-gradient-3" x1="280.64" y1="168.88" x2="299.08" y2="150.43" xlink:href="#linear-gradient-2"/><linearGradient id="linear-gradient-4" x1="280.64" y1="190.37" x2="299.08" y2="171.92" xlink:href="#linear-gradient-2"/></defs><title>Asset 1</title><g class="cls-1"><g id="Layer_2" data-name="Layer 2"><g id="Layer_6" data-name="Layer 6"><path class="cls-2" d="M105.89,55.34C138.32,14.53,179.54,0,220.45,0,350.34-.1,352.36,192.53,351.28,200.7a69.56,69.56,0,0,1-7.54,22.62c-21.13,41.27-57,54.12-89.84,50.91S189.25,254.54,156.61,248c-26.05-5.24-52.24-3.78-78.14,2.6-15.64,3.86-46.69,12.17-48.93-26.31-1.65-28.13,17.1-61.38,26.34-82.29C70.16,109.64,86.52,79.7,105.89,55.34Z"/></g><g id="Layer_5" data-name="Layer 5" class="cls-3"><path class="cls-4" d="M145,174.91s-22.54,36.15-73.57,36.92c0,0,8.34,36.79,9,38S135,283,135,283,198.18,234.67,243.7,229Z"/><ellipse class="cls-4" cx="216.88" cy="188.24" rx="76.83" ry="44.36" transform="translate(-8.8 10.64) rotate(-2.75)"/><ellipse class="cls-4" cx="76.78" cy="255.98" rx="76.83" ry="44.36" transform="translate(-12.21 3.99) rotate(-2.75)"/></g><g id="OBJECTS"><polygon class="cls-5" points="136.68 244.44 114.59 237.1 124.05 224.48 136.68 244.44"/><polyline class="cls-5" points="223.19 95.86 226.07 105.44 228.04 105.83 235.18 97.84 233.57 93.81 228.93 92.89"/><path class="cls-5" d="M272.49,112.53,269,97.71a11.5,11.5,0,0,0-1.11-2.85h0l-4.65-9v4.47a11.29,11.29,0,0,0-9.92-.35l-17.47,7.78c8.6,6.69,17,14.27,22.65,23.18l3.89-4.79,5.59,1.1A3.87,3.87,0,0,0,272.49,112.53Z"/><path class="cls-6" d="M168.7,174.36,229.2,98.9l-3.55-.7a3.18,3.18,0,0,1-.68-6l24-10.69a11.36,11.36,0,0,1,15.67,7.76l3.5,14.82a3.86,3.86,0,0,1-4.51,4.68l-5.58-1.1-69.46,85.4Z"/><polyline class="cls-7" points="177.3 174.12 148.6 166.04 122 199.57 135.43 218.45 141.96 225.82 154.95 213.17"/><path class="cls-8" d="M147.07,186.68c-1.36,3.16-4.59,6.1-7.22,6.54s-3.66-1.75-2.3-4.92,4.6-6.1,7.23-6.55S148.44,183.51,147.07,186.68Z"/><polyline class="cls-5" points="185.18 215.45 160.28 210.53 172.95 191.86 182.18 200.91 183.7 204.44"/><polygon class="cls-9" points="97.34 260.14 77.29 266.01 127.29 201.05 139.76 221.97 177.3 174.12 188.62 193.05 258.08 107.65 262.42 116.09 185.18 215.45 173.13 195.27 136.68 244.44 124.05 224.48 97.34 260.14"/><path class="cls-9" d="M124.05,224.48l-11,14.75c-3.79-1.31-7.92-2.53-12.29-3.64l26.58-34.54L139.76,222l37.54-47.86,11.32,18.93,69.46-85.4,4.34,8.44-77.24,99.36-12.05-20.18-36.45,49.17Z"/><polygon class="cls-10" points="127.29 201.05 96.97 192.58 49.77 254.93 77.29 266.01 127.29 201.05"/><path class="cls-8" d="M84.52,252c-1.11,2.59-3.75,5-5.89,5.34s-3-1.43-1.88-4,3.75-5,5.9-5.34S85.63,249.37,84.52,252Z"/><rect class="cls-11" x="239.29" y="123.71" width="74.48" height="77.41" rx="4.8"/><path class="cls-12" d="M307.75,123.71H245.31a6,6,0,0,0-6,6v4.58h74.48v-4.58A6,6,0,0,0,307.75,123.71Z"/><path class="cls-13" d="M261.61,145.23a9.72,9.72,0,1,1-9.72-9.72A9.72,9.72,0,0,1,261.61,145.23Z"/><path class="cls-13" d="M259.82,145.23a7.93,7.93,0,1,1-7.93-7.93A7.93,7.93,0,0,1,259.82,145.23Z"/><path class="cls-14" d="M254.06,141.1a2.13,2.13,0,1,1-2.13-2.13A2.13,2.13,0,0,1,254.06,141.1Z"/><path class="cls-14" d="M251.14,143.67h1.58a2.72,2.72,0,0,1,2.72,2.72v3.86a1,1,0,0,1-1,1h-5.09a1,1,0,0,1-1-1V146.4A2.72,2.72,0,0,1,251.14,143.67Z"/><g class="cls-15"><path class="cls-16" d="M254.06,162.82a2.13,2.13,0,1,1-2.13-2.13A2.13,2.13,0,0,1,254.06,162.82Z"/><path class="cls-16" d="M251.14,165.39h1.58a2.72,2.72,0,0,1,2.72,2.72V172a1,1,0,0,1-1,1h-5.09a1,1,0,0,1-1-1v-3.86A2.72,2.72,0,0,1,251.14,165.39Z"/></g><g class="cls-15"><path class="cls-16" d="M254.06,184.31a2.13,2.13,0,1,1-2.13-2.13A2.13,2.13,0,0,1,254.06,184.31Z"/><path class="cls-16" d="M251.14,186.88h1.58a2.72,2.72,0,0,1,2.72,2.72v3.86a1,1,0,0,1-1,1h-5.09a1,1,0,0,1-1-1V189.6A2.72,2.72,0,0,1,251.14,186.88Z"/></g><rect class="cls-11" x="268.83" y="135.52" width="42.05" height="19.6" rx="2.25"/><path class="cls-17" d="M307.67,138.61H272.05a.45.45,0,0,1-.45-.45h0a.45.45,0,0,1,.45-.45h35.62a.45.45,0,0,1,.45.45h0A.45.45,0,0,1,307.67,138.61Z"/><path class="cls-6" d="M278.8,141.22H272a.4.4,0,0,1-.39-.4h0a.4.4,0,0,1,.39-.4h6.81a.4.4,0,0,1,.4.4h0A.4.4,0,0,1,278.8,141.22Z"/><path class="cls-6" d="M288.51,141.22H281.7a.39.39,0,0,1-.39-.4h0a.39.39,0,0,1,.39-.4h6.81a.39.39,0,0,1,.39.4h0A.39.39,0,0,1,288.51,141.22Z"/><path class="cls-6" d="M298.22,141.22h-6.81a.39.39,0,0,1-.39-.4h0a.39.39,0,0,1,.39-.4h6.81a.4.4,0,0,1,.39.4h0A.4.4,0,0,1,298.22,141.22Z"/><path class="cls-6" d="M307.72,141.22h-6.8a.4.4,0,0,1-.4-.4h0a.4.4,0,0,1,.4-.4h6.8a.4.4,0,0,1,.4.4h0A.4.4,0,0,1,307.72,141.22Z"/><path class="cls-6" d="M278.8,143.82H272a.4.4,0,0,1-.39-.4h0a.4.4,0,0,1,.39-.4h6.81a.4.4,0,0,1,.4.4h0A.4.4,0,0,1,278.8,143.82Z"/><path class="cls-6" d="M288.51,143.82H281.7a.39.39,0,0,1-.39-.4h0a.39.39,0,0,1,.39-.4h6.81a.39.39,0,0,1,.39.4h0A.39.39,0,0,1,288.51,143.82Z"/><path class="cls-6" d="M298.22,143.82h-6.81a.39.39,0,0,1-.39-.4h0a.39.39,0,0,1,.39-.4h6.81a.4.4,0,0,1,.39.4h0A.4.4,0,0,1,298.22,143.82Z"/><path class="cls-6" d="M307.72,143.82h-6.8a.4.4,0,0,1-.4-.4h0a.4.4,0,0,1,.4-.4h6.8a.4.4,0,0,1,.4.4h0A.4.4,0,0,1,307.72,143.82Z"/><path class="cls-6" d="M278.8,146.42H272a.4.4,0,0,1-.39-.4h0a.39.39,0,0,1,.39-.39h6.81a.39.39,0,0,1,.4.39h0A.4.4,0,0,1,278.8,146.42Z"/><path class="cls-6" d="M288.51,146.42H281.7a.39.39,0,0,1-.39-.4h0a.38.38,0,0,1,.39-.39h6.81a.38.38,0,0,1,.39.39h0A.39.39,0,0,1,288.51,146.42Z"/><path class="cls-6" d="M298.22,146.42h-6.81a.39.39,0,0,1-.39-.4h0a.38.38,0,0,1,.39-.39h6.81a.39.39,0,0,1,.39.39h0A.4.4,0,0,1,298.22,146.42Z"/><path class="cls-6" d="M307.72,146.42h-6.8a.4.4,0,0,1-.4-.4h0a.39.39,0,0,1,.4-.39h6.8a.39.39,0,0,1,.4.39h0A.4.4,0,0,1,307.72,146.42Z"/><path class="cls-6" d="M278.8,149H272a.4.4,0,0,1-.39-.4h0a.39.39,0,0,1,.39-.39h6.81a.39.39,0,0,1,.4.39h0A.4.4,0,0,1,278.8,149Z"/><path class="cls-6" d="M288.51,149H281.7a.39.39,0,0,1-.39-.4h0a.38.38,0,0,1,.39-.39h6.81a.38.38,0,0,1,.39.39h0A.39.39,0,0,1,288.51,149Z"/><path class="cls-6" d="M298.22,149h-6.81a.39.39,0,0,1-.39-.4h0a.38.38,0,0,1,.39-.39h6.81a.39.39,0,0,1,.39.39h0A.4.4,0,0,1,298.22,149Z"/><path class="cls-6" d="M307.72,149h-6.8a.4.4,0,0,1-.4-.4h0a.39.39,0,0,1,.4-.39h6.8a.39.39,0,0,1,.4.39h0A.4.4,0,0,1,307.72,149Z"/><path class="cls-6" d="M278.8,151.62H272a.4.4,0,0,1-.39-.4h0a.39.39,0,0,1,.39-.39h6.81a.39.39,0,0,1,.4.39h0A.4.4,0,0,1,278.8,151.62Z"/><path class="cls-6" d="M288.51,151.62H281.7a.39.39,0,0,1-.39-.4h0a.38.38,0,0,1,.39-.39h6.81a.38.38,0,0,1,.39.39h0A.39.39,0,0,1,288.51,151.62Z"/><path class="cls-6" d="M298.22,151.62h-6.81a.39.39,0,0,1-.39-.4h0a.38.38,0,0,1,.39-.39h6.81a.39.39,0,0,1,.39.39h0A.4.4,0,0,1,298.22,151.62Z"/><path class="cls-6" d="M307.72,151.62h-6.8a.4.4,0,0,1-.4-.4h0a.39.39,0,0,1,.4-.39h6.8a.39.39,0,0,1,.4.39h0A.4.4,0,0,1,307.72,151.62Z"/><circle class="cls-13" cx="251.89" cy="166.72" r="9.72" transform="translate(64.96 404.01) rotate(-85.27)"/><circle class="cls-13" cx="251.89" cy="166.72" r="7.93"/><rect class="cls-11" x="268.83" y="157.01" width="42.05" height="19.6" rx="2.25"/><path class="cls-18" d="M307.67,160.11H272.05a.46.46,0,0,1-.45-.46h0a.45.45,0,0,1,.45-.45h35.62a.45.45,0,0,1,.45.45h0A.46.46,0,0,1,307.67,160.11Z"/><path class="cls-6" d="M278.8,162.71H272a.4.4,0,0,1-.39-.4h0a.4.4,0,0,1,.39-.4h6.81a.4.4,0,0,1,.4.4h0A.4.4,0,0,1,278.8,162.71Z"/><path class="cls-6" d="M288.51,162.71H281.7a.39.39,0,0,1-.39-.4h0a.39.39,0,0,1,.39-.4h6.81a.39.39,0,0,1,.39.4h0A.39.39,0,0,1,288.51,162.71Z"/><path class="cls-6" d="M298.22,162.71h-6.81a.39.39,0,0,1-.39-.4h0a.39.39,0,0,1,.39-.4h6.81a.4.4,0,0,1,.39.4h0A.4.4,0,0,1,298.22,162.71Z"/><path class="cls-6" d="M307.72,162.71h-6.8a.4.4,0,0,1-.4-.4h0a.4.4,0,0,1,.4-.4h6.8a.4.4,0,0,1,.4.4h0A.4.4,0,0,1,307.72,162.71Z"/><path class="cls-6" d="M278.8,165.31H272a.4.4,0,0,1-.39-.4h0a.39.39,0,0,1,.39-.39h6.81a.39.39,0,0,1,.4.39h0A.4.4,0,0,1,278.8,165.31Z"/><path class="cls-6" d="M288.51,165.31H281.7a.39.39,0,0,1-.39-.4h0a.38.38,0,0,1,.39-.39h6.81a.38.38,0,0,1,.39.39h0A.39.39,0,0,1,288.51,165.31Z"/><path class="cls-6" d="M298.22,165.31h-6.81a.39.39,0,0,1-.39-.4h0a.38.38,0,0,1,.39-.39h6.81a.39.39,0,0,1,.39.39h0A.4.4,0,0,1,298.22,165.31Z"/><path class="cls-6" d="M307.72,165.31h-6.8a.4.4,0,0,1-.4-.4h0a.39.39,0,0,1,.4-.39h6.8a.39.39,0,0,1,.4.39h0A.4.4,0,0,1,307.72,165.31Z"/><path class="cls-6" d="M278.8,167.91H272a.4.4,0,0,1-.39-.4h0a.39.39,0,0,1,.39-.39h6.81a.39.39,0,0,1,.4.39h0A.4.4,0,0,1,278.8,167.91Z"/><path class="cls-6" d="M288.51,167.91H281.7a.39.39,0,0,1-.39-.4h0a.38.38,0,0,1,.39-.39h6.81a.38.38,0,0,1,.39.39h0A.39.39,0,0,1,288.51,167.91Z"/><path class="cls-6" d="M298.22,167.91h-6.81a.39.39,0,0,1-.39-.4h0a.38.38,0,0,1,.39-.39h6.81a.39.39,0,0,1,.39.39h0A.4.4,0,0,1,298.22,167.91Z"/><path class="cls-6" d="M307.72,167.91h-6.8a.4.4,0,0,1-.4-.4h0a.39.39,0,0,1,.4-.39h6.8a.39.39,0,0,1,.4.39h0A.4.4,0,0,1,307.72,167.91Z"/><path class="cls-6" d="M278.8,170.51H272a.4.4,0,0,1-.39-.4h0a.39.39,0,0,1,.39-.39h6.81a.39.39,0,0,1,.4.39h0A.4.4,0,0,1,278.8,170.51Z"/><path class="cls-6" d="M288.51,170.51H281.7a.39.39,0,0,1-.39-.4h0a.38.38,0,0,1,.39-.39h6.81a.38.38,0,0,1,.39.39h0A.39.39,0,0,1,288.51,170.51Z"/><path class="cls-6" d="M298.22,170.51h-6.81a.39.39,0,0,1-.39-.4h0a.38.38,0,0,1,.39-.39h6.81a.39.39,0,0,1,.39.39h0A.4.4,0,0,1,298.22,170.51Z"/><path class="cls-6" d="M307.72,170.51h-6.8a.4.4,0,0,1-.4-.4h0a.39.39,0,0,1,.4-.39h6.8a.39.39,0,0,1,.4.39h0A.4.4,0,0,1,307.72,170.51Z"/><path class="cls-6" d="M278.8,173.11H272a.4.4,0,0,1-.39-.4h0a.39.39,0,0,1,.39-.39h6.81a.39.39,0,0,1,.4.39h0A.4.4,0,0,1,278.8,173.11Z"/><path class="cls-6" d="M288.51,173.11H281.7a.39.39,0,0,1-.39-.4h0a.38.38,0,0,1,.39-.39h6.81a.38.38,0,0,1,.39.39h0A.39.39,0,0,1,288.51,173.11Z"/><path class="cls-6" d="M298.22,173.11h-6.81a.39.39,0,0,1-.39-.4h0a.38.38,0,0,1,.39-.39h6.81a.39.39,0,0,1,.39.39h0A.4.4,0,0,1,298.22,173.11Z"/><path class="cls-6" d="M307.72,173.11h-6.8a.4.4,0,0,1-.4-.4h0a.39.39,0,0,1,.4-.39h6.8a.39.39,0,0,1,.4.39h0A.4.4,0,0,1,307.72,173.11Z"/><circle class="cls-13" cx="251.89" cy="188.21" r="9.72"/><path class="cls-13" d="M259.82,188.21a7.93,7.93,0,1,1-7.93-7.93A7.93,7.93,0,0,1,259.82,188.21Z"/><rect class="cls-11" x="268.83" y="178.5" width="42.05" height="19.6" rx="2.25"/><path class="cls-19" d="M307.67,181.6H272.05a.45.45,0,0,1-.45-.45h0a.46.46,0,0,1,.45-.46h35.62a.46.46,0,0,1,.45.46h0A.45.45,0,0,1,307.67,181.6Z"/><path class="cls-6" d="M278.8,184.2H272a.4.4,0,0,1-.39-.4h0a.39.39,0,0,1,.39-.39h6.81a.39.39,0,0,1,.4.39h0A.4.4,0,0,1,278.8,184.2Z"/><path class="cls-6" d="M288.51,184.2H281.7a.39.39,0,0,1-.39-.4h0a.38.38,0,0,1,.39-.39h6.81a.38.38,0,0,1,.39.39h0A.39.39,0,0,1,288.51,184.2Z"/><path class="cls-6" d="M298.22,184.2h-6.81a.39.39,0,0,1-.39-.4h0a.38.38,0,0,1,.39-.39h6.81a.39.39,0,0,1,.39.39h0A.4.4,0,0,1,298.22,184.2Z"/><path class="cls-6" d="M307.72,184.2h-6.8a.4.4,0,0,1-.4-.4h0a.39.39,0,0,1,.4-.39h6.8a.39.39,0,0,1,.4.39h0A.4.4,0,0,1,307.72,184.2Z"/><path class="cls-6" d="M278.8,186.8H272a.4.4,0,0,1-.39-.4h0A.39.39,0,0,1,272,186h6.81a.39.39,0,0,1,.4.39h0A.4.4,0,0,1,278.8,186.8Z"/><path class="cls-6" d="M288.51,186.8H281.7a.39.39,0,0,1-.39-.4h0a.38.38,0,0,1,.39-.39h6.81a.38.38,0,0,1,.39.39h0A.39.39,0,0,1,288.51,186.8Z"/><path class="cls-6" d="M298.22,186.8h-6.81a.39.39,0,0,1-.39-.4h0a.38.38,0,0,1,.39-.39h6.81a.39.39,0,0,1,.39.39h0A.4.4,0,0,1,298.22,186.8Z"/><path class="cls-6" d="M307.72,186.8h-6.8a.4.4,0,0,1-.4-.4h0a.39.39,0,0,1,.4-.39h6.8a.39.39,0,0,1,.4.39h0A.4.4,0,0,1,307.72,186.8Z"/><path class="cls-6" d="M278.8,189.4H272a.4.4,0,0,1-.39-.4h0a.39.39,0,0,1,.39-.39h6.81a.39.39,0,0,1,.4.39h0A.4.4,0,0,1,278.8,189.4Z"/><path class="cls-6" d="M288.51,189.4H281.7a.39.39,0,0,1-.39-.4h0a.38.38,0,0,1,.39-.39h6.81a.38.38,0,0,1,.39.39h0A.39.39,0,0,1,288.51,189.4Z"/><path class="cls-6" d="M298.22,189.4h-6.81a.39.39,0,0,1-.39-.4h0a.38.38,0,0,1,.39-.39h6.81a.39.39,0,0,1,.39.39h0A.4.4,0,0,1,298.22,189.4Z"/><path class="cls-6" d="M307.72,189.4h-6.8a.4.4,0,0,1-.4-.4h0a.39.39,0,0,1,.4-.39h6.8a.39.39,0,0,1,.4.39h0A.4.4,0,0,1,307.72,189.4Z"/><path class="cls-6" d="M278.8,192H272a.4.4,0,0,1-.39-.4h0a.39.39,0,0,1,.39-.39h6.81a.39.39,0,0,1,.4.39h0A.4.4,0,0,1,278.8,192Z"/><path class="cls-6" d="M288.51,192H281.7a.39.39,0,0,1-.39-.4h0a.38.38,0,0,1,.39-.39h6.81a.38.38,0,0,1,.39.39h0A.39.39,0,0,1,288.51,192Z"/><path class="cls-6" d="M298.22,192h-6.81a.39.39,0,0,1-.39-.4h0a.38.38,0,0,1,.39-.39h6.81a.39.39,0,0,1,.39.39h0A.4.4,0,0,1,298.22,192Z"/><path class="cls-6" d="M307.72,192h-6.8a.4.4,0,0,1-.4-.4h0a.39.39,0,0,1,.4-.39h6.8a.39.39,0,0,1,.4.39h0A.4.4,0,0,1,307.72,192Z"/><path class="cls-6" d="M278.8,194.6H272a.4.4,0,0,1-.39-.4h0a.39.39,0,0,1,.39-.39h6.81a.39.39,0,0,1,.4.39h0A.4.4,0,0,1,278.8,194.6Z"/><path class="cls-6" d="M288.51,194.6H281.7a.39.39,0,0,1-.39-.4h0a.38.38,0,0,1,.39-.39h6.81a.38.38,0,0,1,.39.39h0A.39.39,0,0,1,288.51,194.6Z"/><path class="cls-6" d="M298.22,194.6h-6.81a.39.39,0,0,1-.39-.4h0a.38.38,0,0,1,.39-.39h6.81a.39.39,0,0,1,.39.39h0A.4.4,0,0,1,298.22,194.6Z"/><path class="cls-6" d="M307.72,194.6h-6.8a.4.4,0,0,1-.4-.4h0a.39.39,0,0,1,.4-.39h6.8a.39.39,0,0,1,.4.39h0A.4.4,0,0,1,307.72,194.6Z"/><path class="cls-20" d="M63.55,118.34l-.47.73a12.75,12.75,0,0,0-1.69-.87l.58-.89a3.74,3.74,0,0,1,5.17-1.1l6.73,4.36a3.76,3.76,0,0,1,1.1,5.18l-.44.67a12.94,12.94,0,0,0-1.63-1l.48-.74a1.86,1.86,0,0,0-.54-2.56l-6.73-4.36A1.85,1.85,0,0,0,63.55,118.34Z"/><path class="cls-21" d="M71.08,125.31a1.16,1.16,0,0,1,1.61-.34l2.4,1.55a1.17,1.17,0,0,1,.34,1.62l-.3.47-4.36-2.82Z"/><path class="cls-22" d="M71.54,125.67s0,0,0,0L75,127.8l0,.07Z"/><path class="cls-21" d="M59.62,117.87a1.17,1.17,0,0,1,1.62-.34l2.39,1.55A1.18,1.18,0,0,1,64,120.7l-.31.47-4.36-2.82Z"/><path class="cls-22" d="M60.08,118.23s0,0,.05,0l3.36,2.18,0,.07Z"/><rect class="cls-23" x="42.02" y="121.05" width="37.94" height="24.17" rx="4.59" transform="translate(39.64 278.01) rotate(-147.01)"/><polygon class="cls-24" points="137 188.52 139.13 190.84 146.83 183.49 139.13 187.05 137 188.52"/><polygon class="cls-24" points="76.32 172.29 73.17 174.31 78.84 183.53 77.5 174.31 76.32 172.29"/><path class="cls-16" d="M77.5,174.31l31.29-5.79,6.44-16.11L99.92,135.49l1.88,25.78s-11.73,1.37-25.5,11Z"/><path class="cls-25" d="M101.06,139.28l4,1.83,10.22,11.3-1.59,4a28.83,28.83,0,0,1-12.44-16.56C101.1,139.47,101.06,139.28,101.06,139.28Z"/><path class="cls-26" d="M99.92,135.49a27,27,0,0,0,12.36,17.19c10.47,6.17,11.81,6.71,11.81,6.71s3.24,16.25,12.91,29.13l2.13-1.47-7.79-33.3-13.69-15.84Z"/><path class="cls-27" d="M100,135.8l.28-.26,17.38,2.37s-5,3.17-16.45,1.91A13.86,13.86,0,0,1,100,135.8Z"/><path class="cls-28" d="M118.14,90.44c1.48-2.58,5.82-3.16,10.55-.62,1.36.36,2.14.31,2.7-.12,0,1.64.68,4.66-3,6.06,0,.12-.35.09-.29.21l-5.28,3.82-3.54,1.37-1.58-1.7a5.8,5.8,0,0,0-.39-.7C113.35,93.64,118.14,90.44,118.14,90.44Z"/><path class="cls-29" d="M128.32,97s.9,1.59.17,4.6l-2.62-.87Z"/><polyline class="cls-30" points="127.35 101.63 126.39 103.49 123.89 102.02 123.88 100.47 124.76 99.54"/><path class="cls-31" d="M119.43,98.74,119,99.91A3.65,3.65,0,0,0,121.22,98s-1.9-1.1-1.06-2.47c.7-1.14,2.12-.21,2.26,1L122,98s.8.24,1.85-2.43l.51-.34,4.05.53a12.75,12.75,0,0,1-1,5.87l-2.19-.73a2.24,2.24,0,0,0,1.23,2.59,7.19,7.19,0,0,1-1.07,1.41l-3.22-1.07-.78,2.35-2.13.22-1.76,0-1.14-1.07.07-1.89,1.31-4S118.42,99.66,119.43,98.74Z"/><path class="cls-26" d="M122.51,107.48s12.74,18.44,27.33,19L148.37,131s-18.83,1.32-34.14-15.87C114.23,115.11,116,107.42,122.51,107.48Z"/><path class="cls-25" d="M125.22,124.35,123.35,110l-6.67,7.62A47.83,47.83,0,0,0,125.22,124.35Z"/><polygon class="cls-31" points="151.81 127.24 158.18 125.72 153.41 132.06 151.59 131.17 149.84 130.74 151.81 127.24"/><polygon class="cls-32" points="151.59 131.17 152.25 126.78 149.31 126.34 148.37 130.97 151.59 131.17"/><path class="cls-30" d="M97.31,133.65s5.85,7.75,20.34,4.26c0,0,3.34-14.48,5.09-22.65a12.34,12.34,0,0,0-1-8.5l-7.36-2.44c-.55-.19-2.6.64-3.18.68l-.54-1L99,130.59Z"/><path class="cls-33" d="M115.85,107.71s-.73,18.91-12.26,33.54a17.28,17.28,0,0,1-8.32-8.6L112,103.94a5.42,5.42,0,0,1,2.39.38Z"/><path class="cls-26" d="M107.15,114.37s-18.21-5.18-29.72,3.8l-1.79-4.41s13.57-13.13,36.34-9.82A14.08,14.08,0,0,1,107.15,114.37Z"/><polygon class="cls-31" points="77.16 118.08 74.8 119.22 74.62 121.23 73.37 120.6 72.25 122.52 70.62 123.43 69.69 121.82 67.8 119.48 69.17 115.92 73.05 115.68 73.86 114.84 77.16 118.08"/><polygon class="cls-32" points="73.2 114.8 76.74 119.53 79.32 117.8 75.87 112.96 73.2 114.8"/><rect class="cls-34" x="119.08" y="113.31" width="3.98" height="1.36" transform="translate(199.98 260.36) rotate(-161.61)"/><path class="cls-33" d="M121.5,109.22s-.8,17.82-5.65,29.07h5.22s2.29-15.07,2.64-23.42c.27-6.42-2-8.11-2-8.11Z"/><path class="cls-35" d="M105.31,116.08c5.06-1.54,11.19-4,13.42-8.4l.53.44S114,121.43,101,122.88Z"/><path class="cls-9" d="M119.18,108.06s-6.64,14.71-21.1,13.1L96,118.41l2.24-3.1s16.34.83,20.36-7.75Z"/><path class="cls-36" d="M119.32,108.31a1,1,0,0,1-1.38-.45l-1.16-2.34,2.42.41a.62.62,0,0,1,.27.09l2.18,1.13Z"/><path class="cls-30" d="M119.34,106l2.16,3.26a4,4,0,0,0,0-3.48A2.22,2.22,0,0,1,119.34,106Z"/><path class="cls-30" d="M119.34,106a4.51,4.51,0,0,1-3-2.55,3.14,3.14,0,0,0-2,.91,4.44,4.44,0,0,0,1.48,3.39Z"/><path class="cls-30" d="M160.08,118s-3.45,13.7-12.5,18.8l10,9.74s14.06-9,15.75-26Z"/><path class="cls-31" d="M155.55,126.34a19.29,19.29,0,0,0,3.66-1.63.87.87,0,0,1,.32,1.11c-.31.75-4.19,3-4.19,3Z"/><path class="cls-8" d="M233.27,128.19a5.63,5.63,0,0,1-3.52,3.19c-1.29.22-1.79-.86-1.13-2.4a5.66,5.66,0,0,1,3.53-3.2C233.44,125.56,233.94,126.64,233.27,128.19Z"/><path class="cls-26" d="M52.34,177.86c1.32,1.44,2,5.7-4.3,7.23-7.58,1.84-13.1,5.11-16.58,15.71l-3.69-.4S26,187.64,41.88,178.32C46.52,175.59,50.16,175.47,52.34,177.86Z"/><path class="cls-31" d="M30.64,201.67a10.22,10.22,0,0,1,1.33,1.8s1.47,2.63,1.67,3.05c0,0-.42.58-1,0a9.45,9.45,0,0,1-1.19-1.55,7,7,0,0,0,.25,2.09c.29.79.81,2.36.59,2.84s-.61.1-.61.1-.8-2.41-1-2.93-.31-.27-.31-.27l.33,3.48c.05.53-.22.75-.69.64,0,0-.16-1.58-.34-2.53-.07-.34-.08-1.51-.45-1.42,0,0,0,2.56,0,3a.42.42,0,0,1-.68.43l-.24-3.47s-.06-.24-.2-.15a8.19,8.19,0,0,0-.54,1.84c0,.18,0,.74-.5.63,0,0-.15,0-.11-.58s.13-3,.13-3a7.76,7.76,0,0,1,.67-3.33c.78-1.7,1.53-1.73.56-1.27l1,.3Z"/><polygon class="cls-32" points="27.52 202.64 31.65 202.73 31.84 200.13 27.69 199.92 27.52 202.64"/><path class="cls-28" d="M59.7,160.85a.88.88,0,0,1-.93.84.89.89,0,0,1-.85-.93.91.91,0,0,1,.94-.85A.89.89,0,0,1,59.7,160.85Z"/><path class="cls-28" d="M60,159.91s-1.14-5.53-6.52-4.88c0,0-2.1.91-4.76,5.28.5,1.54-1.47,1.2-1.78,2.79-1.37,7.17-3.59,14.77-8.57,20.33-.08.09-.17.17-.25.25-.48.9-1,1.77-1.52,2.63,1.05,1.24,2.83,2.31,5.91,2.42a85.51,85.51,0,0,0,7.15-14.66l3.85-5L60,163.83S62.08,161.35,60,159.91Z"/><path class="cls-37" d="M59.55,162.49c0,.07,1.25,3.45.92,5.86l-2.71-.52Z"/><path class="cls-31" d="M59.7,161.69a14,14,0,0,1-2.51,10.91l-3.58-1.28-1,4.37-4.77-1,1.1-5.07A5.37,5.37,0,0,0,51.91,166s-2.42-.68-1.73-2.86a1.46,1.46,0,0,1,2.81.33l-.31,1.44a1.9,1.9,0,0,0,1.24-1.15,8.26,8.26,0,0,0,3.26-.47C59.7,162.34,59.7,161.69,59.7,161.69Z"/><path class="cls-30" d="M57,167.84l2.25.82a19.75,19.75,0,0,1-.95,2.1A2.23,2.23,0,0,1,57,167.84Z"/><path class="cls-30" d="M49.39,173h0c-2.46-.54-5.14,1-5.33,3.52-1.18,15.27-7.28,32.11-7.28,32.11l15.57-2.13s.54-13.73,1.07-14.67,4.56-1.76,5.13-5.59L53.3,176.16A5.57,5.57,0,0,0,49.39,173Z"/><path class="cls-28" d="M44.57,172a1.82,1.82,0,1,0,1.91-1.73A1.82,1.82,0,0,0,44.57,172Z"/><path class="cls-28" d="M53.43,155s-5.24-.61-7.55,7.23c-4.43,15.05-24.91,19.43-8.56,38.41,0,0,5.23-9,4.92-14,0,0,3.84-5.87,3.09-10.25,0,0,5-.44,3.66-6.8-1.74-4.84,2.53-9.86,2.53-9.86l4.1-1.94Z"/><polygon class="cls-24" points="76.25 252.8 78.85 255.23 84.05 249.15 78.51 252.36 76.25 252.8"/><polygon class="cls-24" points="15.51 245.72 12.63 248.11 19.39 256.57 16.92 247.58 15.51 245.72"/><path class="cls-16" d="M16.92,247.58,47.25,238l4.41-16.78L36.51,206.31l2.92,25.32S28,234.44,15.49,245.74Z"/><path class="cls-25" d="M37.16,208.67l3,2.56,11.54,10-1.09,4.13C41,221,37,210.24,36.78,208.61,36.73,208.26,37.16,208.67,37.16,208.67Z"/><path class="cls-26" d="M35.85,206.3a22.12,22.12,0,0,0,12.91,15.51c11.15,4.83,12.55,5.2,12.55,5.2a67.81,67.81,0,0,0,15.15,26l2.05-.64-10.7-31.84-15.55-14Z"/><path class="cls-27" d="M36.26,207.92l16-1.43s-7.75,4.36-15.24,3.75A5.77,5.77,0,0,1,36.26,207.92Z"/><path class="cls-33" d="M53.3,180.53c.07,21.59-8.67,31-8.67,31s-7.73-1-10.1-6c0,0,6-9.79,7.71-19,0,0,2.93-5.82,3.09-10.25a6.46,6.46,0,0,0,3.64-3,5.52,5.52,0,0,1,4.14,1.32S53.28,176.17,53.3,180.53Z"/><path class="cls-36" d="M53.32,174.48a2.16,2.16,0,0,1,.57,2.81l-.59-1.13Z"/><path class="cls-9" d="M53.89,177.29l4.66,8.93S59.37,179.52,53.89,177.29Z"/><path class="cls-30" d="M49.15,171.66a15.2,15.2,0,0,1,4.15,2.26v2.24a19.44,19.44,0,0,0-4.48-2.38Z"/><path class="cls-30" d="M68.12,180.27S64.67,194,55.62,199.08l10,9.73s14.06-9,15.75-26Z"/><path class="cls-26" d="M46.42,177c1.37-1.44,5.63-2.46,7.62,3.84,2.38,7.55,6.08,12.91,17,15.69l-.14,3.76S58.15,203,47.61,187.59C44.53,183.09,44.15,179.41,46.42,177Z"/><path class="cls-31" d="M70.61,197.44a11.3,11.3,0,0,1,2.07-1.31s3-1.4,3.44-1.59c0,0,.6.51-.12,1.14a9.9,9.9,0,0,1-1.78,1.17s1.47-.1,2.37-.23.7,1.08-.14,1.46a13.51,13.51,0,0,1-1.84,3.53,8.42,8.42,0,0,1-3.58-1c-1.78-1-1.75-1.79-1.33-.71l.4-1Z"/><polygon class="cls-32" points="71.44 200.91 71.85 196.42 69.03 196.01 68.49 200.52 71.44 200.91"/><path class="cls-38" d="M303.84,240.4l-1.52.91c-1.31-1.22-4.11-2.06-7.35-2.06s-6,.84-7.34,2.06l-1.52-.86.78,4.9h0c.47,1.8,3.91,3.2,8.08,3.2s7.62-1.4,8.09-3.2h0Z"/><path class="cls-39" d="M288.19,243.9v1.9s1.27,1.19,4.34,1.36v-1.9A10.58,10.58,0,0,1,288.19,243.9Z"/><path class="cls-39" d="M300.34,244.52l-.17,2.09a5.22,5.22,0,0,0,1.79-1.08l.27-2A7.53,7.53,0,0,1,300.34,244.52Z"/><ellipse class="cls-40" cx="294.97" cy="240.4" rx="8.86" ry="3.94"/><ellipse class="cls-41" cx="294.97" cy="240" rx="7.48" ry="3.33"/><path class="cls-42" d="M289,231.34s-5-12.62-2.92-15.15,6.33,11.61,6.33,11.61-.88-11.46,1.27-11.91,2.77,5.48,2.77,5.48,2.15-5.71,3.92-5.51-.89,9.55-.89,9.55,1.34-2.93,2.94-3.3-2.56,14.35-2.56,14.35l-5.11-.72"/><path class="cls-43" d="M289,240.4s-3.81-2-3.46-3.94,3.91.67,3.91.67-6.66-8.9,2.95-14.2c8.67-4.78,6.94,13,6.94,13s2-2.42,3.95-1.9c2.56.67-2.37,6.37-2.37,6.37A97.6,97.6,0,0,1,289,240.4Z"/><path class="cls-44" d="M291,241.52s-3.45-2.09-2.46-3.24,3,1,3,1-3.18-7.74-.92-9.71,4.44,6.92,4.44,6.92.07-5.86,2.11-5.93.64,8.17.64,8.17,1.62-5.56,3-5.42-1.2,6.55-1.2,6.55.71-1.24,1.62-1.06-1.2,2.75-1.2,2.75S296.34,243.12,291,241.52Z"/><polygon class="cls-24" points="225.46 117.94 225.46 120.08 234.31 120.08 228.31 117.94 225.46 117.94"/><polygon class="cls-24" points="176.03 112.28 173.59 115.11 181.66 122.33 177.73 113.88 176.03 112.28"/><path class="cls-16" d="M177.73,113.88l28.33-14.51,1.56-17.28-14.1-12.3L188,69.12l.08,1.14,9.18,24.16S186.44,99.09,176,112.3Z"/><path class="cls-25" d="M188,69.12l4.91,1.64,14.68,11.33-.39,4.26c-10.15-2.66-16.41-11.22-17.86-13A8.9,8.9,0,0,1,188,69.12Z"/><path class="cls-26" d="M189.66,66.61A27,27,0,0,0,202,83.8c10.47,6.17,11.82,6.71,11.82,6.71a67.84,67.84,0,0,0,11.81,27.66h3.22l-7.78-33.3L207.38,69Z"/><path class="cls-27" d="M189.72,66.93l.29-.27L207.38,69A44.85,44.85,0,0,1,193,74.87,27.44,27.44,0,0,1,189.72,66.93Z"/><path class="cls-28" d="M194.67,21.56c-.33-2.83,3.66-5.06,6.68-4.25,3.25.79,4.05.73,5.08-.4.51,1.56,1.84,4.25-.9,6.46.09.09-.05,1.06,0,1.15l-4,4.43-2.94,2.42-2-1.12a7.23,7.23,0,0,0-.59-.54C190.49,26.09,194.67,21.56,194.67,21.56Z"/><path class="cls-29" d="M205.87,24.52s1.36,1.22,1.62,4.31h-2.76Z"/><polyline class="cls-30" points="206.43 29.25 206.11 31.32 203.27 30.72 202.76 29.25 203.31 28.1"/><path class="cls-31" d="M198,29v1.24a3.68,3.68,0,0,0,1.48-2.47s-2.15-.45-1.79-2c.31-1.31,1.94-.87,2.47.25v1.5s.84,0,1-2.89a5.46,5.46,0,0,0,2.35-.11c1.93-.47,2-1.15,2-1.15a12.73,12.73,0,0,1,.9,5.88h-2.31a2.24,2.24,0,0,0,2,2.07,7.14,7.14,0,0,1-.58,1.68h-3.39v2.48l-1.95.88-1.67.53-1.43-.65-.53-1.82V30.25S197.34,30.21,198,29Z"/><path class="cls-26" d="M203.31,36.54s22.6,4.56,34-4.6l1.62,4a51.37,51.37,0,0,1-38,10.21A8.18,8.18,0,0,1,203.31,36.54Z"/><path class="cls-45" d="M209.89,46.49c-.82-7.39-5.81-9.81-5.81-9.81l-1.37,2.93,1.37,4,.52,2.9A52,52,0,0,0,209.89,46.49Z"/><path class="cls-31" d="M237.28,31.94l3.61-3.58,9.85-1.53s.81,2-6.16,2.85l.77,2-1.78,3-3.87.31-.8.85Z"/><path class="cls-30" d="M188,69.12s10.52,2,19.35-.09c0,0,.92-17.36-.89-25.52-.94-4.27-1.76-7.12-3.78-7.61H195c-.58,0-1.78,1.49-2.21,1.87a21.19,21.19,0,0,0-2.15,2.15l-2,25.77Z"/><polygon class="cls-26" points="197.82 36.89 200.72 38.66 202.43 36.3 200.19 35.9 197.82 36.89"/><path class="cls-33" d="M203.28,38.3A144.67,144.67,0,0,1,207.38,69l2.61,3s-2-18.67-2.61-24.76c-.3-2.91-1.24-10.63-4.67-11.39Z"/><path class="cls-33" d="M197.43,38.66S204.94,58,199.77,76l-13.29-4.53,3.72-26.36s1.05-8.61,4.76-9.25Z"/><path class="cls-46" d="M200.38,54.72l-10.72-.58.07-1.34a1.39,1.39,0,0,0-1.32-1.47l-13.75-.74a1.4,1.4,0,0,0-1.48,1.32l-.07,1.34-.56,10.45-.29,5.38a1.24,1.24,0,0,0,1.18,1.31l24.73,1.33,3.25-14.66C201.81,55.37,201.63,54.79,200.38,54.72Z"/><polygon class="cls-47" points="198.17 71.72 174.1 70.42 175.29 48.35 202.09 49.8 198.17 71.72"/><polygon class="cls-48" points="191.73 50.94 176.03 68.29 161.53 55.19 177.43 37.58 191.73 50.94"/><polygon class="cls-6" points="198.17 71.72 172.59 70.34 173.7 49.75 197.34 51.02 200.37 53.64 198.17 71.72"/><polygon class="cls-49" points="197.34 51.02 197.21 53.47 200.37 53.64 197.34 51.02"/><path class="cls-50" d="M196.82,54.53,186.1,54l.08-1.34a1.41,1.41,0,0,0-1.33-1.47L171.1,50.4a1.41,1.41,0,0,0-1.48,1.32l-.07,1.34L169,63.5l-.29,5.39a1.26,1.26,0,0,0,1.18,1.31l28.29,1.52.8-14.8A2.27,2.27,0,0,0,196.82,54.53Z"/><path class="cls-46" d="M186.83,68.68s-5.41-9.88-1.37-17.36l-2.71-.3-2.18,3.64.47,6.4,1.29,4.67"/><rect class="cls-51" x="171.51" y="63.17" width="9.78" height="5.12" transform="translate(3.78 -9.37) rotate(3.08)"/><rect class="cls-51" x="171.74" y="61.13" width="9.78" height="0.93" transform="translate(3.56 -9.39) rotate(3.08)"/><rect class="cls-51" x="171.85" y="59.09" width="9.78" height="0.93" transform="translate(3.45 -9.4) rotate(3.08)"/><polygon class="cls-31" points="184.16 64.78 186.83 68.68 191.93 68.55 191.53 69.67 189.32 70.36 189.18 71.14 193.17 71.45 190.98 72.74 188.76 73.46 184.41 73.02 183.34 71.14 182.33 67.31 184.16 64.78"/><path class="cls-26" d="M193.17,45.8s-18.93,3-5.76,22.88l-3.86,2.83s-19.2-26.36,10.18-35A10.18,10.18,0,0,1,193.17,45.8Z"/><path class="cls-30" d="M200.19,35.9l3.09,2.4A4,4,0,0,0,202.14,35,2.24,2.24,0,0,1,200.19,35.9Z"/><path class="cls-30" d="M200.19,35.9a4.53,4.53,0,0,1-3.63-1.48A3.08,3.08,0,0,0,195,35.9a4.46,4.46,0,0,0,2.47,2.76Z"/><path class="cls-9" d="M200.88,38.43l-.16.22-.25-.15c1.53,2.86,5.64,12-2.14,16.46v4.41l4.74.12S210.65,47.6,200.88,38.43Z"/><path class="cls-52" d="M118.85,259.77c0,2.38-4.34,4.31-9.69,4.31s-9.68-1.93-9.68-4.31,4.33-4.31,9.68-4.31S118.85,257.39,118.85,259.77Z"/><path class="cls-38" d="M118.75,248l-1.56.37c-1.43-1.34-4.49-2.25-8-2.25s-6.59.91-8,2.24L99.58,248l.74,11.45h0c.51,2,4.27,3.5,8.83,3.5s8.33-1.53,8.84-3.5h0Z"/><path class="cls-39" d="M102.81,257.8v1.9a9.61,9.61,0,0,0,4.33.82v-1.9A9.69,9.69,0,0,1,102.81,257.8Z"/><path class="cls-39" d="M116.73,255.46v1.89a10.25,10.25,0,0,1-4.27,1.38v-1.9A10.37,10.37,0,0,0,116.73,255.46Z"/><path class="cls-39" d="M102.81,254.09V256a9.52,9.52,0,0,0,4.33.83v-1.9A9.78,9.78,0,0,1,102.81,254.09Z"/><path class="cls-40" d="M118.85,247.33c0,2.38-4.34,4.31-9.69,4.31s-9.68-1.93-9.68-4.31,4.33-4.31,9.68-4.31S118.85,245,118.85,247.33Z"/><path class="cls-41" d="M116.73,246.89c0,1.86-3.39,3.37-7.57,3.37s-7.56-1.51-7.56-3.37,3.39-3.37,7.56-3.37S116.73,245,116.73,246.89Z"/><path class="cls-53" d="M108.82,247.81,91.25,231.67s-.15,3.61,2.23,5.53,4.31,1.24,4.61,4.24a5.26,5.26,0,0,0,4.09,5C105.81,247,106.65,248.89,108.82,247.81Z"/><path class="cls-54" d="M108.82,247.8,91.25,231.67s3.58-.45,5.69,1.76,1.61,4.19,4.62,4.22a5.27,5.27,0,0,1,5.31,3.66C107.71,244.88,109.71,245.55,108.82,247.8Z"/><path class="cls-42" d="M109.16,248V187.5s-7,5.92-6.49,13.66,5.08,10.18,0,15.89-4.84,12.42-2.28,16.19C105.59,240.94,103.41,245.84,109.16,248Z"/><path class="cls-7" d="M109.16,248V187.5s7,5.92,6.5,13.66-5.08,10.18,0,15.89,4.84,12.42,2.29,16.19C112.74,240.94,114.92,245.84,109.16,248Z"/><path class="cls-43" d="M111.66,248.13l12.53-37.72s-5.59,2.24-6.87,7.17,1.05,7.39-3.31,9.89-5.59,6.74-4.77,9.62C110.9,243,108.53,245.57,111.66,248.13Z"/><path class="cls-44" d="M111.66,248.13l12.53-37.72s3.14,5.14,1.22,9.86-5.27,5.29-3.27,9.9.44,8.74-1.94,10.56C115.35,244.44,115.7,248,111.66,248.13Z"/><polygon class="cls-55" points="290.34 211.01 272.47 216.42 267.5 200.03 286.15 194.38 290.34 211.01"/><polygon class="cls-47" points="290.34 206.92 274.85 217.36 265.28 203.16 281.44 192.27 290.34 206.92"/><polygon class="cls-48" points="277.56 198.42 275.94 216.48 260.86 215.15 262.47 196.83 277.56 198.42"/><polygon class="cls-56" points="287.42 213.88 268.34 219.39 263.9 204.04 281.53 198.94 284.42 200.09 287.42 213.88"/><polyline class="cls-57" points="282.78 213.3 276.48 200.4 274.49 200.74"/><polygon class="cls-58" points="281.53 198.94 282.62 200.74 284.42 200.09 281.53 198.94"/><path class="cls-20" d="M260.43,202.73l.47.73a14.16,14.16,0,0,1,1.69-.88l-.57-.88a3.75,3.75,0,0,0-5.18-1.1L250.12,205a3.75,3.75,0,0,0-1.1,5.18l.43.67a14.31,14.31,0,0,1,1.63-1l-.47-.73a1.84,1.84,0,0,1,.54-2.56l6.72-4.37A1.85,1.85,0,0,1,260.43,202.73Z"/><path class="cls-26" d="M253.21,210.17,248.86,213l-.31-.48a1.16,1.16,0,0,1,.34-1.61l2.4-1.56a1.16,1.16,0,0,1,1.61.35Z"/><path class="cls-22" d="M252.45,210.06l0-.05L249,212.19l0,.06Z"/><path class="cls-26" d="M264.67,202.73l-4.35,2.83-.31-.47a1.17,1.17,0,0,1,.34-1.62l2.4-1.56a1.16,1.16,0,0,1,1.61.35Z"/><path class="cls-22" d="M263.9,202.62l0-.05-3.36,2.18s0,0,0,.06Z"/><rect class="cls-9" x="244.03" y="205.44" width="37.94" height="24.17" rx="4.59" transform="translate(-76.04 178.3) rotate(-32.99)"/><polygon class="cls-24" points="193.63 259.69 191.03 262.12 185.83 256.04 191.37 259.25 193.63 259.69"/><path class="cls-8" d="M252.67,264.93a5.65,5.65,0,0,1-4.73-.51c-1-.81-.54-1.9,1.05-2.44a5.61,5.61,0,0,1,4.73.52C254.74,263.31,254.27,264.4,252.67,264.93Z"/><path class="cls-8" d="M192.56,264.93a5.64,5.64,0,0,1-4.73-.51c-1-.81-.55-1.9,1-2.44a5.62,5.62,0,0,1,4.73.52C194.63,263.31,194.16,264.4,192.56,264.93Z"/><polygon class="cls-24" points="254.37 252.61 257.25 255 250.48 263.46 252.96 254.47 254.37 252.61"/><path class="cls-16" d="M253,254.47l-30.34-9.62-4.4-16.78,15.15-14.87-2.92,25.32s11.47,2.81,23.94,14.11Z"/><path class="cls-25" d="M232.72,215.56l-3,2.56-11.54,9.95,1.09,4.13c9.57-4.3,13.55-15.07,13.79-16.69C233.15,215.15,232.72,215.56,232.72,215.56Z"/><path class="cls-26" d="M234,213.19a22.12,22.12,0,0,1-12.91,15.51c-11.16,4.84-12.55,5.2-12.55,5.2a67.81,67.81,0,0,1-15.15,26l-2-.64,10.7-31.84,15.55-14Z"/><path class="cls-27" d="M233.62,214.81l-16-1.43s7.74,4.36,15.24,3.75A5.77,5.77,0,0,0,233.62,214.81Z"/><path class="cls-28" d="M231.33,165.2c0-2.92-3.46-4.45-6.48-4-.49.48-2.6,1.72-2.81,2.13-.49,1.48.78,2.74-.38,3.82-.2.21-.42.4-.63.59l3.81,5.31,2.9,2.39,2-1.11C235.73,169.81,231.33,165.2,231.33,165.2Z"/><path class="cls-37" d="M220.55,169.1a5,5,0,0,0-1.59,3.5h2.72Z"/><path class="cls-30" d="M220,173.29l.21,1.73s2.22.6,2.52-.68l.29-1.28-.71-.51"/><path class="cls-31" d="M228.33,174.31h0a3.64,3.64,0,0,1-1.47-2.44s2.12-.44,1.76-2c-.29-1.29-1.91-.86-2.43.25v1.48s-.83,0-1-2.86l-1-1.24-3.25-.71a16,16,0,0,0-1,6.48h2.28a2.17,2.17,0,0,1-2.07,1.73,10.15,10.15,0,0,0,.64,2h3.35v2.89l.12,1h3.46l1.41-.65.52-1.79v-4.12A1,1,0,0,1,228.33,174.31Z"/><path class="cls-30" d="M229.55,188.41s15.12,1.69,20.95,11.88l2.68-2.74s-6.09-13.9-24.05-18.38A11.39,11.39,0,0,0,229.55,188.41Z"/><path class="cls-31" d="M251.81,200.36a9,9,0,0,0-.18,2.09,10.73,10.73,0,0,1-.29,1.72l1.44-.83s.42.94.78,1.63l-.76.51a10.18,10.18,0,0,0,1.95.63,2.26,2.26,0,0,0,.51-1.17c0-.06,1.58-1.75,1.58-1.75a5.74,5.74,0,0,0-2-3.68c-1.33-1.13-2.52-.72-1.52-.82l-.63.71Z"/><polygon class="cls-39" points="255.17 199.38 251.09 201.82 249.71 199.75 253.75 197.2 255.17 199.38"/><path class="cls-39" d="M237.78,213.19s-.69-20.35-2.8-27.47a10.33,10.33,0,0,0-3.65-5.83l-7,.63-.12-.63c-2.55,2.2-3.85,6.51-4.08,9.18-.61,7-2,20.14-2.27,24.12C223.89,215.46,231.84,215.18,237.78,213.19Z"/><path class="cls-30" d="M224.35,180.52s4.12-.45,5.39-2.09a3.1,3.1,0,0,1,1.59,1.46,9.9,9.9,0,0,1-6.21,3.2Z"/><path class="cls-9" d="M223.76,181s-6.88,15.48,7.51,23.68l.06,5.67-4.18.31S212.38,194,223.76,181Z"/><path class="cls-36" d="M224.77,181.92l-1.72.28a4.56,4.56,0,0,1,1.18-2.31Z"/><path class="cls-28" d="M224.24,167.52s-7.69,1.28-5.75-7.41l6.36,1.07s3.47,2.53,1.31,1.61c-3.42-1.45,2.58,2.18,2.58,2.18Z"/><path class="cls-30" d="M232.05,184.27c-1.5-1.57-6.16-2.69-8.34,4.21-2.6,8.26-6.65,14.11-18.64,17.16l.15,4.12s14,2.92,25.53-13.94C234.11,190.89,234.53,186.87,232.05,184.27Z"/><path class="cls-31" d="M205.58,206.59a11.84,11.84,0,0,0-2.26-1.43s-3.25-1.54-3.77-1.74c0,0-.64.55.14,1.24a11.22,11.22,0,0,0,1.95,1.29,8.5,8.5,0,0,1-2.52-.13c-1-.27-2.88-.76-3.42-.46s-.07.74-.07.74l3.57.91c.55.15.35.35.35.35l-4.18-.1c-.63,0-.88.33-.7.88,0,0,1.89.05,3.05.19.4,0,1.79,0,1.71.41,0,0-3,.25-3.55.22a.51.51,0,0,0-.45.86h4.14s.29.05.19.23a10,10,0,0,1-2.13.8c-.22,0-.88.12-.72.64,0,0,.08.17.7.08s3.6-.4,3.6-.4a9.27,9.27,0,0,0,3.91-1.08c2-1.07,1.92-2,1.46-.78l-.44-1.13Z"/><polygon class="cls-39" points="204.68 210.39 204.23 205.48 207.32 205.03 207.91 209.96 204.68 210.39"/><path class="cls-59" d="M252.22,144.37a6.34,6.34,0,1,0,9,0A6.34,6.34,0,0,0,252.22,144.37Zm7.86,7.86a4.78,4.78,0,1,1,0-6.76A4.78,4.78,0,0,1,260.08,152.23Z"/><path class="cls-6" d="M261,153.15a6.08,6.08,0,1,1,0-8.6A6.08,6.08,0,0,1,261,153.15Zm-7.87-7.86a5,5,0,1,0,7.13,0A5,5,0,0,0,253.14,145.29Z"/><g class="cls-60"><path class="cls-6" d="M260.08,152.23a4.78,4.78,0,1,1,0-6.76A4.78,4.78,0,0,1,260.08,152.23Z"/></g><path class="cls-61" d="M253.33,145.47a4.77,4.77,0,0,0-1.17,4.84,4.77,4.77,0,0,0,6.81-5.66A4.78,4.78,0,0,0,253.33,145.47Z"/><rect class="cls-6" x="261.71" y="151.77" width="1.34" height="5.52" transform="translate(-32.42 230.79) rotate(-45)"/><path class="cls-59" d="M267.15,159.36h0a1.23,1.23,0,0,1-1.72,0L262.09,156a1.23,1.23,0,0,1,0-1.72h0a1.23,1.23,0,0,1,1.72,0l3.34,3.34A1.23,1.23,0,0,1,267.15,159.36Z"/><path class="cls-62" d="M257.62,146.11a.92.92,0,1,1-.92-.92A.92.92,0,0,1,257.62,146.11Z"/><rect class="cls-63" x="245.41" y="126.42" width="17.27" height="4.99" rx="2.49"/></g></g></g></svg>