<svg xmlns="http://www.w3.org/2000/svg" xmlns:xlink="http://www.w3.org/1999/xlink" viewBox="0 0 471.69 310.96"><defs><style>.cls-1{fill:#e6dcf4;opacity:0.59;}.cls-2{fill:#a3b9d0;}.cls-3{fill:#85a2c0;}.cls-4{fill:#cfdae6;}.cls-5{fill:#fff;}.cls-6{fill:url(#linear-gradient);}.cls-7{fill:#dee6ee;}.cls-8{fill:#edf1f6;}.cls-9{fill:#f7c187;}.cls-10{fill:#f16556;}.cls-11{fill:#f2922b;}.cls-12{fill:#ef4a38;}.cls-13{fill:#1a5089;}.cls-14{fill:#ef7c00;}.cls-15{fill:#f4a54f;}.cls-16{fill:#f29836;}.cls-17{fill:#174e88;}.cls-18{fill:#f4a957;}.cls-19{fill:#f15e4e;}.cls-20{fill:#f6b670;}.cls-21{fill:#084380;}.cls-22{fill:#fbe2c7;}.cls-23{fill:#f7be80;}.cls-24{fill:#fad2a8;}.cls-25{fill:#f8c38a;}.cls-26{fill:#f39f45;}.cls-27{fill:#f4a754;}.cls-28{fill:#5981aa;}.cls-29{fill:#f7f9fb;}.cls-30{fill:#a8bdd2;}.cls-31{fill:#306295;}.cls-32{fill:#4a75a2;}.cls-33{fill:#003d7c;}.cls-34{fill:#406e9d;}.cls-35{fill:#0f4984;}.cls-36{fill:#265a90;}.cls-37{fill:#fbdab8;}.cls-38{fill:#f8c894;}.cls-39{fill:#4d77a3;}.cls-40{fill:#feb721;}.cls-41{fill:#21568d;}.cls-42{fill:#7596b8;}.cls-43{fill:#c9d6e3;}</style><linearGradient id="linear-gradient" x1="110.83" y1="29.95" x2="325.5" y2="29.95" gradientTransform="translate(436.33 59.9) rotate(-180)" gradientUnits="userSpaceOnUse"><stop offset="0" stop-color="#40d5e6"/><stop offset="1" stop-color="#698db2"/></linearGradient></defs><title>Asset 1</title><g id="Layer_2" data-name="Layer 2"><g id="Layer_1-2" data-name="Layer 1"><path class="cls-1" d="M112.19,114.8c47.56-36.45,108-49.38,167.88-49.38,190.27,0,193,172.17,191.42,179.46-1.65,7.58-6.08,14.28-11.08,20.21-31,36.87-83.57,48.33-131.66,45.44S234.07,292.89,186.26,287c-38.14-4.7-76.52-3.42-114.47,2.27C48.88,292.69,3.39,300.1.14,265.71c-2.37-25.14,25.13-54.84,38.69-73.52C59.79,163.31,83.78,136.56,112.19,114.8Z"/></g><g id="Layer_2-2" data-name="Layer 2"><path class="cls-2" d="M356.52,23.47a25.58,25.58,0,0,0-2.75-6.62l2.8-4.2-3.88-3.88-3.88-3.88-4.2,2.8A25.43,25.43,0,0,0,338,4.94L337,0H326l-1,4.94a25.43,25.43,0,0,0-6.62,2.75l-4.2-2.8-3.88,3.88-3.88,3.88,2.8,4.2a25.58,25.58,0,0,0-2.75,6.62l-4.94,1v11l4.94,1A25.51,25.51,0,0,0,309.26,43l-2.8,4.21,3.88,3.87L314.22,55l4.2-2.79A25.76,25.76,0,0,0,325,55l1,4.95h11L338,55a25.76,25.76,0,0,0,6.62-2.74l4.2,2.79,3.88-3.88,3.88-3.87L353.77,43a25.51,25.51,0,0,0,2.75-6.61l4.94-1v-11Zm-25,25.69A19.22,19.22,0,1,1,350.73,30,19.21,19.21,0,0,1,331.51,49.16Z"/><path class="cls-2" d="M364,70.1a12,12,0,0,0-1.26-3L364,65.14l-1.77-1.78-1.78-1.78-1.93,1.28a11.53,11.53,0,0,0-3-1.25l-.46-2.27h-5l-.45,2.27a11.59,11.59,0,0,0-3,1.25l-1.92-1.28-1.78,1.78-1.78,1.78,1.28,1.92a12,12,0,0,0-1.26,3l-2.26.45v5l2.26.46a11.75,11.75,0,0,0,1.26,3L341.05,81l1.78,1.78,1.78,1.77,1.92-1.28a11.62,11.62,0,0,0,3,1.26L350,86.8h5l.46-2.27a11.55,11.55,0,0,0,3-1.26l1.93,1.28,1.78-1.77L364,81l-1.28-1.93A11.75,11.75,0,0,0,364,76l2.27-.46v-5ZM352.54,81.88a8.81,8.81,0,1,1,8.81-8.81A8.81,8.81,0,0,1,352.54,81.88Z"/><rect class="cls-3" x="204.68" y="162.85" width="26.97" height="81.93" transform="translate(436.33 407.64) rotate(180)"/><rect class="cls-4" x="101.71" y="38.01" width="232.91" height="164.31" rx="15.98" transform="translate(436.33 240.33) rotate(180)"/><rect class="cls-5" x="110.83" y="20.52" width="214.67" height="156.05" transform="translate(436.33 197.09) rotate(180)"/><rect class="cls-6" x="110.83" y="20.52" width="214.67" height="18.85" transform="translate(436.33 59.9) rotate(180)"/><path class="cls-3" d="M210.65,188.35a7.52,7.52,0,1,0,7.52-7.51A7.52,7.52,0,0,0,210.65,188.35Z"/><rect class="cls-7" x="180.68" y="52.78" width="69.33" height="5.58" rx="2.79" transform="translate(430.69 111.14) rotate(180)"/><rect class="cls-7" x="180.68" y="62.85" width="69.33" height="5.59" rx="2.79" transform="translate(430.69 131.28) rotate(180)"/><rect class="cls-7" x="180.68" y="72.92" width="69.33" height="5.59" rx="2.79" transform="translate(430.69 151.43) rotate(-180)"/><path class="cls-7" d="M213.41,165.59H132.94a12.18,12.18,0,0,1-12.17-12.17V104.47a12.18,12.18,0,0,1,12.17-12.16h80.47a12.18,12.18,0,0,1,12.17,12.16v48.95A12.18,12.18,0,0,1,213.41,165.59ZM132.94,93.83a10.65,10.65,0,0,0-10.64,10.64v48.95a10.66,10.66,0,0,0,10.64,10.65h80.47a10.66,10.66,0,0,0,10.64-10.65V104.47a10.65,10.65,0,0,0-10.64-10.64Z"/><rect class="cls-7" x="133.93" y="98.98" width="78.49" height="11.77" rx="5.89" transform="translate(346.34 209.73) rotate(180)"/><rect class="cls-4" x="157.49" y="241.69" width="121.35" height="6.18"/><path class="cls-8" d="M301.36,108.39a17.47,17.47,0,0,1-8.65,15.08,17.66,17.66,0,0,1-3.31,1.5l-.32.1a17.47,17.47,0,1,1,12.28-16.68Z"/><path class="cls-5" d="M279.72,106.54s-1.2-7.71,5.2-7.57,6.3,4,6.19,7.74-2.56,3.51.2,8.78-2.39,5.27-2.39,5.27l-4-5.5Z"/><path class="cls-9" d="M284.22,99.71s-4.33.68-4.5,6.83,1.17,7.47,4.95,6.18,5-7.71,5.07-8.71S290.06,99,284.22,99.71Z"/><path class="cls-10" d="M291.82,121.11A4.19,4.19,0,0,1,289.4,125l-.32.1a17.59,17.59,0,0,1-12.95-1c-.53-1.05.23-2.54,1.78-4.83,1.07-1.58,2.11-3.18,3.89-4,2.64-.42,5.42-.45,7.39.66C290.75,116.8,291.79,118.4,291.82,121.11Z"/><path class="cls-10" d="M278.76,119.11l-2,3.14s.14-.49.36-1.87c0-.26.09-.55.14-.88a1.5,1.5,0,0,1,.06-.29h0c.85-2,3.51-3.42,3.61-3.47Z"/><path class="cls-9" d="M292.71,123.47a17.66,17.66,0,0,1-3.31,1.5l-.32.1c-.44-1.14-.82-2.13-.91-2.38,0-.07-.08-.21-.16-.4a13.21,13.21,0,0,1-1.17-4.33c0-1,.32-1.78,1.3-2a2.71,2.71,0,0,1,1.05,0,3.08,3.08,0,0,1,2.1,2.07s0,0,0,0a6.51,6.51,0,0,1,.39,1.39l.05.2c.07.24.18.7.34,1.31S292.47,122.51,292.71,123.47Z"/><path class="cls-9" d="M287.11,110a32.63,32.63,0,0,0-.77,5.11s-5.3,2-4.76.87a4.34,4.34,0,0,0,.33-1.76,8.53,8.53,0,0,0-.06-1.06,1.09,1.09,0,0,0,0-.19S287.48,109.24,287.11,110Z"/><path class="cls-5" d="M282.45,104.12s2.22,3.62,4.25,5,1,2.57,1,2.57,5.28-11.11.26-11.88-8.09-.83-8.23,6.69C279.72,106.54,282,104.07,282.45,104.12Z"/><path class="cls-11" d="M284.87,112.65c-.81,1.2-3,1.52-3,1.52h0a8.53,8.53,0,0,0-.06-1.06A6.09,6.09,0,0,0,284.87,112.65Z"/><path class="cls-12" d="M277.34,119.19h0a4.78,4.78,0,0,0-.21,1.19l.78-1.17s1.39-2,1.87-2.52a7.23,7.23,0,0,1,1.17-1S278.17,117,277.34,119.19Z"/><path class="cls-10" d="M287.88,122.17a29.14,29.14,0,0,1,4.4-1.41s-.68-5.46-4-4.88S287.88,122.17,287.88,122.17Z"/><path class="cls-9" d="M281.8,115.25s-2.49,3.83-1.65,4.17,5.42-.45,7.36-4.09A6.85,6.85,0,0,0,281.8,115.25Z"/><rect class="cls-13" x="70.84" y="199.66" width="27.22" height="2.49" transform="translate(-1.52 0.65) rotate(-0.43)"/><rect class="cls-13" x="87.26" y="187.42" width="27.22" height="2.49" transform="translate(-109.05 229.95) rotate(-73)"/><rect class="cls-14" x="144.86" y="205.3" width="2.12" height="65.44"/><rect class="cls-15" x="65.17" y="201.58" width="93.35" height="3.72" transform="translate(223.69 406.88) rotate(180)"/><rect class="cls-14" x="77.11" y="205.3" width="2.12" height="65.44" transform="translate(156.35 476.04) rotate(180)"/><rect class="cls-16" x="34.45" y="227.77" width="2.55" height="32.23"/><path class="cls-17" d="M67.77,256.2a14,14,0,0,0,.49,3.08c.34,1.22,1,5.93,1.89,6.59s3.67,2.4,3.26,4.2-.76,3-3.79,2-5.05-1.67-5.63-4.33a16.49,16.49,0,0,0-2.24-5.07l-2.19,5.44-1.15-.47s1.74-5.88,1.59-6.4.8-5.19,4.47-6.35S67.77,256.2,67.77,256.2Z"/><path class="cls-17" d="M88,257.91a13.63,13.63,0,0,0,1.61,2.68c.77,1,3.15,5.12,4.21,5.41s4.3.86,4.59,2.68.43,3.11-2.78,3.25-5.31.33-6.84-1.91a16.69,16.69,0,0,0-4-3.88V272H83.57s-.57-6.11-.91-6.54-1.19-5.12,1.77-7.56S88,257.91,88,257.91Z"/><path class="cls-9" d="M55.41,178.2s.71-2.52.78-2.85a5.23,5.23,0,0,1,1.58-1.67,6.1,6.1,0,0,1,2.46-1.17.91.91,0,0,1,.68.4,1.84,1.84,0,0,1,.33.86,1.13,1.13,0,0,1,.59.89,1,1,0,0,1,.43,1s.51.31.39.79a7.3,7.3,0,0,0-.85,1A15.78,15.78,0,0,1,58.5,180S56.43,181.53,55.41,178.2Z"/><path class="cls-18" d="M58.51,176.2a5.72,5.72,0,0,1,.24,1.41c-.07.34,2.43.39,2.43.39S59.81,175.86,58.51,176.2Z"/><path class="cls-17" d="M30.44,182.55c1-1.63,2.35-2.37,6.61.58s3.26,2.38,4.29,3.31a46.5,46.5,0,0,0,5.49,3.27,39,39,0,0,0,3.87-4.44c1.41-2.08,4.36-7.64,4.36-7.64l4.14,3.08s-8,14.57-9.71,15.64-6.74-.72-9.37-1.83S34.7,192,33.5,191.68,27.81,186.8,30.44,182.55Z"/><rect class="cls-19" x="55.44" y="169.87" width="9.35" height="0.79" transform="translate(-119.07 192.5) rotate(-77.63)"/><path class="cls-20" d="M60,172.68s-2.08,1.78-1.84,2.15a.71.71,0,0,0,.56.36l-.52,1.12s.07.95,1.08.59c0,0,0,.89.9.43,0,0,.25.59.71.45a8.82,8.82,0,0,0,1.76-1.34s.16-.37-.39-.79a1,1,0,0,0-.43-1,1,1,0,0,0-.59-.89s0-1.19-1-1.26A2.27,2.27,0,0,0,60,172.68Z"/><path class="cls-9" d="M56.22,175.38a9.08,9.08,0,0,1,2.46-1.62c.24-.08.49-.12.65.08s.1.68-.48,1.25a7.23,7.23,0,0,0-1.06,1.59S57,177.1,56.22,175.38Z"/><path class="cls-21" d="M50.32,191.4a9.59,9.59,0,0,0-.15-5.4,7,7,0,0,1-.69,4.17C48.7,191.43,50.32,191.4,50.32,191.4Z"/><path class="cls-22" d="M65.56,191.87s2.25-16.69,6.18-24H66s-6.46,11.39-5.25,22.9Z"/><path class="cls-9" d="M66.94,179.38s.66-1.23.82-1.63.81.29.71.81S66.94,179.38,66.94,179.38Z"/><path class="cls-9" d="M72.06,182.17a2.64,2.64,0,0,1-.38.82s-.4.39-.67.67a2.49,2.49,0,0,0-.2.24,5.22,5.22,0,0,1-1,1.28c-.58.47-2.78,1.9-2.78,1.9l-1.56-1.66-1.24-1.29s1-3.95,1.54-4.45l.14-.13a6.64,6.64,0,0,1,1.21-.64c.1-.07,1.1-.62,1.41-.5a1.1,1.1,0,0,1,.75.79,2.62,2.62,0,0,1,1.13.93,1.62,1.62,0,0,1,1,1.11S72.09,181.65,72.06,182.17Z"/><path class="cls-9" d="M82.28,225.25,75.75,240l-1.26,2.83-1,2.36c-1.73,3.9-6,12.4-6,12.4s-3.21.13-3.39-2.6c0,0,3.08-5.9,3.08-10s.55-16.36,4.51-19C76.48,222.68,79.61,222.07,82.28,225.25Z"/><path class="cls-9" d="M47,208.94a4.47,4.47,0,0,0,1.48,1c.68.18,12.07,1,17.34,2.78s12.25,2.85,13.55,4.34,3.47,9.65,3.41,11.2,4.62,27.63,5.2,29.66c.31,1.08-4.23.67-4.23.67s-6.46-15.41-7.84-18.26c-2.54-5.23-2.67-11.63-3.59-12.63s-11.27-3.21-17.21-3.21-19.25.49-20.68-.31-10.34-6.69-6.62-14.55S47,208.94,47,208.94Z"/><path class="cls-17" d="M72.71,214.57l-9.43,18.14s-2.84-6.73-7.79-7.89-24.73-.54-24.73-.54-9.07-11.48-1.3-17.5,16.84.95,16.84.95,1.88,2,2.78,2.08C55.68,210.14,62.71,211.36,72.71,214.57Z"/><path class="cls-9" d="M93.81,266s-2.87.72-4,0-4.84-7-6.08-7.42c0,0,1.2-2.44,4.23-.67C88,257.91,93,265,93.81,266Z"/><path class="cls-9" d="M70.15,265.87s-2.93-.41-3.68-1.48-1.87-8.34-2.88-9.16c0,0,2-1.81,4.18,1C67.77,256.2,69.79,264.59,70.15,265.87Z"/><path class="cls-9" d="M40.2,152a7.67,7.67,0,0,1,8.07,7,19.4,19.4,0,0,1-.58,2.88c-.39,1.27.75,5,.45,5.21a8.65,8.65,0,0,1-1.52.42s-1.33,4.09-2.76,4.06a11.93,11.93,0,0,1-9.44-6.25C31.85,160.22,31.06,152.41,40.2,152Z"/><path class="cls-9" d="M41.92,169.7s-.18.57-.38,1.43c-.11.43-.21.94-.31,1.48a10.21,10.21,0,0,0,0,4.4s-3.17,1.1-5.68-3.39c0,0,1.07-4.84-.33-7.77S41.92,169.7,41.92,169.7Z"/><path class="cls-17" d="M48.27,159s-3.48,3.11-7.15,2.87S35,166.28,35,166.28s-5.55-7-1.07-12.61S49.06,152,48.27,159Z"/><path class="cls-9" d="M39.42,161.84a1.12,1.12,0,0,0-2-.8c-1.16,1,.4,4.32,1.35,4S39.45,162.57,39.42,161.84Z"/><path class="cls-11" d="M41.54,171.13c-.11.43-.21.94-.31,1.48a15.92,15.92,0,0,1-4.44-4.15A18.17,18.17,0,0,0,41.54,171.13Z"/><path class="cls-17" d="M50.15,188.29c-.67,3.1-2.43,3.26-2.32,5.55s.79,2.49-.39,6.1a17.16,17.16,0,0,0-.54,2.14c0,.09,0,.18,0,.26-.08.42-.15.84-.2,1.25-.11.77-.18,1.52-.24,2.2A4.54,4.54,0,0,0,47.59,209S36,215.89,28,214.92c0,0,2.06-8.66,3.2-11.63s.79-16.71,0-19.66c-1.23-4.35,1.23-10.88,4.6-11.73L41,174.32s5.25,6.27,6.43,7.22S50.83,185.15,50.15,188.29Z"/><path class="cls-17" d="M32.92,175.59c1.47-1.23,3.6-3.33,6.71.83s5.37,6.82,6,8,6.51,9.65,6.51,9.65,3.11-2.88,4.88-4.23c2-1.53,7.46-7.21,7.46-7.21l3.6,4S55.62,200.53,53.68,201s-7.34-4.38-9.49-6.27S36,186,35,185.32,29.08,178.79,32.92,175.59Z"/><path class="cls-11" d="M75.75,240l-1.26,2.83c-1.41-4.51-1.29-12-1.29-12A42.08,42.08,0,0,0,75.75,240Z"/><rect class="cls-4" x="15.33" y="224.28" width="40.16" height="4.42"/><path class="cls-4" d="M36.23,210.19s-1,4.09,3.75,5,10.63,2.12,10.63,9.47H34.08Z"/><polygon class="cls-9" points="60.74 165.62 61.42 164.36 61.51 165.78 60.74 165.62"/><path class="cls-4" d="M15.33,228.7l-14-59s25.38-4,28.41,7.43,8,45.25,14,47.35S15.33,228.7,15.33,228.7Z"/><path class="cls-21" d="M48,198s-.26,1.08-.54,2l-6.17-8Z"/><path class="cls-17" d="M32.5,161.27s2.44,6.45,1.78,8.21a5.44,5.44,0,0,0,3.11-5.85C36.69,159.4,32.5,161.27,32.5,161.27Z"/><polygon class="cls-17" points="41.3 174.68 41.3 173.4 35.88 170.76 34.01 172.93 41.3 174.68"/><path class="cls-23" d="M60.51,268.32a2.1,2.1,0,1,1-2.1-2.1A2.1,2.1,0,0,1,60.51,268.32Z"/><polygon class="cls-16" points="13.23 266.24 13.77 267.73 36.23 260.77 35.15 257.75 13.23 266.24"/><polygon class="cls-16" points="58.41 266.24 57.88 267.73 35.41 260.77 36.4 257.56 58.41 266.24"/><polygon class="cls-16" points="42.58 267.57 42.58 269.31 35.41 260.77 36.4 257.56 42.58 267.57"/><path class="cls-23" d="M42.76,268.32a2.1,2.1,0,1,1-2.1-2.1A2.1,2.1,0,0,1,42.76,268.32Z"/><circle class="cls-23" cx="13.23" cy="268.32" r="2.1"/><path class="cls-8" d="M307.81,57.43a22.6,22.6,0,0,1-5.33,14.62,22,22,0,0,1-2.54,2.57c-.26.23-.52.45-.79.66s-.62.48-.94.7a22.52,22.52,0,0,1-10.34,4,19.57,19.57,0,0,1-2,.16l-.75,0c-.73,0-1.46,0-2.18-.11a20.33,20.33,0,0,1-2.36-.35,22.62,22.62,0,0,1-9.29-4.24,23.24,23.24,0,0,1-2.3-2l-.41-.43a21.06,21.06,0,0,1-1.44-1.69,22.73,22.73,0,1,1,40.71-13.89Z"/><path class="cls-24" d="M299.89,70l-1.68,6a22.52,22.52,0,0,1-10.34,4,19.57,19.57,0,0,1-2,.16l-.75,0c-.73,0-1.46,0-2.18-.11a20.33,20.33,0,0,1-2.36-.35,22.62,22.62,0,0,1-9.29-4.24c-.32-2-.67-4.19-1-6.25,1.67-.62,7-2.43,10.34-3.56l.14-.05.22-.07.57-.2.52-.17,1.34-.45h0l.06,0h0L288,65l.75.06.24,0,.1,0c.27.07,1.06.28,2.11.6h0C293.92,66.54,298.25,68.09,299.89,70Z"/><path class="cls-25" d="M286.27,46.14s5.41.91,4.49,9.39-5.69,7.72-6,7.71-4.8.1-5-10.26C279.7,53,279.64,45.32,286.27,46.14Z"/><path class="cls-25" d="M288.64,60.78s-.19,3.49.14,4.25-4.35,3.16-7.25.42a29.28,29.28,0,0,0,.4-5.15C281.75,59,288.64,60.78,288.64,60.78Z"/><path class="cls-25" d="M290.87,53.13s.6-.63.81,0-1,3.5-.89,3.63-.11.24-.25.11A31.31,31.31,0,0,1,290.87,53.13Z"/><path class="cls-25" d="M279.77,52.9s-.58-.65-.82,0,.63,3.48.74,3.66c0,0,.19.29.33.16A30.73,30.73,0,0,0,279.77,52.9Z"/><path class="cls-26" d="M291.22,52.41c-.19,1.16-.37,2-.37,2l-.79,1a20.7,20.7,0,0,0-.07-2.63c0-.14-.1-.38-.15-.64-.09-.42-.19-.91-.25-1.07s-4.64-1.58-8.68.28a6,6,0,0,1,0,.74c0,.45-.05,1-.26,1-.38.14-.22,2.66-.22,2.66l-.63-.73s-.18-1.31-.36-2.83h0c0-.35-.09-.71-.13-1.07-.09-1.52.06-4.29,2.05-5.91,1.33-.57,3.47-1.06,7,0a2.42,2.42,0,0,1,1,.27C291.68,48,291.22,52.41,291.22,52.41Z"/><path class="cls-27" d="M282.31,62.11a3.43,3.43,0,0,0,2.87,1.15,3.92,3.92,0,0,0,2.87-1.09,3.48,3.48,0,0,1-2.88,2A3.53,3.53,0,0,1,282.31,62.11Z"/><path class="cls-25" d="M281,65.53a5.9,5.9,0,0,0,4.2,2.76c1.75.15,3.26-2.06,4-3.15A10.56,10.56,0,0,0,281,65.53Z"/><path class="cls-22" d="M288.64,64.34a14.84,14.84,0,0,1-3.46,3l1.47,2.26,2.49-4.46Z"/><path class="cls-22" d="M281.64,64.68a10,10,0,0,0,3.54,2.66l-1.61,2.33-2.81-4.07Z"/><path class="cls-28" d="M285.18,67.34l1.26,1.91a2.62,2.62,0,0,1-2.55,0Z"/><path class="cls-13" d="M301.34,69.61a.93.93,0,0,1,0,.13c-.14.49-.67,2.38-1.36,4.88-.26.23-.52.45-.79.66s-.62.48-.94.7a22.52,22.52,0,0,1-10.34,4c.34-7.86,1.27-14.84,1.27-14.84.74.19,1.44.39,2.1.58h0a47.7,47.7,0,0,1,9.68,3.66h0C301.22,69.53,301.34,69.61,301.34,69.61Z"/><path class="cls-13" d="M280.54,79.7a22.62,22.62,0,0,1-9.29-4.24,23.24,23.24,0,0,1-2.3-2l-.41-.43c-.4-1.69-.66-2.79-.68-2.86h0s2.81-1.84,12.76-4.5h0C280.62,65.88,280.63,72.26,280.54,79.7Z"/><path class="cls-28" d="M285.9,69.46c-.09,2.08-.1,6.1-.07,10.68l-.75,0c-.73,0-1.46,0-2.18-.11a70.74,70.74,0,0,1,1.51-10.59c.11-.46.18-.69.18-.69l1.33.22C285.91,69.14,285.91,69.29,285.9,69.46Z"/><path class="cls-13" d="M302.48,72.05a22,22,0,0,1-2.54,2.57c-.26.23-.52.45-.79.66l1.78-5.9h0l0,0a1.42,1.42,0,0,1,.34.35A11.11,11.11,0,0,1,302.48,72.05Z"/><path class="cls-13" d="M269,73.44l-.41-.43a21.06,21.06,0,0,1-1.44-1.69,2.63,2.63,0,0,1,.76-1.18h0Z"/><rect class="cls-29" x="119.8" y="26.39" width="30.62" height="7.12" rx="3.45"/><path class="cls-30" d="M132.46,80.15a14.7,14.7,0,0,0,19.42-13.74c0-.33,0-.66,0-1a14.71,14.71,0,1,0-19.4,14.73Zm-6.31-14.07a11,11,0,0,1,21.39-3.63h0a11.11,11.11,0,0,1,.65,3.16c0,.25,0,.49,0,.74a11,11,0,1,1-22-.28Z"/><path class="cls-31" d="M145.89,73l2.91,2.25a14.73,14.73,0,0,1-16.34,4.93l1.18-3.48A11.08,11.08,0,0,0,145.89,73Z"/><path class="cls-32" d="M148.18,65.62l3.68-.2c0,.33,0,.66,0,1a14.61,14.61,0,0,1-3.08,8.81L145.89,73a11,11,0,0,0,2.31-6.61C148.2,66.11,148.2,65.87,148.18,65.62Z"/><path class="cls-32" d="M148.19,65.62a11.11,11.11,0,0,0-.65-3.16h0L151,61.2a14.8,14.8,0,0,1,.86,4.22Z"/><path class="cls-3" d="M128.33,54.47A14.7,14.7,0,0,1,151,61.2l-3.46,1.26h0a11,11,0,0,0-17-5Z"/><path class="cls-30" d="M238.25,93.07h7.13A4.62,4.62,0,0,1,250,97.69v7.13a4.62,4.62,0,0,1-4.62,4.62h-7.13a4.62,4.62,0,0,1-4.62-4.62V97.69A4.63,4.63,0,0,1,238.25,93.07Z"/><path class="cls-5" d="M241.3,104.87l-4.14-3.61a.82.82,0,0,1,1.07-1.23l2.93,2.55,4.18-4.66A.81.81,0,0,1,246.55,99Z"/><path class="cls-30" d="M238.25,114.06h7.13a4.63,4.63,0,0,1,4.63,4.63v7.13a4.62,4.62,0,0,1-4.62,4.62h-7.13a4.62,4.62,0,0,1-4.62-4.62v-7.13A4.62,4.62,0,0,1,238.25,114.06Z"/><path class="cls-5" d="M241.3,125.86l-4.14-3.61a.82.82,0,1,1,1.07-1.23l2.93,2.55,4.18-4.66a.81.81,0,0,1,1.21,1.09Z"/><rect class="cls-30" x="233.63" y="135.05" width="16.38" height="16.38" rx="4.62"/><path class="cls-33" d="M181.73,248.44s.49,3.32.82,4.74,3.4,5.48,3.34,6.17-1.35,1.5-2,.95-5-5-5.9-6.91-4-4.39-4.3-5.23,3.61-3.32,4.62-3.72S181.73,248.44,181.73,248.44Z"/><path class="cls-9" d="M174.06,189.36a12.11,12.11,0,0,0,.7,2.51,19.64,19.64,0,0,1,1.19,2.64c.08.28.57,2.27.66,2.52s-.49.64-.87.11a16.9,16.9,0,0,1-.84-2c-.17-.42-.7-1.73-.84-1.49a15.29,15.29,0,0,0-.13,2.45,14.61,14.61,0,0,0,.4,2.43c.13.57.9,3,.59,3.12s-.56.1-1-.55c0,0-.63.35-1-.45,0,0-.56.21-.91-.83a1.37,1.37,0,0,1-.55-.59,22.35,22.35,0,0,1-1.06-4.85c0-1.3.31-2.21.25-3.12a23.64,23.64,0,0,0-.52-2.88Z"/><polygon class="cls-34" points="179.49 243.92 178.31 244.44 181.73 248.44 182.86 247.19 179.49 243.92"/><path class="cls-33" d="M191.43,252.3a12.42,12.42,0,0,1-1.4,2.56c-.64.73-3.1,2-3.11,4.19,0,2.34,4.14,1.69,5.77,1.61s1.75-1.34,2.43-2.67,1.37-1.1,1.5-2.17a13.63,13.63,0,0,0-.52-3.46Z"/><path class="cls-34" d="M191.36,251.63l-.12,1.11a8.44,8.44,0,0,0,5,.09l-.14-1.51Z"/><path class="cls-35" d="M205.54,223.41c0-2.89-2.11-28.07-2-29,.06-.63-.61-6.66-1.08-10.78l0-.11v0c-.13-1.16-.25-2.16-.33-2.83,0-.3-.06-.55-.08-.7a1.29,1.29,0,0,1,0-.19s-13.6-2.68-20.64-.15c-.3.11-.58.22-.85.35l0,.34c-.07.52-.22,1.61-.41,3.09,0,.25-.07.51-.11.78a73.36,73.36,0,0,0,1.4,24.29c1.72,8.29,2.67,14.49,2.85,15.69.23,1.58.92,5.93,1.69,10.69-3.74,4.62-6.93,8.54-6.69,8.93.59,1,5.84,6.4,6.12,5.44l2.44-2.79.79,4.91s5.76,1.37,7.87.12c0,0-.83-6.32-1.7-13.2C200,231.92,205.54,224.92,205.54,223.41Zm-12.76-2.08c-.07-3.88-1.8-25.6-1.61-25.6.85,0,5.62,20.68,5.8,23.6,0,.59-.71,1.93-1.91,3.68-.54.79-1.18,1.66-1.88,2.6h0C192.94,223.48,192.79,221.91,192.78,221.33Z"/><path class="cls-24" d="M207.81,143.72l-3.66,13.12c-.12.42-.27.95-.43,1.56v0h0a51.28,51.28,0,0,0-1.59,9.86c-.15,2.7.35,13.55.35,13.55a36.3,36.3,0,0,1-13.81,1.54s-8.9-.2-8.18-5.66c1.92-14.45,0-20.41-.21-21.86,0,0-1.2-7-2.07-12.89,2.51-.94,13.21-4.53,13.21-4.53l5.54.41S205.38,140.93,207.81,143.72Z"/><path class="cls-25" d="M194.19,119.9s5.41.91,4.49,9.38-5.69,7.73-6,7.71-4.81.11-5-10.25C187.63,126.74,187.56,119.08,194.19,119.9Z"/><path class="cls-25" d="M196.56,134.54s-.19,3.49.14,4.24-4.34,3.16-7.25.43a30.09,30.09,0,0,0,.41-5.16C189.67,132.71,196.56,134.54,196.56,134.54Z"/><path class="cls-25" d="M198.79,126.89s.6-.63.81,0-1,3.5-.88,3.63-.12.25-.26.11A31.14,31.14,0,0,1,198.79,126.89Z"/><path class="cls-25" d="M187.69,126.66s-.58-.65-.81,0,.63,3.49.73,3.66c0,0,.19.3.34.16A32.56,32.56,0,0,0,187.69,126.66Z"/><path class="cls-26" d="M199.14,126.17c-.19,1.16-.37,2-.37,2l-.78,1a20.92,20.92,0,0,0-.08-2.63c0-.14-.1-.38-.15-.64a9.28,9.28,0,0,0-.25-1.07c-.1-.26-4.64-1.59-8.68.27a7.35,7.35,0,0,1,0,.74c0,.46-.06,1-.26,1-.39.15-.23,2.67-.23,2.67l-.63-.73s-.18-1.32-.36-2.83h0c0-.35-.08-.72-.12-1.08-.09-1.52.06-4.28,2-5.91,1.34-.57,3.47-1.05,7,0,0,0,.82,0,1,.27C199.6,121.79,199.14,126.17,199.14,126.17Z"/><path class="cls-27" d="M190.23,135.86A3.45,3.45,0,0,0,193.1,137a3.94,3.94,0,0,0,2.88-1.1,3.07,3.07,0,0,1-5.75-.06Z"/><path class="cls-25" d="M188.9,139.28a5.87,5.87,0,0,0,4.2,2.76c1.75.16,3.26-2.06,4-3.14A10.56,10.56,0,0,0,188.9,139.28Z"/><path class="cls-22" d="M196.56,138.1a14.84,14.84,0,0,1-3.46,3l1.47,2.26,2.5-4.46Z"/><path class="cls-22" d="M189.56,138.44a10.13,10.13,0,0,0,3.54,2.66l-1.61,2.32-2.81-4.06Z"/><path class="cls-28" d="M193.1,141.1l1.26,1.91a2.61,2.61,0,0,1-2.55,0Z"/><path class="cls-33" d="M180.18,184.37s6.79,2.5,22.14.14l-.2-2.78s-8.9,2.63-21.67.38Z"/><path class="cls-13" d="M197.07,138.9A168.81,168.81,0,0,0,195.7,161c.21,10.23,7.94,28.8,7.94,28.8s3.38-3.26,4.85-5.11c0,0-5.26-15.17-5.16-17.91s5.93-23.4,5.93-23.4S206,141.25,197.07,138.9Z"/><path class="cls-13" d="M188.54,139.4s0,11.36-.2,21.59-1.57,29.27-1.57,29.27-7.56-1.2-9-3c0,0,3.06-17.7,3-20.44s-4.93-22.87-4.93-22.87S178.59,142.05,188.54,139.4Z"/><rect class="cls-36" x="189.44" y="182.59" width="4.17" height="3.1"/><path class="cls-28" d="M192.51,142.53s-1.86,6.36-2,19,.23,16.25.23,16.25l1.45,2.88,1.94-3s-.62-29.06-.26-34.89Z"/><path class="cls-9" d="M203.22,189.9a2.77,2.77,0,0,0,.58-.52s.19-.41.35-.69l.13-.22a3.82,3.82,0,0,0,.75-1.15,23.53,23.53,0,0,0,.38-3.17l-1.6-.47-1.42-.63A30.16,30.16,0,0,0,199,186l-.07.14a4.72,4.72,0,0,0-.14,1.08c0,.09-.17,1,0,1.19a1.11,1.11,0,0,0,.91.32,2.47,2.47,0,0,0,1.17.56,1.6,1.6,0,0,0,1.26.38S202.79,190.07,203.22,189.9Z"/><path class="cls-13" d="M201.18,182.77a16.86,16.86,0,0,0,5.19,2.92s10-16.37,10.18-17.55-5-23.36-7.29-24.77l-4.18,12.24c.28-.08,4.76,9.31,4.77,10.51C209.88,167.74,201.18,182.77,201.18,182.77Z"/><path class="cls-13" d="M175.24,191.58a25.26,25.26,0,0,1-5.52.23s1.27-21,1.14-22.19,2.62-24.31,4.92-25.72l4.11,12.37c-.28-.08-2.75,12.66-2.77,13.87C177.09,171.76,175.24,191.58,175.24,191.58Z"/><polygon class="cls-35" points="198.55 185.09 205 188.44 202.47 193.14 196.97 187.26 198.55 185.09"/><path class="cls-33" d="M195.06,223l-.65,12.78-1.23-10.18h0C193.88,224.67,194.52,223.8,195.06,223Z"/><rect class="cls-30" x="162.56" y="67.7" width="3.77" height="12.36"/><path class="cls-8" d="M301.36,150a17.47,17.47,0,1,1-17.47-17.46A17.47,17.47,0,0,1,301.36,150Z"/><rect class="cls-30" x="156.38" y="71.16" width="3.77" height="8.89"/><rect class="cls-30" x="168.74" y="61.97" width="3.77" height="18.08"/><rect class="cls-37" x="325.75" y="200.07" width="24.24" height="1.44" transform="translate(675.73 401.59) rotate(180)"/><rect class="cls-14" x="344.61" y="205.26" width="2.12" height="65.44"/><rect class="cls-38" x="312.69" y="199.67" width="16.85" height="2.06" transform="translate(642.23 401.39) rotate(180)"/><rect class="cls-39" x="317.93" y="182.13" width="6.38" height="19.38" transform="translate(642.23 383.65) rotate(180)"/><rect class="cls-15" x="265.33" y="201.54" width="93.35" height="3.72" transform="translate(624.01 406.79) rotate(180)"/><path class="cls-40" d="M376.6,179s1,14.31-1.78,16c-1.75,1.07-8.74,4.69-8.53,5.37s3.94,6,3.94,6,13.42-8.84,13.86-11.62-.66-21-2.51-21.81c-1.38-.63-2.11-.11-3.85,1.19C375.29,176,376.6,179,376.6,179Z"/><path class="cls-31" d="M360.08,261.76s.42,2.9.47,3.33,4.65-.25,4.65-.25l.37-3.45S360.66,261.35,360.08,261.76Z"/><path class="cls-35" d="M360.5,264.72a12.26,12.26,0,0,1-2.86,2.51c-1.4.76-3.62,1.06-4.45,1.85-.6.57-2.18,3,3.66,3s8.66.34,9.28-.6-.9-6.92-.9-6.92A12.31,12.31,0,0,1,360.5,264.72Z"/><path class="cls-31" d="M330.67,261.79s.42,2.89.47,3.33,4.64-.26,4.64-.26l.37-3.45S331.24,261.38,330.67,261.79Z"/><path class="cls-35" d="M331.09,264.75a12.26,12.26,0,0,1-2.86,2.51c-1.41.76-6.59,1.38-7.42,2.17-.6.57-1.6,2.86,6.63,2.64,5.84-.15,8.66.35,9.28-.59s-.9-6.93-.9-6.93S334.51,265.09,331.09,264.75Z"/><path class="cls-35" d="M374.89,211.72s-16.69,2.82-20.46,3.41-24.21,5.68-26.77,7.23c-2,1.23,1.07,30.86,1.8,42.17h8.05l.58-33.91c9.66.24,16.56-2.26,23.59-1.19s12.9,2.58,17.37-3.41C379.05,226,379.22,213,374.89,211.72Z"/><path class="cls-35" d="M358.44,264.55l7.84-.48.77-33.45a47.86,47.86,0,0,0,8.95-.57l6.33-14.72c-5.55,1.1-23.33,5.59-25.71,7C354.59,223.59,357.71,253.25,358.44,264.55Z"/><path class="cls-9" d="M367.21,149.15s-6.12-1.69-8.46,3.06-1.27,13.76,1.81,14.6,7.52-.13,8.8-3.08,2.3-7.16,2-9.88S368.83,149.8,367.21,149.15Z"/><path class="cls-9" d="M362.16,165.87s.07,3.61-.33,4.38,8.52.57,8.52.57a18,18,0,0,1-.61-8C370.53,159.13,362.16,165.87,362.16,165.87Z"/><path class="cls-41" d="M370.22,161.42s-.47,1-2.78.82-5.36-3-6.34-3.19-1-.81-1-.81l-.52.92-1,.15s.69-2.79-.8-3.77.67-8.9,8.2-7c0,0,5.74,1,5.82,4.26S371.34,159.72,370.22,161.42Z"/><path class="cls-37" d="M361.36,170.15s0-1.47.69-1.61,7-1,7.83-.69l.35,1.94S368.66,170.76,361.36,170.15Z"/><path class="cls-9" d="M359.53,157.58c.17-1.2,1.54-2.59,2.32-.71s-.53,4.61-1.41,4.47S359.29,159.22,359.53,157.58Z"/><path class="cls-13" d="M334.79,187.54h0S334.75,187.56,334.79,187.54Z"/><path class="cls-41" d="M369,150s7.46-.35,1.3,11.3Z"/><polygon class="cls-16" points="385.61 268.52 385.06 270.08 361.61 262.82 362.73 259.66 385.61 268.52"/><rect class="cls-16" x="360.81" y="236.21" width="2.67" height="25.49" transform="translate(724.28 497.92) rotate(180)"/><rect class="cls-5" x="354.28" y="234.86" width="15.72" height="1.5" transform="translate(724.28 471.22) rotate(180)"/><polygon class="cls-16" points="338.46 268.52 339.01 270.08 362.46 262.82 361.43 259.46 338.46 268.52"/><polygon class="cls-16" points="354.98 269.92 354.98 271.73 362.46 262.82 361.43 259.46 354.98 269.92"/><path class="cls-23" d="M336.27,270.69a2.19,2.19,0,1,0,2.19-2.19A2.19,2.19,0,0,0,336.27,270.69Z"/><path class="cls-23" d="M354.79,270.69A2.2,2.2,0,1,0,357,268.5,2.19,2.19,0,0,0,354.79,270.69Z"/><path class="cls-23" d="M383.42,270.69a2.19,2.19,0,1,0,2.19-2.19A2.19,2.19,0,0,0,383.42,270.69Z"/><path class="cls-37" d="M346.26,229.17h31.55a2.84,2.84,0,0,1,2.84,2.84v0a2.85,2.85,0,0,1-2.85,2.85H346.26a2.84,2.84,0,0,1-2.84-2.84v0a2.84,2.84,0,0,1,2.84-2.84Z" transform="translate(724.07 464.03) rotate(180)"/><rect class="cls-14" x="277.27" y="205.26" width="2.12" height="65.44" transform="translate(556.67 475.95) rotate(180)"/><rect class="cls-42" x="293.57" y="152.6" width="55.09" height="38.87" rx="3.78" transform="translate(642.23 344.07) rotate(180)"/><rect class="cls-29" x="295.73" y="154.7" width="50.78" height="30.67" transform="translate(642.23 340.08) rotate(180)"/><rect class="cls-43" x="295.73" y="154.7" width="50.78" height="2.44" transform="translate(642.23 311.85) rotate(180)"/><rect class="cls-43" x="297.6" y="158.98" width="6.12" height="24.51" rx="2.34" transform="translate(601.33 342.47) rotate(180)"/><path class="cls-43" d="M335,159h8.9a1.13,1.13,0,0,1,1.13,1.13v0a1.14,1.14,0,0,1-1.14,1.14H335a1.14,1.14,0,0,1-1.14-1.14v0A1.13,1.13,0,0,1,335,159Z" transform="translate(678.97 320.23) rotate(-180)"/><rect class="cls-43" x="333.9" y="162.77" width="11.17" height="21.34" rx="2.61" transform="translate(678.97 346.89) rotate(180)"/><path class="cls-5" d="M319.34,188.24a1.78,1.78,0,1,0,1.78-1.77A1.78,1.78,0,0,0,319.34,188.24Z"/><path class="cls-36" d="M309.71,201.59v-.69s1-4.31,7.85-4.31,6.74,5,6.74,5Z"/><path class="cls-9" d="M324.38,197.23a6.73,6.73,0,0,1-2-.44c-.55-.33-3.82-2.54-4.59-2.18s-5.89,1.92-5.71,2.66.65.68,1,.55a26.7,26.7,0,0,1,4.41-.78s-3.65,1.33-3.67,2.3.77,1.21,1.11,1.58.76,1.28,1.7,1.35,5.54-1.53,6.48-1.6a23.12,23.12,0,0,0,2.82-.1A27.69,27.69,0,0,0,324.38,197.23Z"/><path class="cls-40" d="M351.58,172.19c4.77-.83,9.78-2,9.78-2l8.87-.36s8.15,1.79,11.35,3.24c.31.14.31,7.27,1.14,9.14l-2.66,5.61s-1.53,11.11-1.85,16.05c-.15,2.27.41,21.92.41,21.92s-.79.39-6.85,1.06-21.18-.24-21.28-.95,2.93-26.64,3.07-28c.2-2.06-.6-11.57-.6-11.57-1.14,1.53-4,8.45-7.08,11.74-1.78,1.94-10.61,3.13-12.28,3.18-3.62.12-10.23.84-10.42.49s-.58-5.87-.17-6,12.64-.83,15.78-2.5c1.15-.61,4.59-8.11,4.59-8.11S349,173.37,351.58,172.19Z"/><rect class="cls-37" x="363.67" y="189.62" width="25.68" height="35.57" rx="7.28" transform="translate(753.03 414.8) rotate(180)"/><path class="cls-37" d="M368.22,233.44a11.75,11.75,0,0,0,9.13-3.78c5.14-5.67,4.21-15.63,4.17-16a1.43,1.43,0,0,0-2.84.28c0,.11.83,9.15-3.45,13.86a8.9,8.9,0,0,1-7,2.83,1.43,1.43,0,0,0,0,2.86Z"/><path class="cls-8" d="M321.85,167.24a7.15,7.15,0,0,1-1.68,4.62,6.8,6.8,0,0,1-.8.81l-.25.21-.3.22a7.1,7.1,0,0,1-3.26,1.26c-.21,0-.43,0-.64,0h-.24q-.35,0-.69,0a6,6,0,0,1-.74-.11,7.06,7.06,0,0,1-3.66-2l-.13-.13c-.16-.17-.31-.35-.46-.53a7.17,7.17,0,1,1,12.85-4.39Z"/><path class="cls-24" d="M319.35,171.2l-.53,1.9a7.1,7.1,0,0,1-3.26,1.26c-.21,0-.43,0-.64,0h-.24q-.35,0-.69,0a6,6,0,0,1-.74-.11,7.18,7.18,0,0,1-2.94-1.34c-.1-.62-.21-1.32-.3-2,.53-.2,2.2-.77,3.26-1.12l.05,0,.06,0,.18-.06.17-.06.42-.14h0l1.42.11.24,0H316l.66.19h0A7,7,0,0,1,319.35,171.2Z"/><path class="cls-25" d="M315.05,163.68s1.71.29,1.42,3-1.8,2.44-1.9,2.44-1.51,0-1.59-3.24C313,165.84,313,163.42,315.05,163.68Z"/><path class="cls-25" d="M315.8,168.3a5.84,5.84,0,0,0,.05,1.34c.1.24-1.37,1-2.29.13a10.18,10.18,0,0,0,.13-1.62C313.63,167.72,315.8,168.3,315.8,168.3Z"/><path class="cls-25" d="M316.51,165.89s.19-.2.25,0-.3,1.11-.28,1.15,0,.08-.08,0A10.76,10.76,0,0,1,316.51,165.89Z"/><path class="cls-25" d="M313,165.81s-.18-.2-.25,0A3.34,3.34,0,0,0,313,167s.06.1.1.06A9.22,9.22,0,0,0,313,165.81Z"/><path class="cls-26" d="M316.62,165.66c-.06.36-.12.64-.12.64l-.25.32a6.1,6.1,0,0,0,0-.83l-.05-.2c0-.13-.06-.29-.08-.34a3.65,3.65,0,0,0-2.74.09s0,.11,0,.23,0,.31-.08.33-.07.84-.07.84l-.2-.23-.11-.89h0c0-.12,0-.23,0-.34a2.25,2.25,0,0,1,.64-1.87,3.11,3.11,0,0,1,2.22,0,.78.78,0,0,1,.33.09A3.18,3.18,0,0,1,316.62,165.66Z"/><path class="cls-27" d="M313.8,168.72a1.09,1.09,0,0,0,.91.36,1.24,1.24,0,0,0,.91-.34,1.12,1.12,0,0,1-.91.62A1.14,1.14,0,0,1,313.8,168.72Z"/><path class="cls-25" d="M313.38,169.8a1.88,1.88,0,0,0,1.33.87c.55.05,1-.65,1.25-1A3.33,3.33,0,0,0,313.38,169.8Z"/><path class="cls-22" d="M315.8,169.42a4.76,4.76,0,0,1-1.09,1l.46.71.79-1.4Z"/><path class="cls-22" d="M313.59,169.53a3.19,3.19,0,0,0,1.12.84l-.51.74-.88-1.29Z"/><path class="cls-28" d="M314.71,170.37l.4.6a.83.83,0,0,1-.81,0Z"/><path class="cls-13" d="M319.81,171.09s-.43,1.55-.44,1.58l-.25.21-.3.22a7.1,7.1,0,0,1-3.26,1.26c.11-2.48.4-4.68.4-4.68l.66.18h0A15.82,15.82,0,0,1,319.81,171.09Z"/><path class="cls-13" d="M313.25,174.27a7.06,7.06,0,0,1-3.66-2l-.13-.13c-.13-.53-.21-.88-.21-.9h0a16.21,16.21,0,0,1,4-1.42h0C313.27,169.91,313.27,171.92,313.25,174.27Z"/><path class="cls-28" d="M314.94,171c0,.65,0,1.92,0,3.37h-.24q-.35,0-.69,0a21.56,21.56,0,0,1,.48-3.34c0-.15,0-.22,0-.22l.43.07A.76.76,0,0,0,314.94,171Z"/><path class="cls-13" d="M320.17,171.86a6.8,6.8,0,0,1-.8.81l-.25.21.69-1.79C320,171.19,320.09,171.67,320.17,171.86Z"/><path class="cls-13" d="M309.59,172.29l-.13-.13c-.16-.17-.31-.35-.46-.53a.9.9,0,0,1,.25-.38h0Z"/><path class="cls-5" d="M283.89,157a.88.88,0,0,1-.88-.88V143.93a.88.88,0,0,1,1.76,0V156.1A.88.88,0,0,1,283.89,157Z"/><path class="cls-5" d="M290,150.89H277.81a.88.88,0,0,1,0-1.76H290a.88.88,0,0,1,0,1.76Z"/></g></g></svg>