<svg xmlns="http://www.w3.org/2000/svg" xmlns:xlink="http://www.w3.org/1999/xlink" viewBox="0 0 421.14 300.4"><defs><style>.cls-1{isolation:isolate;}.cls-2,.cls-53{opacity:0.2;}.cls-3,.cls-68{fill:#ec0c8c;}.cls-3,.cls-4{opacity:0.59;}.cls-29,.cls-4{fill:#003d7c;}.cls-5{fill:#b3c5d8;}.cls-6{fill:#ccd8e5;}.cls-7{fill:#734ea1;}.cls-8{fill:#6a429a;}.cls-9{fill:#cdbfdd;}.cls-10{fill:url(#linear-gradient);}.cls-11{fill:#a790c4;}.cls-12{fill:#b49fcc;}.cls-13{fill:#fed47a;}.cls-14{fill:#f03da3;}.cls-15,.cls-53,.cls-54,.cls-64{fill:#fff;}.cls-16{fill:#e6ecf2;}.cls-17{opacity:0.6;}.cls-18,.cls-54{opacity:0.4;}.cls-19{fill:#8564ac;}.cls-19,.cls-23,.cls-28,.cls-43{opacity:0.5;}.cls-20,.cls-47{fill:#ebeff5;}.cls-21{fill:#442312;}.cls-22{fill:#5a3d2e;}.cls-23,.cls-24,.cls-25{fill:#f9f7fb;}.cls-24{opacity:0.75;}.cls-26{fill:#dfdad7;}.cls-27,.cls-28{fill:#fad2a8;}.cls-30,.cls-46{fill:#edf1f6;}.cls-31{fill:#1a5089;}.cls-32{fill:#0d4783;}.cls-33{fill:#144d86;}.cls-34{fill:#735a4d;}.cls-35{fill:#295c91;}.cls-36{fill:#141414;}.cls-37{fill:#623895;}.cls-38{fill:#786154;}.cls-39{fill:#bfb4ae;}.cls-40{fill:#8b776c;}.cls-41{fill:#826c60;}.cls-42{fill:#684d3f;}.cls-43{fill:#406e9d;}.cls-44{fill:#dee6ee;}.cls-44,.cls-46{opacity:0.39;}.cls-45{fill:#ddd7d4;}.cls-47{mix-blend-mode:color-burn;}.cls-48{fill:#d6e0ea;}.cls-49{fill:#cbbddc;}.cls-50{fill:#7b58a6;}.cls-51{fill:#8666ad;}.cls-52{fill:#9e84bd;}.cls-55{fill:#fec752;}.cls-56{fill:#bdabd2;}.cls-57{fill:#dbd1e7;}.cls-58{fill:#8cc152;}.cls-59,.cls-60{fill:#c0dda0;}.cls-60,.cls-63{opacity:0.3;}.cls-61{fill:#c2b1d6;}.cls-62,.cls-63{fill:#e3dbec;}.cls-64{opacity:0.1;}.cls-65{fill:#b8a5cf;}.cls-66{fill:#c3b3d7;}.cls-67{fill:#feb721;}</style><linearGradient id="linear-gradient" x1="192.15" y1="98.14" x2="219.74" y2="98.14" gradientUnits="userSpaceOnUse"><stop offset="0" stop-color="#92278f"/><stop offset="1" stop-color="#2bb673"/></linearGradient></defs><title>Asset 1</title><g class="cls-1"><g id="Layer_2" data-name="Layer 2"><g id="Layer_5" data-name="Layer 5" class="cls-2"><path class="cls-3" d="M147.4,151c36.22-27.76,82.2-37.6,127.83-37.6,144.88,0,147,131.09,145.75,136.65-1.25,5.77-4.62,10.87-8.43,15.39-23.61,28.07-63.63,36.79-100.25,34.59s-72.09-13.43-108.5-17.92c-29-3.58-58.26-2.6-87.16,1.73C99.2,286.49,64.56,292.13,62.09,266c-1.8-19.15,19.13-41.76,29.46-56C107.51,188,125.78,167.61,147.4,151Z"/><path class="cls-4" d="M111.35,95c43.13-21.88,93-23.2,140.5-14.33,151,28.16,127.65,165.15,125.31,170.71-2.43,5.77-6.93,10.42-11.77,14.4-30.06,24.66-73.46,26-111.19,16.56s-72.51-28-109.57-39.76c-29.56-9.38-60.2-14-91.15-15.14C34.79,226.78-2.4,225.93.12,198.16c1.84-20.3,28.05-39.79,41.57-52.61C62.6,125.74,85.59,108.07,111.35,95Z"/></g><g id="OBJECTS"><path class="cls-5" d="M228.35,43.87l-.9.55c-1.34.8-2.32.1-1.95-1.41h0c.17-.76.07-1.45-1-1.64a1.69,1.69,0,0,0-1.14.3A4.54,4.54,0,0,0,221.31,45a1.64,1.64,0,0,0,.07.46h0c.37,1.07-.6,2.94-2,3.75l-.9.54a4,4,0,0,0-1.88,3v.35L230.23,45v-.35C230.23,43.59,229.39,43.25,228.35,43.87Zm-4.91,1c-.62.37-1.11.17-1.11-.44a2.35,2.35,0,0,1,1.11-1.77c.61-.37,1.1-.17,1.1.44A2.36,2.36,0,0,1,223.44,44.85Z"/><path class="cls-6" d="M240,43.76,206.91,63.62v-.85c0-2.52,2-5.79,4.56-7.3L235.4,41.09c2.52-1.51,4.56-.7,4.56,1.82Z"/><path class="cls-7" d="M262.39,31.77l-2-.83h0a1.75,1.75,0,0,0-1.58.13L184.48,76.74A5,5,0,0,0,182.11,81V202a2.07,2.07,0,0,0,1.06,1.81h0a2.62,2.62,0,0,0,.46.19l1.55.63.62-1.19,73.75-45.33a4.07,4.07,0,0,0,1.94-3.46V32.59a1.55,1.55,0,0,0-.13-.61l.79.22Z"/><path class="cls-8" d="M263.42,33.38V155.47a4.08,4.08,0,0,1-1.94,3.47L187.2,204.59a2.07,2.07,0,0,1-3.16-1.76V81.75a5,5,0,0,1,2.37-4.23L260.7,31.86A1.79,1.79,0,0,1,263.42,33.38Z"/><path class="cls-9" d="M260.7,36.45V154.79a1.53,1.53,0,0,1-.72,1.3l-72.17,44.35a.69.69,0,0,1-1.05-.59V81.69a2.24,2.24,0,0,1,1.05-1.89l71.66-44A.81.81,0,0,1,260.7,36.45Z"/><path class="cls-10" d="M219.74,67.69v44.14a.57.57,0,0,1-.27.48l-26.92,16.55a.27.27,0,0,1-.4-.22V84.56a.82.82,0,0,1,.4-.7l26.73-16.43A.3.3,0,0,1,219.74,67.69Z"/><path class="cls-11" d="M219.74,120.16v4.23a.57.57,0,0,1-.27.48l-26.92,16.55a.27.27,0,0,1-.4-.22V137a.81.81,0,0,1,.4-.7l26.73-16.43A.3.3,0,0,1,219.74,120.16Z"/><path class="cls-12" d="M216.92,106.23v3.37a.44.44,0,0,1-.22.38l-21.41,13.16A.21.21,0,0,1,195,123v-3.31a.65.65,0,0,1,.32-.56L216.55,106A.24.24,0,0,1,216.92,106.23Z"/><path class="cls-11" d="M219.74,128.93v4.24a.59.59,0,0,1-.27.48l-26.92,16.54a.26.26,0,0,1-.4-.22v-4.16a.83.83,0,0,1,.4-.71l26.73-16.42A.3.3,0,0,1,219.74,128.93Z"/><path class="cls-11" d="M213.61,141.47v4.23a.58.58,0,0,1-.27.49L192.55,159a.26.26,0,0,1-.4-.22v-4.16a.83.83,0,0,1,.4-.71l20.6-12.67A.3.3,0,0,1,213.61,141.47Z"/><path class="cls-11" d="M249.11,114.69v4.23a.58.58,0,0,1-.27.49l-20.79,12.78a.26.26,0,0,1-.4-.22v-4.16a.83.83,0,0,1,.4-.71l20.6-12.67A.3.3,0,0,1,249.11,114.69Z"/><path class="cls-11" d="M249.11,127.16v4.23a.55.55,0,0,1-.27.48l-20.79,12.79a.26.26,0,0,1-.4-.22v-4.17a.82.82,0,0,1,.4-.7l20.6-12.67A.3.3,0,0,1,249.11,127.16Z"/><path class="cls-11" d="M219.74,146.49v4.23a.57.57,0,0,1-.27.48l-26.92,16.55a.27.27,0,0,1-.4-.22v-4.17a.81.81,0,0,1,.4-.7l26.73-16.43A.3.3,0,0,1,219.74,146.49Z"/><path class="cls-11" d="M200.85,173.17v6.13a.84.84,0,0,1-.39.71l-5.71,3.46a.37.37,0,0,1-.57-.32v-6a1.19,1.19,0,0,1,.57-1l5.43-3.3A.44.44,0,0,1,200.85,173.17Z"/><path class="cls-13" d="M210.29,167.4v6.13a.8.8,0,0,1-.39.7l-5.71,3.47a.37.37,0,0,1-.57-.32v-6a1.19,1.19,0,0,1,.57-1l5.44-3.3A.43.43,0,0,1,210.29,167.4Z"/><path class="cls-14" d="M219.74,161.63v6.13a.81.81,0,0,1-.4.7l-5.7,3.47a.38.38,0,0,1-.57-.32v-6a1.2,1.2,0,0,1,.57-1l5.43-3.29A.44.44,0,0,1,219.74,161.63Z"/><path class="cls-11" d="M244.39,52.93v1.61a.56.56,0,0,1-.27.48l-18,11.09a.26.26,0,0,1-.39-.22V64.34a.84.84,0,0,1,.39-.7l17.84-11A.3.3,0,0,1,244.39,52.93Z"/><path class="cls-11" d="M237.77,61.66v1.61a.58.58,0,0,1-.27.49l-11.41,7.05a.26.26,0,0,1-.39-.22V69.05a.82.82,0,0,1,.39-.7l11.22-6.94A.3.3,0,0,1,237.77,61.66Z"/><path class="cls-11" d="M253.28,56.88v1.61A.55.55,0,0,1,253,59L226.09,75.52a.26.26,0,0,1-.39-.22V73.75a.84.84,0,0,1,.39-.7l26.73-16.43A.3.3,0,0,1,253.28,56.88Z"/><path class="cls-11" d="M250.88,63v1.61a.56.56,0,0,1-.27.48L226.09,80.22a.26.26,0,0,1-.39-.22V78.46a.84.84,0,0,1,.39-.71l24.33-15A.3.3,0,0,1,250.88,63Z"/><path class="cls-11" d="M240.19,74.32v1.61a.58.58,0,0,1-.28.49l-13.82,8.51a.26.26,0,0,1-.39-.22V83.16a.84.84,0,0,1,.39-.7l13.64-8.39A.3.3,0,0,1,240.19,74.32Z"/><path class="cls-11" d="M253.28,71V72.6a.58.58,0,0,1-.27.49L226.09,89.63a.26.26,0,0,1-.39-.22V87.87a.84.84,0,0,1,.39-.71l26.73-16.42A.3.3,0,0,1,253.28,71Z"/><path class="cls-11" d="M253.28,75.7v1.61a.55.55,0,0,1-.27.48L226.09,94.34a.26.26,0,0,1-.39-.23V92.57a.84.84,0,0,1,.39-.7l26.73-16.43A.3.3,0,0,1,253.28,75.7Z"/><path class="cls-11" d="M246.82,84.4V86a.56.56,0,0,1-.27.48L226.09,99a.26.26,0,0,1-.39-.22V97.28a.84.84,0,0,1,.39-.71l20.27-12.43A.3.3,0,0,1,246.82,84.4Z"/><path class="cls-11" d="M253.28,85.11v1.61a.56.56,0,0,1-.27.48l-26.92,16.54a.25.25,0,0,1-.39-.22V102a.82.82,0,0,1,.39-.7l26.73-16.43A.3.3,0,0,1,253.28,85.11Z"/><path class="cls-11" d="M253.28,89.81v1.61a.58.58,0,0,1-.27.49l-26.92,16.54a.26.26,0,0,1-.39-.22v-1.54a.84.84,0,0,1,.39-.71l26.73-16.43A.31.31,0,0,1,253.28,89.81Z"/><path class="cls-15" d="M210.48,87.08c0,2.5-2,7.62-4.53,9.19s-4.54-1-4.54-3.53,2-5.8,4.54-7.36S210.48,84.58,210.48,87.08Z"/><path class="cls-15" d="M216.92,101.11v.73L195,115.55v-.73c0-6.06,4.92-14,11-17.83,3-1.89,5.77-2.38,7.75-1.63S216.92,98.08,216.92,101.11Z"/><path class="cls-15" d="M242.22,44.85l-33,19.85v-.85c0-2.51,2-5.78,4.56-7.3l23.92-14.37c2.52-1.52,4.56-.7,4.56,1.82Z"/><path class="cls-16" d="M230.62,45l-.91.54c-1.34.81-2.31.11-2-1.4h0c.17-.76.08-1.45-1-1.64a1.64,1.64,0,0,0-1.14.29,4.55,4.55,0,0,0-2,3.36,1.65,1.65,0,0,0,.06.46h0c.37,1.08-.6,3-1.94,3.75l-.91.55a4,4,0,0,0-1.87,3v.35l13.58-8.16v-.35C232.49,44.67,231.65,44.34,230.62,45Zm-4.92,1c-.61.36-1.11.17-1.11-.44a2.36,2.36,0,0,1,1.11-1.77c.61-.37,1.11-.17,1.11.44A2.38,2.38,0,0,1,225.7,45.94Z"/><path class="cls-11" d="M253.28,66.23v1.6a.57.57,0,0,1-.27.49l-11,6.86a.26.26,0,0,1-.4-.22V73.42a.82.82,0,0,1,.4-.7L252.82,66A.3.3,0,0,1,253.28,66.23Z"/><g class="cls-17"><path class="cls-5" d="M304.83,21l-.63.38c-.92.55-1.6.07-1.34-1h0c.12-.52.06-1-.68-1.13a1.15,1.15,0,0,0-.79.2A3.14,3.14,0,0,0,300,21.82a1.37,1.37,0,0,0,0,.31h0a2.69,2.69,0,0,1-1.35,2.59l-.62.38a2.76,2.76,0,0,0-1.3,2.07v.25l9.4-5.65v-.24C306.13,20.82,305.55,20.59,304.83,21Zm-3.4.68c-.42.25-.77.11-.77-.31a1.64,1.64,0,0,1,.77-1.22c.42-.26.77-.12.77.3A1.67,1.67,0,0,1,301.43,21.7Z"/><path class="cls-6" d="M312.86,20.94,290,34.67v-.58A6.73,6.73,0,0,1,293.16,29L309.7,19.1c1.75-1.05,3.16-.49,3.16,1.25Z"/><path class="cls-7" d="M328.38,12.65,327,12.07h0a1.21,1.21,0,0,0-1.09.09L274.49,43.75a3.44,3.44,0,0,0-1.64,2.93v83.74a1.43,1.43,0,0,0,.73,1.25h0a1.79,1.79,0,0,0,.32.13l1.07.44.43-.83,51-31.35a2.82,2.82,0,0,0,1.34-2.39V13.22a1.18,1.18,0,0,0-.09-.43l.54.16Z"/><path class="cls-8" d="M329.08,13.76V98.21a2.83,2.83,0,0,1-1.34,2.4l-51.38,31.57a1.43,1.43,0,0,1-2.18-1.22V47.22a3.45,3.45,0,0,1,1.64-2.93l51.39-31.58A1.23,1.23,0,0,1,329.08,13.76Z"/><path class="cls-9" d="M327.21,15.89V97.74a1,1,0,0,1-.51.89l-49.91,30.68a.48.48,0,0,1-.73-.41V47.18a1.54,1.54,0,0,1,.73-1.31l49.56-30.46A.56.56,0,0,1,327.21,15.89Z"/><path class="cls-11" d="M298.87,37.49V68a.39.39,0,0,1-.19.34L280.07,79.8a.18.18,0,0,1-.28-.15V49.16a.56.56,0,0,1,.28-.48l18.48-11.37A.21.21,0,0,1,298.87,37.49Z"/><path class="cls-11" d="M298.87,73.78v2.93a.37.37,0,0,1-.19.33L280.07,88.49a.19.19,0,0,1-.28-.16V85.45a.57.57,0,0,1,.28-.48L298.55,73.6A.21.21,0,0,1,298.87,73.78Z"/><path class="cls-12" d="M296.92,64.15v2.33a.3.3,0,0,1-.15.26L282,75.85a.14.14,0,0,1-.22-.12V73.44a.47.47,0,0,1,.22-.39l14.71-9A.16.16,0,0,1,296.92,64.15Z"/><path class="cls-11" d="M298.87,79.85v2.93a.37.37,0,0,1-.19.33L280.07,94.56a.19.19,0,0,1-.28-.16V91.52a.57.57,0,0,1,.28-.48l18.48-11.36A.21.21,0,0,1,298.87,79.85Z"/><path class="cls-11" d="M294.64,88.52v2.93a.37.37,0,0,1-.19.33l-14.38,8.85a.19.19,0,0,1-.28-.16V97.59a.57.57,0,0,1,.28-.48l14.25-8.76A.21.21,0,0,1,294.64,88.52Z"/><path class="cls-11" d="M319.19,70v2.93a.39.39,0,0,1-.19.33L304.62,82.1a.17.17,0,0,1-.27-.15V79.07a.58.58,0,0,1,.27-.49l14.25-8.76A.21.21,0,0,1,319.19,70Z"/><path class="cls-11" d="M319.19,78.62v2.93a.4.4,0,0,1-.19.34l-14.38,8.84a.18.18,0,0,1-.27-.16V87.7a.57.57,0,0,1,.27-.49l14.25-8.76A.21.21,0,0,1,319.19,78.62Z"/><path class="cls-11" d="M298.87,92v2.93a.4.4,0,0,1-.19.34L280.07,106.7a.19.19,0,0,1-.28-.16v-2.87a.58.58,0,0,1,.28-.49l18.48-11.36A.21.21,0,0,1,298.87,92Z"/><path class="cls-11" d="M285.81,110.45v4.24a.58.58,0,0,1-.27.49l-4,2.39a.26.26,0,0,1-.4-.22v-4.17a.83.83,0,0,1,.4-.71l3.76-2.28A.3.3,0,0,1,285.81,110.45Z"/><path class="cls-13" d="M292.34,106.46v4.24a.58.58,0,0,1-.27.49l-3.95,2.39a.26.26,0,0,1-.4-.22v-4.17a.83.83,0,0,1,.4-.71l3.76-2.28A.3.3,0,0,1,292.34,106.46Z"/><path class="cls-14" d="M298.87,102.47v4.24a.55.55,0,0,1-.27.48l-4,2.4a.26.26,0,0,1-.39-.22V105.2a.84.84,0,0,1,.39-.71l3.76-2.28A.3.3,0,0,1,298.87,102.47Z"/><path class="cls-11" d="M315.92,27.28V28.4a.4.4,0,0,1-.18.33L303.27,36.4a.18.18,0,0,1-.28-.15V35.18a.59.59,0,0,1,.28-.49L315.6,27.1A.21.21,0,0,1,315.92,27.28Z"/><path class="cls-11" d="M311.34,33.32v1.12a.4.4,0,0,1-.18.33l-7.89,4.88a.18.18,0,0,1-.28-.15V38.43a.56.56,0,0,1,.28-.48l7.76-4.8A.2.2,0,0,1,311.34,33.32Z"/><path class="cls-11" d="M322.07,30v1.11a.37.37,0,0,1-.19.33L303.27,42.91a.19.19,0,0,1-.28-.16V41.69a.58.58,0,0,1,.28-.49l18.48-11.36A.21.21,0,0,1,322.07,30Z"/><path class="cls-11" d="M320.41,34.26v1.11a.4.4,0,0,1-.18.34l-17,10.45A.18.18,0,0,1,303,46V44.94a.59.59,0,0,1,.28-.49l16.82-10.37A.21.21,0,0,1,320.41,34.26Z"/><path class="cls-11" d="M313,42.08v1.11a.4.4,0,0,1-.18.34l-9.56,5.88a.18.18,0,0,1-.28-.15V48.19a.57.57,0,0,1,.28-.48l9.43-5.81A.21.21,0,0,1,313,42.08Z"/><path class="cls-11" d="M322.07,39.78v1.11a.4.4,0,0,1-.19.34L303.27,52.67a.18.18,0,0,1-.28-.15V51.45a.59.59,0,0,1,.28-.49L321.75,39.6A.21.21,0,0,1,322.07,39.78Z"/><path class="cls-11" d="M322.07,43v1.11a.39.39,0,0,1-.19.34L303.27,55.92a.18.18,0,0,1-.28-.15V54.7a.56.56,0,0,1,.28-.48l18.48-11.37A.21.21,0,0,1,322.07,43Z"/><path class="cls-11" d="M317.6,49.05v1.11a.4.4,0,0,1-.18.34l-14.15,8.68A.19.19,0,0,1,303,59V58a.58.58,0,0,1,.28-.49l14-8.6A.21.21,0,0,1,317.6,49.05Z"/><path class="cls-11" d="M322.07,49.54v1.11a.39.39,0,0,1-.19.34L303.27,62.43a.18.18,0,0,1-.28-.15V61.21a.59.59,0,0,1,.28-.49l18.48-11.36A.21.21,0,0,1,322.07,49.54Z"/><path class="cls-11" d="M322.07,52.79v1.12a.39.39,0,0,1-.19.33L303.27,65.68a.18.18,0,0,1-.28-.15V64.46a.57.57,0,0,1,.28-.48l18.48-11.36A.21.21,0,0,1,322.07,52.79Z"/><path class="cls-15" d="M292.47,50.9c0,1.73-1.41,5.28-3.14,6.36s-3.13-.71-3.13-2.44a6.89,6.89,0,0,1,3.13-5.09C291.06,48.65,292.47,49.17,292.47,50.9Z"/><path class="cls-15" d="M296.92,60.61v.51L281.74,70.6v-.51c0-4.19,3.4-9.71,7.59-12.33,2.1-1.31,4-1.65,5.37-1.13S296.92,58.51,296.92,60.61Z"/><path class="cls-15" d="M314.42,21.69,291.57,35.43v-.59a6.75,6.75,0,0,1,3.15-5.05l16.55-9.94c1.74-1.05,3.15-.49,3.15,1.26Z"/><path class="cls-16" d="M306.4,21.77l-.63.38c-.93.56-1.6.07-1.35-1h0c.12-.52.05-1-.68-1.13a1.18,1.18,0,0,0-.79.2,3.14,3.14,0,0,0-1.42,2.33,1.08,1.08,0,0,0,0,.32h0a2.71,2.71,0,0,1-1.35,2.59l-.63.38a2.78,2.78,0,0,0-1.29,2.07v.25l9.39-5.65v-.24C307.69,21.57,307.11,21.34,306.4,21.77Zm-3.41.68c-.42.25-.76.11-.76-.31a1.62,1.62,0,0,1,.76-1.22c.43-.26.77-.12.77.3A1.64,1.64,0,0,1,303,22.45Z"/><path class="cls-11" d="M322.07,36.48v1.11a.39.39,0,0,1-.19.34l-7.64,4.75a.18.18,0,0,1-.27-.16V41.46a.57.57,0,0,1,.27-.49l7.51-4.67A.21.21,0,0,1,322.07,36.48Z"/></g><g class="cls-18"><path class="cls-5" d="M147.85,117.16l-.62.37c-.93.56-1.6.08-1.35-1h0c.11-.52.05-1-.69-1.13a1.12,1.12,0,0,0-.78.2A3.14,3.14,0,0,0,143,118a1,1,0,0,0,0,.31h0a2.69,2.69,0,0,1-1.34,2.6l-.63.38a2.75,2.75,0,0,0-1.3,2.07v.24l9.4-5.64v-.25C149.15,117,148.57,116.73,147.85,117.16Zm-3.4.67c-.42.26-.76.12-.76-.3a1.66,1.66,0,0,1,.76-1.23c.43-.25.77-.11.77.31A1.61,1.61,0,0,1,144.45,117.83Z"/><path class="cls-6" d="M155.88,117.08,133,130.81v-.58a6.73,6.73,0,0,1,3.16-5l16.55-10c1.74-1,3.15-.48,3.15,1.26Z"/><path class="cls-7" d="M171.4,108.79l-1.41-.58h0a1.2,1.2,0,0,0-1.1.09l-51.38,31.58a3.42,3.42,0,0,0-1.64,2.93v83.74a1.43,1.43,0,0,0,.73,1.25h0l.32.13,1.07.44.43-.83,51-31.35a2.82,2.82,0,0,0,1.34-2.4V109.36a1.18,1.18,0,0,0-.08-.43l.54.15Z"/><path class="cls-8" d="M172.11,109.9v84.45a2.8,2.8,0,0,1-1.35,2.39l-51.37,31.58a1.43,1.43,0,0,1-2.18-1.22V143.36a3.45,3.45,0,0,1,1.63-2.93l51.39-31.58A1.23,1.23,0,0,1,172.11,109.9Z"/><path class="cls-9" d="M170.23,112v81.85a1.05,1.05,0,0,1-.5.9l-49.92,30.68a.48.48,0,0,1-.73-.41V143.31a1.54,1.54,0,0,1,.73-1.3l49.57-30.46A.56.56,0,0,1,170.23,112Z"/><path class="cls-11" d="M141.89,133.63v30.53a.39.39,0,0,1-.18.33l-18.62,11.45a.18.18,0,0,1-.27-.16V145.3a.58.58,0,0,1,.27-.49l18.49-11.36A.21.21,0,0,1,141.89,133.63Z"/><path class="cls-11" d="M141.89,169.92v2.93a.4.4,0,0,1-.18.33l-18.62,11.44a.17.17,0,0,1-.27-.15v-2.88a.58.58,0,0,1,.27-.49l18.49-11.36A.21.21,0,0,1,141.89,169.92Z"/><path class="cls-12" d="M139.94,160.29v2.33a.3.3,0,0,1-.14.26L125,172a.14.14,0,0,1-.21-.13v-2.29a.45.45,0,0,1,.21-.38l14.71-9A.16.16,0,0,1,139.94,160.29Z"/><path class="cls-11" d="M141.89,176v2.93a.4.4,0,0,1-.18.33l-18.62,11.44a.17.17,0,0,1-.27-.15v-2.88a.55.55,0,0,1,.27-.48l18.49-11.37A.21.21,0,0,1,141.89,176Z"/><path class="cls-11" d="M137.66,184.66v2.93a.39.39,0,0,1-.19.33l-14.38,8.84a.17.17,0,0,1-.27-.15v-2.88a.55.55,0,0,1,.27-.48l14.25-8.77A.21.21,0,0,1,137.66,184.66Z"/><path class="cls-11" d="M162.21,166.14v2.92a.39.39,0,0,1-.19.34l-14.38,8.84a.17.17,0,0,1-.27-.15v-2.88a.58.58,0,0,1,.27-.49L161.89,166A.21.21,0,0,1,162.21,166.14Z"/><path class="cls-11" d="M162.21,174.76v2.93a.39.39,0,0,1-.19.33l-14.38,8.85a.18.18,0,0,1-.27-.16v-2.88a.55.55,0,0,1,.27-.48l14.25-8.77A.21.21,0,0,1,162.21,174.76Z"/><path class="cls-11" d="M141.89,188.13v2.93a.4.4,0,0,1-.18.33l-18.62,11.45a.18.18,0,0,1-.27-.16V199.8a.55.55,0,0,1,.27-.48L141.58,188A.21.21,0,0,1,141.89,188.13Z"/><path class="cls-11" d="M128.83,206.59v4.24a.55.55,0,0,1-.27.48l-4,2.4a.26.26,0,0,1-.39-.22v-4.17a.84.84,0,0,1,.39-.71l3.76-2.28A.3.3,0,0,1,128.83,206.59Z"/><path class="cls-13" d="M135.36,202.6v4.24a.55.55,0,0,1-.27.48l-4,2.4a.26.26,0,0,1-.39-.22v-4.17a.84.84,0,0,1,.39-.71l3.76-2.28A.3.3,0,0,1,135.36,202.6Z"/><path class="cls-14" d="M141.89,198.6v4.25a.56.56,0,0,1-.27.48l-3.94,2.4a.26.26,0,0,1-.4-.22v-4.18a.84.84,0,0,1,.39-.7l3.76-2.28A.3.3,0,0,1,141.89,198.6Z"/><path class="cls-11" d="M159,123.42v1.11a.39.39,0,0,1-.19.34l-12.47,7.67a.18.18,0,0,1-.27-.16v-1.06a.57.57,0,0,1,.27-.49l12.34-7.59A.21.21,0,0,1,159,123.42Z"/><path class="cls-11" d="M154.37,129.46v1.12a.39.39,0,0,1-.19.33l-7.89,4.88a.18.18,0,0,1-.27-.15v-1.07a.58.58,0,0,1,.27-.49l7.76-4.8A.21.21,0,0,1,154.37,129.46Z"/><path class="cls-11" d="M165.1,126.15v1.12a.41.41,0,0,1-.19.33L146.29,139a.17.17,0,0,1-.27-.15v-1.07a.56.56,0,0,1,.27-.48L164.78,126A.21.21,0,0,1,165.1,126.15Z"/><path class="cls-11" d="M163.44,130.4v1.11a.4.4,0,0,1-.19.34l-17,10.45a.18.18,0,0,1-.27-.15v-1.07a.58.58,0,0,1,.27-.49l16.83-10.37A.21.21,0,0,1,163.44,130.4Z"/><path class="cls-11" d="M156,138.22v1.11a.39.39,0,0,1-.19.34l-9.56,5.88a.17.17,0,0,1-.27-.15v-1.07a.55.55,0,0,1,.27-.48l9.43-5.81A.21.21,0,0,1,156,138.22Z"/><path class="cls-11" d="M165.1,135.92V137a.4.4,0,0,1-.19.33l-18.62,11.45a.18.18,0,0,1-.27-.16v-1.06a.57.57,0,0,1,.27-.49l18.49-11.36A.21.21,0,0,1,165.1,135.92Z"/><path class="cls-11" d="M165.1,139.17v1.11a.41.41,0,0,1-.19.34l-18.62,11.44a.18.18,0,0,1-.27-.15v-1.07a.58.58,0,0,1,.27-.49L164.78,139A.21.21,0,0,1,165.1,139.17Z"/><path class="cls-11" d="M160.63,145.19v1.11a.37.37,0,0,1-.19.33l-14.15,8.68a.17.17,0,0,1-.27-.15v-1.07a.56.56,0,0,1,.27-.48l14-8.6A.21.21,0,0,1,160.63,145.19Z"/><path class="cls-11" d="M165.1,145.68v1.11a.43.43,0,0,1-.19.34l-18.62,11.44a.18.18,0,0,1-.27-.15v-1.07a.58.58,0,0,1,.27-.49l18.49-11.36A.21.21,0,0,1,165.1,145.68Z"/><path class="cls-11" d="M165.1,148.93V150a.41.41,0,0,1-.19.34l-18.62,11.44a.17.17,0,0,1-.27-.15V160.6a.55.55,0,0,1,.27-.48l18.49-11.37A.21.21,0,0,1,165.1,148.93Z"/><path class="cls-15" d="M135.49,147c0,1.73-1.4,5.27-3.13,6.36s-3.14-.71-3.14-2.44a6.87,6.87,0,0,1,3.14-5.09C134.09,144.78,135.49,145.31,135.49,147Z"/><path class="cls-15" d="M139.94,156.74v.51l-15.17,9.49v-.51c0-4.19,3.39-9.71,7.59-12.33,2.09-1.31,4-1.65,5.36-1.13S139.94,154.65,139.94,156.74Z"/><path class="cls-15" d="M157.45,117.83l-22.86,13.73V131a6.73,6.73,0,0,1,3.15-5l16.55-10c1.74-1,3.16-.48,3.16,1.26Z"/><path class="cls-16" d="M149.42,117.91l-.63.37c-.93.56-1.6.08-1.34-1h0c.12-.52.06-1-.68-1.13a1.14,1.14,0,0,0-.79.2,3.14,3.14,0,0,0-1.42,2.33,1.46,1.46,0,0,0,0,.31h0a2.71,2.71,0,0,1-1.35,2.59l-.62.38a2.76,2.76,0,0,0-1.3,2.07v.24l9.4-5.64v-.24C150.72,117.71,150.14,117.48,149.42,117.91Zm-3.4.67c-.43.26-.77.12-.77-.3a1.61,1.61,0,0,1,.77-1.22c.42-.26.76-.12.76.3A1.62,1.62,0,0,1,146,118.58Z"/><path class="cls-11" d="M165.1,132.62v1.11a.43.43,0,0,1-.19.34l-7.65,4.74a.17.17,0,0,1-.27-.15V137.6a.57.57,0,0,1,.27-.49l7.52-4.67A.21.21,0,0,1,165.1,132.62Z"/></g><path class="cls-19" d="M276.36,216.89,246,235.21a3.51,3.51,0,0,1-3.63,0l-30.53-18.66a1.16,1.16,0,0,1,0-2l31-18.71a3,3,0,0,1,3.12,0l30.41,18.58A1.44,1.44,0,0,1,276.36,216.89Z"/><path class="cls-20" d="M277.05,207.42a1.41,1.41,0,0,0-.68-1.13L246,187.71a3,3,0,0,0-3.12,0l-31,18.71a1.16,1.16,0,0,0-.56,1h0v5.08h0a1.15,1.15,0,0,0,.53.78l30.53,18.65a3.51,3.51,0,0,0,3.63,0l30.39-18.33a1.41,1.41,0,0,0,.69-1.32h0v-4.89Z"/><path class="cls-15" d="M276.36,208.75,246,227.07a3.51,3.51,0,0,1-3.63,0L211.81,208.4a1.16,1.16,0,0,1,0-2l31-18.71a3,3,0,0,1,3.12,0l30.41,18.58A1.44,1.44,0,0,1,276.36,208.75Z"/><path class="cls-19" d="M354.3,268.63,323.91,287a3.51,3.51,0,0,1-3.63,0l-30.53-18.66a1.17,1.17,0,0,1,0-2l31-18.7a3,3,0,0,1,3.13,0l30.41,18.58A1.44,1.44,0,0,1,354.3,268.63Z"/><path class="cls-20" d="M355,258.62a1.43,1.43,0,0,0-.67-1.14L323.9,238.91a3,3,0,0,0-3.13,0l-31,18.7a1.14,1.14,0,0,0-.56,1h0v5.08h0a1.12,1.12,0,0,0,.54.78l30.53,18.66a3.51,3.51,0,0,0,3.63,0l30.39-18.32a1.42,1.42,0,0,0,.68-1.33h0v-4.89Z"/><path class="cls-15" d="M354.3,259.94l-30.39,18.32a3.51,3.51,0,0,1-3.63,0L289.75,259.6a1.17,1.17,0,0,1,0-2l31-18.7a3,3,0,0,1,3.13,0l30.41,18.57A1.44,1.44,0,0,1,354.3,259.94Z"/><path class="cls-21" d="M336.38,259.86v.06a.32.32,0,0,1,0,.07.24.24,0,0,0,0,.09,2.56,2.56,0,0,1-2.29,1.72l-.32,0-.13,0a10.78,10.78,0,0,1-1.29,0l-.43,0a10.18,10.18,0,0,1-4.08-2.22l-.12-.11v-.36s-1.24-.82-1.7-1.1c-1.38-.81-3.37-1.51-5.27-2.45a5.65,5.65,0,0,1-1.33-.9c-.06-.06-.12-.13-.18-.18l-.11-.11-.11-.16c-.08-.11-.15-.21-.21-.31s-.07-.11-.09-.15l-.07-.14a.88.88,0,0,1-.05-.15h0a2.46,2.46,0,0,1-.11-.72v-1.24L330,256.27l6.32,2.36Z"/><path class="cls-22" d="M329.5,251.24a46.07,46.07,0,0,1-5.09-.63c-3.16-.54-5.33-.7-5.74.29s-.49,2,2.33,3.9,5,2.13,7.26,3.95a7.84,7.84,0,0,0,4.86,1.78,3.28,3.28,0,0,0,3.18-1.21c.86-1.6,0-4.61,0-4.61"/><path class="cls-21" d="M325,261.7v1.56a1.48,1.48,0,0,1-.8,1.36,2.26,2.26,0,0,1-.68.19,24.13,24.13,0,0,1-5-.24V264l-4.23-.51a18.93,18.93,0,0,1-6.54-2,1.41,1.41,0,0,1-.75-1.26v-1.14l12.42,2.19Z"/><path class="cls-22" d="M316.3,256.2a5,5,0,0,1-3,1.3c-1.63,0-4.8,0-5.61.53a1.34,1.34,0,0,0-.64,1,2.05,2.05,0,0,0,.44,1.26c.6.9,4.71,2.24,7.8,2.48s3.25.21,4.72.45a7.17,7.17,0,0,0,3.9-.1c1.6-.79,1.71-3.19.73-4.78S316.3,256.2,316.3,256.2Z"/><path class="cls-8" d="M323.47,150.1l-21.69,13.05-7.55-18.34a1.5,1.5,0,0,1,.61-1.87l19.41-11.68a1.17,1.17,0,0,1,1.69.56Z"/><path class="cls-9" d="M322.48,149.74l-20.16,12.18-7-16.93c-.31-.84-.3-1.22.57-1.73L314.53,132a.54.54,0,0,1,.76.25Z"/><path class="cls-23" d="M303.34,146.22l-4.23,2.54a.21.21,0,0,1-.31-.1l-1.54-3.74a.22.22,0,0,1,.09-.27l4.23-2.54a.21.21,0,0,1,.31.1l1.54,3.74A.22.22,0,0,1,303.34,146.22Z"/><path class="cls-24" d="M309.54,142.49,305.31,145a.21.21,0,0,1-.31-.1l-1.54-3.74a.22.22,0,0,1,.09-.27l4.23-2.55a.22.22,0,0,1,.31.11l1.54,3.74A.22.22,0,0,1,309.54,142.49Z"/><path class="cls-25" d="M312.35,151.56l-6.87,4.13a.35.35,0,0,1-.5-.17l-2.5-6.07a.34.34,0,0,1,.14-.43l6.86-4.14a.35.35,0,0,1,.51.17l2.5,6.08A.34.34,0,0,1,312.35,151.56Z"/><path class="cls-25" d="M313.62,144.53l-2.29,1.38a.12.12,0,0,1-.17,0l-.05-.15a.11.11,0,0,1,.05-.14l2.29-1.38a.12.12,0,0,1,.17.06l.05.14A.11.11,0,0,1,313.62,144.53Z"/><path class="cls-25" d="M311.81,146.63a.2.2,0,0,1-.3-.1l-.09-.25a.21.21,0,0,1,.09-.26l4.05-2.44a.21.21,0,0,1,.3.1l.09.25a.21.21,0,0,1-.09.26"/><path class="cls-25" d="M316.17,144.92l-4.06,2.44a.21.21,0,0,1-.3-.09l-.08-.26a.19.19,0,0,1,.08-.25l4.05-2.45a.22.22,0,0,1,.3.1l.09.26A.21.21,0,0,1,316.17,144.92Z"/><path class="cls-25" d="M316.47,145.66l-4.06,2.44a.21.21,0,0,1-.29-.1l-.09-.26a.21.21,0,0,1,.08-.25l4.06-2.44a.2.2,0,0,1,.3.1l.08.25A.21.21,0,0,1,316.47,145.66Z"/><path class="cls-24" d="M316.77,146.39l-4,2.44a.21.21,0,0,1-.3-.1l-.09-.25a.21.21,0,0,1,.09-.26l4.05-2.44a.2.2,0,0,1,.3.1l.09.25A.22.22,0,0,1,316.77,146.39Z"/><path class="cls-23" d="M317.07,147.12,313,149.56a.2.2,0,0,1-.3-.1l-.09-.25a.21.21,0,0,1,.09-.26l4-2.44a.21.21,0,0,1,.3.1l.09.25A.21.21,0,0,1,317.07,147.12Z"/><path class="cls-25" d="M315.74,138.75l-4.23,2.55a.21.21,0,0,1-.31-.1l-1.54-3.75a.21.21,0,0,1,.09-.26l4.23-2.55a.21.21,0,0,1,.31.1l1.54,3.75A.21.21,0,0,1,315.74,138.75Z"/><path class="cls-26" d="M323.16,143.72a6.91,6.91,0,0,1-1.57,1.17l-.28-.35a1,1,0,0,0-.7-.4,3.35,3.35,0,0,1-1.93-.8,10.22,10.22,0,0,1-1.11-1.79l0,0a.28.28,0,0,0-.05-.12c-.11-.25-.34-.76-.35-.84s0-.12.06-.15h0c.18-.1.47-.22.63-.12a5.28,5.28,0,0,1,.83.93,2.37,2.37,0,0,0,1,.74l.13.05s.24-.13.06-.59l-1.38-3.36c1.4,0,2.58,1.83,3.16,3.31A14.48,14.48,0,0,1,323.16,143.72Z"/><path class="cls-27" d="M303.69,160.37l-2.12,1.75-.39.34a7,7,0,0,0-1.34-2.8,5.5,5.5,0,0,0-1.64-.73,1.31,1.31,0,0,1-.7-.47,5.25,5.25,0,0,1-.7-4,2.41,2.41,0,0,1,.27-.89,0,0,0,0,0,0,0c.26-.45.58-.44.58-.44l1.84,1.32c.34.25.78.75,1.11.38.18-.19-.86-1.51-1.15-2.11s.27-1.25.51-1a14.79,14.79,0,0,1,2.3,3.63C302.86,156.91,303.69,160.37,303.69,160.37Z"/><path class="cls-28" d="M302.06,160.62l-.49,1.5-.39.34a7,7,0,0,0-1.34-2.8,5.5,5.5,0,0,0-1.64-.73,1.31,1.31,0,0,1-.7-.47,5.25,5.25,0,0,1-.7-4,2.41,2.41,0,0,1,.27-.89,0,0,0,0,0,0,0s0,.37.6.89a15.51,15.51,0,0,0,1.86,1.25A5.67,5.67,0,0,1,301,157.9C301.37,158.85,302.06,160.62,302.06,160.62Z"/><path class="cls-27" d="M333.16,141.19l.26.58-.39,1.94-6.18,3.11-.36,0-1-.12-1.56-.2v-2.14a2.82,2.82,0,0,0-1.6-2.61l-.07,0a3,3,0,0,1-1-.7l-.09-.1c-1.19-1.26-2.25-4.09-1.95-10.3a11.81,11.81,0,0,1,.8-3.92c.9-1.73,2.8-2.87,6.74-1.79,6.56,1.82,9.43,4.8,9.77,7.37S333.16,141.19,333.16,141.19Z"/><path class="cls-15" d="M321.54,145.41l-.31-.75a11.21,11.21,0,0,0,1.78-1.32,5.5,5.5,0,0,1,.46.65A3.9,3.9,0,0,1,321.54,145.41Z"/><path class="cls-29" d="M321.5,145.32a14.35,14.35,0,0,0,2-1.58s.54.88,1,1.66a5.75,5.75,0,0,1,.36,2.43l-2.05.7Z"/><path class="cls-27" d="M323.94,146.45v-2.14a2.82,2.82,0,0,0-1.6-2.61c.32.14,1.32.62,2.64,1.33.54.29.52,2,.52,3.62Z"/><path class="cls-30" d="M300.78,162.41l-.37-1.18a.94.94,0,0,1,0-.68,5.57,5.57,0,0,1,1-1.49,1.46,1.46,0,0,1,1.77-.29,2.73,2.73,0,0,1,.46.89,3,3,0,0,1,.09,1.06c0,.07-.78,1.15-.87,1.25S300.78,162.41,300.78,162.41Z"/><path class="cls-31" d="M339.49,199.91c-1.46,8-2.51,17.91-2.51,17.91s2.44,19.86-.3,37.16c-.12.82-.41,2.54-1.46,3.22a4,4,0,0,1-3.39,0l-.15-.08c-4.1-2.24-3.67-5.15-4.26-7.06,0-7.69.82-26.62-.82-30.78l-1.46-16.79.53-12h14.68v0l.07,0S341.67,194.7,339.49,199.91Z"/><path class="cls-32" d="M335,200.23c-1.38,4.55-3.16,16.41-3.53,19.31,0,0,1.36,22.85.2,38.56-4.1-2.24-3.67-5.15-4.26-7.06,0-7.69.82-26.62-.82-30.78l-1.46-16.79.53-12h10.1A22.32,22.32,0,0,1,335,200.23Z"/><path class="cls-31" d="M334.07,195.44a23.4,23.4,0,0,1-3.17,7.67c-.28.43-.53.86-.78,1.29-.05.21-.76,2.89-1.65,6.5s-2,8.12-2.74,12c.43,4.83,1.62,21.73-.65,36.37a2.69,2.69,0,0,1-1.93,2.18,4.89,4.89,0,0,1-1.62.17,4.07,4.07,0,0,1-1.35-.32c-2.4-1-4.14-4.86-4.14-4.86s-.06-24.31-1.32-30.69a27.13,27.13,0,0,1-.45-3.69c-.23-3.91-.65-11-.79-14a123.51,123.51,0,0,1-.09-12.83l12,.15Z"/><path class="cls-32" d="M325.42,195.34l-.1,1.19a30,30,0,0,1-1.65,7.57c-1.53,4.54-3.05,15.32-3.22,19.36-.16,3.71,1.82,21.42,1.08,38.13a4.07,4.07,0,0,1-1.35-.32c-2.4-1-4.14-4.86-4.14-4.86s-.06-24.31-1.32-30.69a27.13,27.13,0,0,1-.45-3.69c-.23-3.91-.65-11-.79-14a123.51,123.51,0,0,1-.09-12.83Z"/><path class="cls-33" d="M341.85,161.52c-1.94,5.89-3,15.56-1.86,19.6a73.61,73.61,0,0,1,1.86,9.76c-1.1,3-11.36,9.6-17.09,10.1a8.72,8.72,0,0,1-2.1-.08c-5-.75-9.76-5.22-9.76-5.22s1.09-16.58,1.77-27.18a60.6,60.6,0,0,1,2.15-13.59c.32-1.08.54-1.6.54-1.6a24,24,0,0,1,4.72-3.66l.05,0c1.54-1,3.3-2.12,5.07-3.16h0c2.35-1.4,4.72-2.7,6.62-3.65l.64-.3a14.79,14.79,0,0,1,2.91-1.19c2.7-.51,6.31.92,7.4,5.8S343.77,155.63,341.85,161.52Z"/><path class="cls-29" d="M322.06,181.05c-.35,4.52.34,15.81.6,19.85-5-.75-9.76-5.22-9.76-5.22s1.09-16.58,1.77-27.18a60.6,60.6,0,0,1,2.15-13.59c.54-.63.9-1,.9-1h6.64s3.45.71,2.2,8.57S322.47,175.5,322.06,181.05Z"/><path class="cls-29" d="M334.51,145c-1,1.39-4.63,3.39-6.3,3.74a15,15,0,0,1-3.8.16,4.88,4.88,0,0,0-2.28.73l-.05,0h0l1-1.51,1.15-.73s1.68-.62,2.06-.79a4.23,4.23,0,0,1,.94-.16h0c1-.12,2.43-.22,2.65-.25a32.37,32.37,0,0,0,3-1.9c.06,0,.58-.89.94-1.5l.64-.3A1.93,1.93,0,0,1,334.51,145Z"/><path class="cls-34" d="M338.21,132.46c-.56,3.38-3.42,8.68-4.86,9.16a8.61,8.61,0,0,1-2.39.46,2.27,2.27,0,0,1-2.34-1.86,10.64,10.64,0,0,0-1-3.05c-1-1.87-2.33-2.85-3-2.49s-.59,1.54-.59,1.54h-.44s0-.38-.1-.9-.1-1.15-.13-1.64a5.71,5.71,0,0,0-1.16-3.5,13.46,13.46,0,0,1-1.62-3,5.48,5.48,0,0,1-.4-2.66h0a5.51,5.51,0,0,1,2.33-4.39c3.27-2.4,10.1,2.05,12.62,4.17a8.68,8.68,0,0,1,2.83,4h0A8.76,8.76,0,0,1,338.21,132.46Z"/><path class="cls-15" d="M334,142.36l-.63-.58a14.53,14.53,0,0,1-9.46,4.67,8.09,8.09,0,0,0-1.9,3.21l.86-.55a3.83,3.83,0,0,1,1.49-.58c.34-.06,1.09-.09,1.09-.09,3.37-.05,6.72-2.4,8.48-3.86A1.48,1.48,0,0,0,334,142.36Z"/><path class="cls-35" d="M318.78,254.26a1.54,1.54,0,0,0,.21.31A2.13,2.13,0,0,1,318.78,254.26Z"/><path class="cls-35" d="M319.1,254.73a1.53,1.53,0,0,1-.11-.16c.06.08.13.17.22.27Z"/><path class="cls-31" d="M325.09,159.39c-.64,3.72-7.73,14.53-8,15a54.33,54.33,0,0,1-3.54,5h0a6.42,6.42,0,0,1-2.21,2.07l-.28.07a3.79,3.79,0,0,1-4.47-2.49,78.2,78.2,0,0,1-3.7-8.08,75.16,75.16,0,0,1-2.11-8.22A2.44,2.44,0,0,1,301,161l.08-.13c.39-.66.93-1.4,1.42-1.48.89-.13,1.06.1,1.06.1s1.63,2.62,2.92,4.64a37.36,37.36,0,0,1,2.57,5.45c.12.34.2.54.2.54,2.35-5.44,5.41-12.12,6.65-14.92a5,5,0,0,1,8.45-1.26l.1.12a2,2,0,0,1,.33.68h0l0,0C324.94,154.85,325.68,155.92,325.09,159.39Z"/><path class="cls-22" d="M338.21,132.46c-.56,3.38-3.42,8.68-4.86,9.16a8.61,8.61,0,0,1-2.39.46,2.27,2.27,0,0,1-2.34-1.86,10.64,10.64,0,0,0-1-3.05c-1-1.87-2.33-2.85-3-2.49s-.59,1.54-.59,1.54h-.44s0-.38-.1-.9-.1-1.15-.13-1.64a5.71,5.71,0,0,0-1.16-3.5,13.46,13.46,0,0,1-1.62-3,5.48,5.48,0,0,1-.4-2.66,14.89,14.89,0,0,0,10.64,8.75c7.94,1.67,7.19-4.63,7.14-5A8.76,8.76,0,0,1,338.21,132.46Z"/><path class="cls-36" d="M308.63,173.36s-.44-2.76.43-3.83c.12.34.2.54.2.54A7.45,7.45,0,0,0,308.63,173.36Z"/><path class="cls-32" d="M324.82,154.7h0s.25,3.1-2.69,8.27-9.2,17.54-12.29,17.2c-1.63-.18-2.21-2.77-2.86-3.23-1.41-1-2.36-4.59-3.7-8.17a59.51,59.51,0,0,1-2.16-7.94L301,161a2.44,2.44,0,0,0-.26,1.81,75.16,75.16,0,0,0,2.11,8.22,78.2,78.2,0,0,0,3.7,8.08,3.8,3.8,0,0,0,4.47,2.48h0l.28-.07a6.42,6.42,0,0,0,2.21-2.07h0a54.33,54.33,0,0,0,3.54-5c.29-.44,7.38-11.25,8-15C325.68,155.92,324.94,154.85,324.82,154.7Z"/><polygon class="cls-19" points="204.72 225.88 224.58 238.02 228.76 235.5 208.9 223.35 204.72 225.88"/><polygon class="cls-8" points="228.76 216.65 228.76 233.19 224.58 235.71 224.58 219.17 228.76 216.65"/><polygon class="cls-37" points="208.9 204.5 208.9 221.05 204.72 223.57 204.72 207.03 208.9 204.5"/><polygon class="cls-8" points="228.76 216.65 228.76 233.19 224.58 235.71 224.58 219.17 228.76 216.65"/><polygon class="cls-7" points="204.72 207.03 224.58 219.17 228.76 216.65 208.9 204.5 204.72 207.03"/><polygon class="cls-37" points="224.58 235.71 204.72 223.57 204.72 207.03 224.58 219.17 224.58 235.71"/><polygon class="cls-8" points="204.72 207.03 214.65 221.37 224.58 219.17 204.72 207.03"/><path class="cls-38" d="M220.8,210.66v3.26a.54.54,0,0,1-.36.51.52.52,0,0,1-.18,0,.54.54,0,0,1-.55-.54v-3.26a.89.89,0,0,0-.42-.76l-5-3a.33.33,0,0,0-.36,0,.12.12,0,0,0-.07,0h0a.37.37,0,0,0-.09.25v2.46a.54.54,0,0,1-.34.5.45.45,0,0,1-.2,0,.55.55,0,0,1-.55-.54v-2.46a1.41,1.41,0,0,1,.74-1.26,1,1,0,0,1,.36-.14,1.39,1.39,0,0,1,1.1.17l5,3A2,2,0,0,1,220.8,210.66Z"/><polygon class="cls-27" points="215.77 220.78 215.77 222.47 215.4 222.7 215.4 221.01 215.77 220.78"/><polygon class="cls-27" points="213.37 219.77 215.4 221.01 215.77 220.78 213.75 219.55 213.37 219.77"/><polygon class="cls-39" points="215.4 222.7 213.37 221.46 213.37 219.77 215.4 221.01 215.4 222.7"/><path class="cls-40" d="M220.8,210.66v3.26a.54.54,0,0,1-.36.51v-3.27a2.27,2.27,0,0,0-.48-1.63l-6.18-3.76a1.39,1.39,0,0,1,1.1.17l5,3A2,2,0,0,1,220.8,210.66Z"/><path class="cls-40" d="M213.86,206.92a.37.37,0,0,0-.09.25v2.46a.54.54,0,0,1-.34.5v-2.51A.84.84,0,0,1,213.86,206.92Z"/><path class="cls-21" d="M230.67,208.9s.31,1.25.49,2.31.24,2.41.36,3.52a15.25,15.25,0,0,0,1.64,4.45,4.33,4.33,0,0,0,2.34,1.66,7.55,7.55,0,0,0,3.59-.07,1.79,1.79,0,0,0,.93-.92"/><path class="cls-21" d="M258.2,204.82c0,.7-1,1.18-2.1,1.27a10.6,10.6,0,0,1-3.44-.48,17,17,0,0,1-2.67-1,3.42,3.42,0,0,0-2-.18s0,.12,0,.25a9.12,9.12,0,0,1-4.79-.8h0s0-.55,0-1,.1-1,.1-1l14.87,2.48Z"/><path class="cls-34" d="M240.44,218.66l-.06.38a1.88,1.88,0,0,1-1.28,1.51,5.59,5.59,0,0,1-5.26-1.16c-1.27-1.38-2.18-4.94-2.18-7.07a9.52,9.52,0,0,0-1.11-4.1h5.79l.14.19c1,1.4,3.59,6.71,3.85,8.43A8.4,8.4,0,0,1,240.44,218.66Z"/><path class="cls-41" d="M240.44,218.66a.34.34,0,0,1-.06-.15,29.56,29.56,0,0,0-2.28-5.45c-.7-1.4-2-3.95-2-3.95l.39-.7c1,1.4,3.59,6.71,3.85,8.43A8.4,8.4,0,0,1,240.44,218.66Z"/><path class="cls-42" d="M240.38,219a1.88,1.88,0,0,1-1.28,1.51,5.61,5.61,0,0,1-5.26-1.16c-1.27-1.38-2.18-4.95-2.18-7.07a9.52,9.52,0,0,0-1.11-4.1h2.35l.19,1.22s.07,4.95,1.24,7.39a4.73,4.73,0,0,0,4.25,2.9c.94-.07,1.53-.19,1.79-.68A0,0,0,0,1,240.38,219Z"/><path class="cls-34" d="M258.2,204.59a.87.87,0,0,1-.52.74,8.11,8.11,0,0,1-4.24,0c-1.24-.3-3.54-1.38-4.75-1.52s-3.59-.34-4.18-.5a1.69,1.69,0,0,1-1.35-1.64,3.72,3.72,0,0,1,.45-2.1l1,.06,5.63.36h.13l2.87,1c.92.32,2.84.61,4.1,1.79a3.64,3.64,0,0,1,.51.56h0A1.67,1.67,0,0,1,258.2,204.59Z"/><path class="cls-41" d="M257.81,203.38a12.76,12.76,0,0,0-4.42-1.78c-1.58-.41-3.13-.9-3.13-.9s0-.31-.06-.71h.13l2.87,1c.92.32,2.84.61,4.1,1.79A3.64,3.64,0,0,1,257.81,203.38Z"/><path class="cls-42" d="M258.21,204.59a.92.92,0,0,1-.53.74,8.22,8.22,0,0,1-4.24,0c-1.23-.3-3.54-1.39-4.75-1.52s-3.58-.34-4.18-.5a1.69,1.69,0,0,1-1.34-1.65,3.65,3.65,0,0,1,.44-2.09l1,.06,0,.3s-.88,1.23-.3,2.15,2.78.79,4.12.95,3.26,1.25,5.11,1.56,4.08.59,4.73,0Z"/><path class="cls-31" d="M253.88,169.26c-.23.94-.42,1.86-.58,2.74a.21.21,0,0,0,0,.06c-.15.86-.27,1.7-.39,2.48a.22.22,0,0,0,0,.08c0,.08,0,.22-.07.42s-.06.4-.09.59c-.24,1.6-.69,4.9-1.08,9.39a.31.31,0,0,0,0,.1c-.16,1.49-.3,3.51-.41,5.65,0,.49-.06,1-.08,1.5-.14,2.8-.25,5.66-.31,7.75a1.48,1.48,0,0,1-.78,1.25,2.6,2.6,0,0,1-1.22.32,8.56,8.56,0,0,1-3-.4,6.33,6.33,0,0,1-1.7-.86,1.62,1.62,0,0,1-.64-1.35c0-1.77.16-6.47,0-11.17-.23-5.95-.69-17.17-.69-17.17l2.1-18.79,3.9-.87c-.21-1.09-.42-2.35-.58-3.23-.11-.68-.19-1.14-.19-1.14h7.64s0,.11,0,.32C255.74,148.93,256.14,160.18,253.88,169.26Z"/><path class="cls-43" d="M253.88,169.26c-.23.94-.42,1.86-.58,2.74.07-.64.77-6.85,1.09-10,.33-3.35-.21-13.82-.21-13.82l1.47-1.23C255.74,148.93,256.14,160.18,253.88,169.26Z"/><path class="cls-32" d="M250.54,149.51a116.89,116.89,0,0,1-2.79,22c-1.58,6.73-1.91,20.15-1.93,29.71a6.1,6.1,0,0,1-1.69-.86,1.59,1.59,0,0,1-.64-1.35c0-1.77.16-6.47,0-11.17-.23-6-.7-17.17-.7-17.17l2.1-18.79,3.9-.87c-.2-1.09-.42-2.35-.57-3.23Z"/><path class="cls-31" d="M247.24,150.45A85.81,85.81,0,0,1,242.76,179h0c-1,2.39-1.7,4.32-1.9,5.14-.43,1.69-2.36,18.62-2.82,22.71a4.45,4.45,0,0,1-.65,1.87,3.5,3.5,0,0,1-3.54,1.9,8.19,8.19,0,0,1-1.55-.3,10.81,10.81,0,0,1-2-.8,1.45,1.45,0,0,1-.81-1.36c.13-4.38.7-23.59,1.06-26a145,145,0,0,0,2.85-19.45,11.74,11.74,0,0,0-.48-4.64,12.38,12.38,0,0,1-.13-7.54L234,151c0-1-.07-1.49-.07-1.49h.37l13.37.28Z"/><path class="cls-32" d="M238.58,158.56c.4,3.8-3.94,20.72-4.4,25.06s-1.87,26.73-1.87,26.73h0a10.81,10.81,0,0,1-2-.8,1.45,1.45,0,0,1-.81-1.36c.13-4.38.7-23.59,1.06-26a145,145,0,0,0,2.85-19.45,11.74,11.74,0,0,0-.48-4.64,12.38,12.38,0,0,1-.13-7.54L234,151c0-1-.07-1.49-.07-1.49h.37c2.43,1.33,4.48,2.62,4.48,2.62A22.68,22.68,0,0,0,238.58,158.56Z"/><path class="cls-41" d="M232.76,150.23a8,8,0,0,0-.22,1,.51.51,0,0,0,.22.5,14.55,14.55,0,0,0,2.88,1.37,14.82,14.82,0,0,0,6.14.65c.76-.07,8.14-1.69,12.55-4.49a3.31,3.31,0,0,0,1.48-3.34v0C255.66,145.07,232.76,150.23,232.76,150.23Z"/><path class="cls-15" d="M261.18,128.16a9.11,9.11,0,0,1-.93.66h0l-.1.07a17.05,17.05,0,0,1-5.36,1.74c0,.82-.05,1.64-.07,2.46a26.47,26.47,0,0,0,.4,5.48c.27,1.53.59,3.41.8,4.78.42,2.7-.31,4.66-1.65,5.46h0a36.81,36.81,0,0,1-12,4.41,11.39,11.39,0,0,1-1.29.17,10.85,10.85,0,0,1-2.79-.11,9.15,9.15,0,0,1-1.13-.25l-.35-.11a4.54,4.54,0,0,1-1.16-.54c-1.77-1.12-1.91-2-2-3s1-5.23,1.24-6.69l.08-.6c0-.1,0-.22,0-.33a9.47,9.47,0,0,0,0-1.48.18.18,0,0,0,0-.05,3.75,3.75,0,0,0-.17-.93,1.71,1.71,0,0,0-.09-.27v0a.54.54,0,0,0,0-.1c-1.75-.8-3.28-2.88-5-6.73s-1.45-11.6-.92-14.7a6.75,6.75,0,0,1,.24-1.05,7.92,7.92,0,0,1,2.2-2.71h0a25.78,25.78,0,0,1,3-2.26l.1-.07a24.2,24.2,0,0,1,2.28-1.31,33.94,33.94,0,0,1,3.12-1.37c.49-.2,1-.37,1.52-.53.94-.29,1.91-.53,2.9-.73,1.51-.32,3-.56,4.51-.85l.76,0a10.78,10.78,0,0,1,8.78,6c1.4,2.78,3.35,7,3.76,9.77C262.27,125.82,262,127.3,261.18,128.16Z"/><path class="cls-44" d="M251.72,130.66a28.88,28.88,0,0,1-8.2,5.49,18.41,18.41,0,0,1-7.32,1.34,3.17,3.17,0,0,1-1.49-.13c-1-.48-2.54-2.17-4-6.72-1.2-3.76-.83-10.06-.18-14a8.45,8.45,0,0,1,5.73-4.29h0a7.08,7.08,0,0,0,3.95-.14,4.72,4.72,0,0,1,3.29.11,24.27,24.27,0,0,0,2.56.91l1,.7.65,10.3,1.12-2.59-.86-8.75-3.28-4.19-3.61-.44c-.52.16-1,.33-1.52.53a28.31,28.31,0,0,0-4.32,2l-.09,0-.35.21-.39.25-.25.15-.1.07a25.78,25.78,0,0,0-3,2.26h0a7.92,7.92,0,0,0-2.2,2.71c0,.05,0,.11-.05.18a6.59,6.59,0,0,0-.19.87h0c-.53,3.11-.72,11,.92,14.7s3.23,5.93,5,6.73c0,0,9.25,1.29,17.52-8.3Z"/><path class="cls-45" d="M240.28,103.31v4.07s4.16,3,6.37,2.57c.95-.18,1.45-1.4,1.25-3.12l-2-.41Z"/><path class="cls-15" d="M247.15,109.72l1.65,2.21s.81-2.77-.78-4.47-1.6-.23-1.6-.23S247.88,108.91,247.15,109.72Z"/><path class="cls-27" d="M251.77,97.9a23.56,23.56,0,0,1-.36,6.52c-.71,3.12-.92,3.82-2.18,4.37s-2.38.62-4.49-.74a10.68,10.68,0,0,1-3.27-3.57s-.3.2-1.05-.65A4.56,4.56,0,0,1,239,100a12.56,12.56,0,0,1,1.86-6.44c1.41-2.36,5.73-1.61,7.69-.6A6.44,6.44,0,0,1,251.77,97.9Z"/><path class="cls-34" d="M253.48,98.05c-2.16,3.82-7.54,1.3-7.54,1.3-.39,1.66-1.55,1.81-2.11,2.12s-.67,1.91-.67,1.91h-.51a11.67,11.67,0,0,0-.27-2.42,1.42,1.42,0,0,0-2.51-.24c-.69,1,.1,2.23.55,3.11a4,4,0,0,1-.14,2,6.59,6.59,0,0,1-1.37-2.47,17.06,17.06,0,0,1,0-8.85,4.23,4.23,0,0,1,.44-1.07c1.65-2.78,6.36-3.33,8.2-2.7,1.59.55,5.54,2.34,6.28,4.89A3.13,3.13,0,0,1,253.48,98.05Z"/><path class="cls-31" d="M253.64,174.1c0,.2-.06.4-.09.58C253.58,174.45,253.61,174.26,253.64,174.1Z"/><path class="cls-31" d="M253.72,173.59s0,0,0,.08Z"/><path class="cls-46" d="M237,126.18a25.94,25.94,0,0,1-.71-5.77c.12-2.29,1.39-.24,1.51,1.63A44.17,44.17,0,0,0,239,128"/><path class="cls-15" d="M240.28,107a3.91,3.91,0,0,0-.46.84,8.34,8.34,0,0,0-.28,1,15.78,15.78,0,0,0,6.88,4.09l0-2.87S242.35,109.43,240.28,107Z"/><path class="cls-27" d="M243.21,128.85a11.35,11.35,0,0,0-5,1.21,19.85,19.85,0,0,1-1.27-3.88.54.54,0,0,1,.07-.13c.9-1.45,5.78-.55,5.78-.55Z"/><path class="cls-27" d="M254.36,123.31c-1,0-2.23.17-3.36.32.08-.27.19-3.73,2.79-4,.22,1.13.37,2.14.46,2.83,0,.16,0,.29.06.42s0,.21,0,.29A1.11,1.11,0,0,1,254.36,123.31Z"/><path class="cls-20" d="M254.75,130.64s-.39.59-1.16,1.52h0a31.19,31.19,0,0,1-5.84,5.35c-.71.51-1.48,1-2.3,1.49l-.15.08a13.27,13.27,0,0,0-6.53,10.22,10,10,0,0,0,0,2.83c.33.9,1.47,1.19,2.14,1.28a10.85,10.85,0,0,1-2.79-.11,9.15,9.15,0,0,1-1.13-.25l-.35-.11a5,5,0,0,1-1.17-.54c-1.76-1.12-1.9-2-2-3s1-5.23,1.24-6.69l.08-.6a8.86,8.86,0,0,0,.08-1.81.18.18,0,0,0,0-.05,3.75,3.75,0,0,0-.17-.93,1.71,1.71,0,0,0-.09-.27v0a.54.54,0,0,0,0-.1s5.74.8,12.21-3.55a26.42,26.42,0,0,0,5.31-4.75h.25A18.37,18.37,0,0,0,254.75,130.64Z"/><path class="cls-20" d="M234.8,141.65s-2.58,7-2.49,8.86,5.79,2.8,5.79,2.8l-2.44-6.51Z"/><path class="cls-46" d="M251.85,113.87s.37-.46,1.14.58,3.53,7.51,3.57,8.92-8.28.67-8.28.67a61,61,0,0,1,6.08-.73S253.62,116.26,251.85,113.87Z"/><path class="cls-44" d="M238.26,130.06s-.89,1-.71,1.63,1.17-.34,3.37-.82a62,62,0,0,1,8.54-.39,53.62,53.62,0,0,0-6.17-1.07l-.08-.56A10,10,0,0,0,238.26,130.06Z"/><path class="cls-31" d="M246.45,110l0,2.87,1,.92,1.39-.45v-1.39l-1.65-2.21A1.16,1.16,0,0,1,246.45,110Z"/><path class="cls-31" d="M247.68,124.2c-.11-5.65-.27-10.43-.27-10.43l1.39-.45c.46,2.12,1.11,6.14,1.74,10.38C250.54,123.7,249.36,123.89,247.68,124.2Z"/><path class="cls-31" d="M252.56,139.35l-1.41,3.7a.31.31,0,0,1-.49.13L248,141a1,1,0,0,1-.39-.89c0-.72.08-1.6.1-2.59s0-1.83,0-2.85h0l.52-.4c.17-.12.33-.27.49-.4.32-.27.68-.58,1.05-.93.21-.19.41-.37.61-.58a3.73,3.73,0,0,0,.35-.34c.2-.19.39-.39.58-.6a2.73,2.73,0,0,0,.23-.25q.21,1.47.39,2.76c.31,2.31.55,4.07.63,4.78A1.31,1.31,0,0,1,252.56,139.35Z"/><path class="cls-47" d="M252,133.92a30.74,30.74,0,0,1-4.25,3.6c0-.87,0-1.83,0-2.85h0l.52-.4c.71-.64,1.44-1.19,2.15-1.91a3.73,3.73,0,0,0,.35-.34c.2-.19.39-.39.58-.6a2.73,2.73,0,0,0,.23-.25Q251.82,132.63,252,133.92Z"/><path class="cls-22" d="M253.48,98.05c-2.16,3.82-7.54,1.3-7.54,1.3-.39,1.66-1.55,1.81-2.11,2.12s-.67,1.91-.67,1.91h-.51a11.67,11.67,0,0,0-.27-2.42,1.42,1.42,0,0,0-2.51-.24c-.69,1,.1,2.23.55,3.11a4,4,0,0,1-.14,2,6.59,6.59,0,0,1-1.37-2.47,17.06,17.06,0,0,1,0-8.85,4.23,4.23,0,0,1,.44-1.07,26.38,26.38,0,0,0,6.23,4c3.38,1.42,6,1.11,6.84.39a3.3,3.3,0,0,0,1.4-2.22h0A3.13,3.13,0,0,1,253.48,98.05Z"/><path class="cls-22" d="M178.94,149.84l.09-.59C179,149.41,179,149.61,178.94,149.84Z"/><path class="cls-22" d="M179.1,148.82a.25.25,0,0,1,0-.08A.28.28,0,0,0,179.1,148.82Z"/><path class="cls-19" d="M308.36,291a.19.19,0,0,0,0-.32l-12.67-7.78,0,0,0,0-.08-.05-.06,0a1.4,1.4,0,0,0-.39-.1,1.47,1.47,0,0,0-.76.14l-1.91-1.19a4,4,0,0,0,1.66-3l.05-1.59c.08-2.94-3.91-5.45-8.93-5.59s-9.09,2.08-9.23,5v.07l-.05,1.57h0v.25h0c.14,2.83,4.05,5.2,8.92,5.34a13.53,13.53,0,0,0,5.59-.95.94.94,0,0,0,.1.1l.12.08,2.54,1.58a1.85,1.85,0,0,0,.1.79,1.27,1.27,0,0,0,.42.57.77.77,0,0,0,.21.14l10.83,6.66a.7.7,0,0,0,.7,0Zm-23.42-9.71c-4.21-.13-7.58-2.23-7.51-4.71a4.27,4.27,0,0,1,.92-1.56,2.73,2.73,0,0,0-.6,1.6,1.85,1.85,0,0,0,0,.41.29.29,0,0,0,0,.09,1.32,1.32,0,0,0,.07.3l0,.13a2,2,0,0,0,.11.26.75.75,0,0,0,.06.13,1.91,1.91,0,0,0,.16.27l.06.1c.09.11.18.23.28.34a.26.26,0,0,0,.09.09,2.55,2.55,0,0,0,.23.24l.19.16.11.1a8.1,8.1,0,0,0,2.49,1.28,11.81,11.81,0,0,0,3.3.55c4.07.12,7.42-1.68,7.49-4,0-1.48-1.24-2.83-3.22-3.64l-.1,0-.64-.23a6.44,6.44,0,0,1,4,2.86,2.71,2.71,0,0,1,.18,1C292.65,279.47,289.17,281.38,284.94,281.26Z"/><path class="cls-48" d="M294.34,272.76l-2.15-2.23L286,269l-6.27,1.17-2.28,2.1-.59,1.31.9.31s1.06-4.26,8.22-4.05,8,4.53,8,4.53l.91-.26Z"/><path class="cls-20" d="M294.85,274.63a5.46,5.46,0,0,0-1.8-2.18,3.11,3.11,0,0,1,.62,1.91c-.08,2.58-3.7,4.56-8.1,4.43s-7.9-2.32-7.82-4.9a3.1,3.1,0,0,1,.73-1.86,5.23,5.23,0,0,0-2,2.26l-.22-.51-.05,1.72h0v.26h0c.14,2.95,4.22,5.43,9.3,5.58,5.23.15,9.53-2.21,9.63-5.28l0-1.65Z"/><path class="cls-49" d="M285.87,268.58c-5.22-.16-9.53,2.2-9.62,5.27a3.29,3.29,0,0,0,.08.83c.6,2.69,4.47,4.86,9.22,5s8.73-1.8,9.49-4.45a2.87,2.87,0,0,0,.13-.82C295.26,271.34,291.1,268.73,285.87,268.58Zm-.3,10.21c-4.39-.12-7.9-2.32-7.82-4.9a3.1,3.1,0,0,1,.73-1.86c1.29-1.61,4.12-2.67,7.37-2.57s6,1.32,7.2,3a3.11,3.11,0,0,1,.62,1.91C293.59,276.94,290,278.92,285.57,278.79Z"/><path class="cls-15" d="M285.87,268.58c-5.22-.16-9.53,2.2-9.62,5.27a3.29,3.29,0,0,0,.08.83c.6,2.69,4.47,4.86,9.22,5s8.73-1.8,9.49-4.45a2.87,2.87,0,0,0,.13-.82C295.26,271.34,291.1,268.73,285.87,268.58Zm-.3,10.21c-4.39-.12-7.9-2.32-7.82-4.9a3.1,3.1,0,0,1,.73-1.86c1.29-1.61,4.12-2.67,7.37-2.57s6,1.32,7.2,3a3.11,3.11,0,0,1,.62,1.91C293.59,276.94,290,278.92,285.57,278.79Z"/><path class="cls-20" d="M296.31,281l-.18.27h0l-.81,1.2-.21.31-3.56-2.22h0l-.13-.08a.94.94,0,0,1-.25-.34,1.74,1.74,0,0,1-.05-.22h0a1.22,1.22,0,0,1,.12-.71,1.15,1.15,0,0,1,.61-.6.8.8,0,0,1,.4-.06.86.86,0,0,1,.23.06l0,0,.05,0h0Z"/><path class="cls-15" d="M296.31,281l-.18.27h0l-4.28-2.66a.8.8,0,0,1,.4-.06.86.86,0,0,1,.23.06l0,0,.05,0h0Z"/><path class="cls-48" d="M295.32,282.44l-.21.31-3.56-2.22h0l-.13-.08a.94.94,0,0,1-.25-.34,1.74,1.74,0,0,1-.05-.22Z"/><path class="cls-50" d="M307.63,287.18l-.52.91-1.32,2.34L295,283.74h0a1.28,1.28,0,0,1-.23-.14,1.41,1.41,0,0,1-.43-.59,2.12,2.12,0,0,1,.11-1.61,2.21,2.21,0,0,1,.37-.55h0a1.67,1.67,0,0,1,1.4-.6,1.2,1.2,0,0,1,.4.11l.06,0,.09.06,0,0h0Z"/><path class="cls-51" d="M307.63,287.18l-.52.91-1.3-.39-11-6.85h0a1.67,1.67,0,0,1,1.4-.6,1.2,1.2,0,0,1,.4.11l.06,0,.09.06,0,0h0Z"/><path class="cls-52" d="M308.18,289.52a1.72,1.72,0,0,1-2.17,1.05h0a1.09,1.09,0,0,1-.23-.14,1.33,1.33,0,0,1-.42-.59,2.07,2.07,0,0,1,.1-1.61,1.87,1.87,0,0,1,1.77-1.16,1.14,1.14,0,0,1,.4.11l.07,0,.08.06,0,0A1.79,1.79,0,0,1,308.18,289.52Z"/><path class="cls-53" d="M293.42,274.39c-.08,2.43-3.57,4.3-7.81,4.18s-7.61-2.2-7.54-4.63,3.57-4.31,7.8-4.19S293.49,272,293.42,274.39Z"/><path class="cls-53" d="M290.07,270.6c-7.65.17-9.85,3.94-10.49,6.06a3.42,3.42,0,0,1-1.51-2.73c.07-2.43,3.57-4.3,7.8-4.18A12.25,12.25,0,0,1,290.07,270.6Z"/><path class="cls-54" d="M293,274.38c-.07,2.3-3.38,4.08-7.4,4s-7.21-2.08-7.15-4.39c0-.07,0-.14,0-.2.22,2.16,3.3,3.95,7.13,4.06s7.13-1.55,7.38-3.75A1.67,1.67,0,0,1,293,274.38Z"/><path class="cls-55" d="M293.06,70.1V91.68a1.77,1.77,0,0,1-.76,1.46l-.07,0-7.05,4.35-14.57,9a.69.69,0,0,1-.77,0L267,104.74a.83.83,0,0,1-.41-.72V83.16a2.32,2.32,0,0,1,1.12-2L289.11,68a.88.88,0,0,1,.9,0l2.72,1.66.09.05A.55.55,0,0,1,293.06,70.1Z"/><path class="cls-13" d="M293.06,70.1V91.68a1.77,1.77,0,0,1-.76,1.46l-.07,0-7.05,4.35-14.57,9a.69.69,0,0,1-.77,0,.71.71,0,0,1-.32-.59v-21a2.23,2.23,0,0,1,1-1.88l21.68-13.36a.51.51,0,0,1,.49,0l.09.05A.55.55,0,0,1,293.06,70.1Z"/><path class="cls-15" d="M282.36,83.53l1.44,2.16a.34.34,0,0,0,.39.13l3.13-1.21a.33.33,0,0,1,.4.48l-2.5,3.76a.34.34,0,0,0-.05.24l.65,3.41a.34.34,0,0,1-.32.39l-3.35,0a.32.32,0,0,0-.24.11l-3.05,3.23a.33.33,0,0,1-.57-.28l.54-3.42a.34.34,0,0,0-.19-.35l-2.37-1a.33.33,0,0,1,0-.57L280,88a.37.37,0,0,0,.13-.15l1.67-4.28A.33.33,0,0,1,282.36,83.53Z"/><path class="cls-56" d="M193,157.59v14.54a1.21,1.21,0,0,1-.51,1l-.05,0-4.75,2.93-9.83,6a.45.45,0,0,1-.51,0l-1.92-1.18a.57.57,0,0,1-.28-.49V166.39a1.57,1.57,0,0,1,.75-1.35l14.44-8.9a.57.57,0,0,1,.6,0l1.83,1.12a.15.15,0,0,1,.07,0A.4.4,0,0,1,193,157.59Z"/><path class="cls-57" d="M193,157.59v14.54a1.21,1.21,0,0,1-.51,1l-.05,0-4.75,2.93-9.83,6a.45.45,0,0,1-.51,0,.48.48,0,0,1-.22-.4V167.55a1.49,1.49,0,0,1,.71-1.27l14.61-9a.31.31,0,0,1,.32,0,.15.15,0,0,1,.07,0A.4.4,0,0,1,193,157.59Z"/><ellipse class="cls-15" cx="185.19" cy="167.09" rx="2.8" ry="1.55" transform="translate(-59.4 215.97) rotate(-53.36)"/><path class="cls-15" d="M189.9,171.55l-9.43,5.67c0-2.6,2.11-6,4.72-7.53a3.87,3.87,0,0,1,3.33-.62A2.42,2.42,0,0,1,189.9,171.55Z"/><path class="cls-58" d="M193,206.44V221a1.22,1.22,0,0,1-.51,1l-.05,0-4.75,2.93-9.83,6a.45.45,0,0,1-.51,0l-1.92-1.19a.54.54,0,0,1-.28-.48V215.24a1.57,1.57,0,0,1,.75-1.35l14.44-8.9a.57.57,0,0,1,.6,0l1.83,1.12a.15.15,0,0,1,.07,0A.4.4,0,0,1,193,206.44Z"/><path class="cls-59" d="M193,206.44V221a1.22,1.22,0,0,1-.51,1l-.05,0-4.75,2.93-9.83,6a.45.45,0,0,1-.51,0,.48.48,0,0,1-.22-.4V216.39a1.49,1.49,0,0,1,.71-1.26l14.61-9a.33.33,0,0,1,.32,0,.15.15,0,0,1,.07,0A.4.4,0,0,1,193,206.44Z"/><path class="cls-60" d="M173,199.71v14.55a1.17,1.17,0,0,1-.52,1s0,0,0,0l-4.75,2.94-9.83,6a.47.47,0,0,1-.51,0,.5.5,0,0,1-.22-.4V209.67a1.53,1.53,0,0,1,.7-1.27l14.62-9a.37.37,0,0,1,.32,0l.07,0A.36.36,0,0,1,173,199.71Z"/><polygon class="cls-15" points="190.13 212.23 190.13 213.24 185.42 218.78 180.69 219.13 180.69 218.13 190.13 212.23"/><polygon class="cls-15" points="185.42 219.36 190.13 213.83 190.13 218.99 180.69 224.89 180.69 219.72 185.42 219.36"/><path class="cls-61" d="M164.48,88.06v14.55a1.22,1.22,0,0,1-.51,1l-.05,0-4.75,2.94-9.82,6a.49.49,0,0,1-.52,0l-1.92-1.19a.55.55,0,0,1-.28-.48V96.86a1.55,1.55,0,0,1,.75-1.34l14.44-8.9a.58.58,0,0,1,.61,0l1.83,1.11.06,0A.34.34,0,0,1,164.48,88.06Z"/><path class="cls-62" d="M164.48,88.06v14.55a1.22,1.22,0,0,1-.51,1l-.05,0-4.75,2.94-9.82,6a.48.48,0,0,1-.73-.41V98a1.48,1.48,0,0,1,.7-1.26l14.61-9a.39.39,0,0,1,.33,0l.06,0A.34.34,0,0,1,164.48,88.06Z"/><path class="cls-63" d="M177.65,64V74.16a.81.81,0,0,1-.36.68l0,0-3.32,2-6.87,4.24a.33.33,0,0,1-.36,0,.31.31,0,0,1-.15-.28V71a1,1,0,0,1,.49-.89l10.22-6.3a.27.27,0,0,1,.23,0l0,0A.24.24,0,0,1,177.65,64Z"/><path class="cls-63" d="M249.63,19.69V29.87a.86.86,0,0,1-.35.69.05.05,0,0,0,0,0l-3.32,2.05-6.87,4.23a.32.32,0,0,1-.36,0,.33.33,0,0,1-.15-.28V26.66a1.05,1.05,0,0,1,.49-.89l10.22-6.29a.24.24,0,0,1,.23,0l0,0A.25.25,0,0,1,249.63,19.69Z"/><path class="cls-64" d="M270.7.38V15.61a1.26,1.26,0,0,1-.54,1s0,0-.05,0l-5,3.06-10.28,6.34a.51.51,0,0,1-.77-.43V10.81a1.57,1.57,0,0,1,.74-1.33L270.12.06a.35.35,0,0,1,.34,0l.07,0A.37.37,0,0,1,270.7.38Z"/><path class="cls-64" d="M165.46,214.88v15.23a1.25,1.25,0,0,1-.53,1s0,0-.05,0l-5,3.06-10.27,6.34a.5.5,0,0,1-.54,0,.52.52,0,0,1-.23-.42V225.3a1.57,1.57,0,0,1,.74-1.32l15.29-9.42a.35.35,0,0,1,.34,0l.07,0A.36.36,0,0,1,165.46,214.88Z"/><path class="cls-15" d="M156.09,106.37l-4.25-1.7c-.4-.16-.4-.8,0-1.44s1-1,1.45-.88l2.42,1,4.73-10.51a1.91,1.91,0,0,1,1.41-1.18c.48,0,.63.55.33,1.21Z"/><path class="cls-65" d="M365.15,101.67v14.55a1.17,1.17,0,0,1-.52,1l0,0-4.76,2.93-9.82,6a.43.43,0,0,1-.51,0L347.57,125a.57.57,0,0,1-.27-.49V110.47a1.58,1.58,0,0,1,.75-1.35l14.43-8.9a.58.58,0,0,1,.61,0l1.83,1.12.07,0A.4.4,0,0,1,365.15,101.67Z"/><path class="cls-66" d="M365.15,101.67v14.55a1.17,1.17,0,0,1-.52,1l0,0-4.76,2.93-9.82,6a.43.43,0,0,1-.51,0,.45.45,0,0,1-.22-.39V111.63a1.52,1.52,0,0,1,.7-1.27l14.61-9a.33.33,0,0,1,.33,0l.07,0A.4.4,0,0,1,365.15,101.67Z"/><path class="cls-53" d="M381.6,105.14v17.34a1.43,1.43,0,0,1-.62,1.18l-.05,0-5.67,3.5-11.71,7.21a.57.57,0,0,1-.87-.48V117a1.8,1.8,0,0,1,.84-1.51l17.42-10.73a.42.42,0,0,1,.39,0l.08,0A.45.45,0,0,1,381.6,105.14Z"/><path class="cls-53" d="M287.21,4.11V21.46a1.43,1.43,0,0,1-.62,1.17l0,0-5.67,3.49-11.71,7.22a.54.54,0,0,1-.61,0,.57.57,0,0,1-.26-.48V16a1.77,1.77,0,0,1,.84-1.51L286.55,3.74a.39.39,0,0,1,.39,0s.05,0,.08,0A.45.45,0,0,1,287.21,4.11Z"/><path class="cls-53" d="M277.75,135.83v17.35a1.45,1.45,0,0,1-.61,1.17s0,0-.06,0l-5.67,3.5-11.71,7.21a.54.54,0,0,1-.61,0,.57.57,0,0,1-.26-.48V147.7a1.8,1.8,0,0,1,.84-1.51l17.42-10.73a.42.42,0,0,1,.39,0l.08.05A.42.42,0,0,1,277.75,135.83Z"/><path class="cls-15" d="M355,116.65a1.21,1.21,0,1,1-1.2-1.38A1.3,1.3,0,0,1,355,116.65Z"/><path class="cls-15" d="M358.84,114.26a1.21,1.21,0,1,1-1.2-1.38A1.3,1.3,0,0,1,358.84,114.26Z"/><path class="cls-15" d="M362.68,111.87a1.21,1.21,0,1,1-1.2-1.38A1.31,1.31,0,0,1,362.68,111.87Z"/><ellipse class="cls-19" cx="280.3" cy="242.06" rx="6.89" ry="3.5"/><path class="cls-67" d="M273.41,236.27v3.5c0,1.93,3.09,3.5,6.89,3.5s6.89-1.57,6.89-3.5v-3.5Z"/><ellipse class="cls-13" cx="280.3" cy="236.27" rx="6.89" ry="3.5"/><path class="cls-15" d="M283.4,236.27c0,.87-1.38,1.58-3.1,1.58s-3.1-.71-3.1-1.58,1.39-1.57,3.1-1.57S283.4,235.4,283.4,236.27Z"/><ellipse class="cls-19" cx="266.52" cy="250.35" rx="6.89" ry="3.5"/><path class="cls-68" d="M259.63,244.56v3.5c0,1.93,3.09,3.5,6.89,3.5s6.89-1.57,6.89-3.5v-3.5Z"/><ellipse class="cls-14" cx="266.52" cy="244.56" rx="6.89" ry="3.5"/><polygon class="cls-15" points="265.28 241.85 270.65 245.13 263.14 246.09 265.28 241.85"/><path class="cls-19" d="M301,233.78c0,1.93-3.08,3.5-6.89,3.5s-6.89-1.57-6.89-3.5,3.09-3.5,6.89-3.5S301,231.84,301,233.78Z"/><path class="cls-65" d="M287.19,228v3.5c0,1.93,3.09,3.5,6.89,3.5s6.89-1.57,6.89-3.5V228Z"/><path class="cls-66" d="M301,228c0,1.93-3.08,3.5-6.89,3.5s-6.89-1.57-6.89-3.5,3.09-3.5,6.89-3.5S301,226.05,301,228Z"/><polygon class="cls-15" points="289.83 227 295.2 230.28 297.31 225.99 289.83 227"/></g></g></g></svg>