<svg id="Layer_1" xmlns="http://www.w3.org/2000/svg" viewBox="0 0 556 314"><style>.st0,.st1,.st3,.st4,.st5,.st6{fill-rule:evenodd;clip-rule:evenodd;fill:#132f60}.st1,.st3,.st4,.st5,.st6{fill:#fff}.st3,.st4,.st5,.st6{fill:#a1c0fd}.st4,.st5,.st6{fill:#668fd1}.st5,.st6{fill:#ffd551}.st6{fill:#d8b144}.st7{fill:none;stroke:#668fd1;stroke-width:2.292;stroke-linecap:round}.st8,.st9{fill-rule:evenodd;clip-rule:evenodd;fill:#e1ebff}.st9{fill:#a2c0fe}.st10{fill:none;stroke:#132f60;stroke-width:.5;stroke-linecap:round;stroke-linejoin:round}.st11{fill-rule:evenodd;clip-rule:evenodd;fill:#89ace5}</style><g id="Boost-your-resume-01" transform="translate(184 56)"><path id="Path" class="st0" d="M187.9 110.5c0 14.1-3.1 27.9-9.2 40.6l-.6 1.2c-.5 1.1-1.1 2.1-1.7 3.2-.3.6-.7 1.2-1 1.8-.5.9-1 1.7-1.5 2.6-.9 1.4-1.8 2.8-2.7 4.1l-.5.6c-.7 1-1.4 2-2.2 2.9-.4.5-.8 1.1-1.2 1.6l-1.8 2.1c-2 2.4-4.2 4.7-6.5 6.9-2.1 2.1-4.4 4-6.7 5.8-2.4 1.9-4.9 3.7-7.5 5.4-1.1.7-2.2 1.4-3.3 2l-.1.1c-2.1 1.2-4.2 2.3-6.3 3.4h-.1c-6 2.5-12.2 4.5-18.6 5.8l-3.3.6c-2.4.4-4.8.8-7.3 1-3.8.4-7.7.6-11.5.6h-1.5c-3.3 0-6.5-.2-9.7-.6-3.9-.4-7.8-1-11.6-1.9-1.2-.3-2.5-.6-3.7-.9l-.6-.1c-.8-.2-1.6-.4-2.4-.7-.3-.1-.5-.1-.8-.2-.9-.3-1.8-.5-2.7-.8-4-1.3-8-2.9-11.8-4.7-1.2-.7-2.5-1.4-3.7-2.1-5.9-3.5-11.4-7.7-16.4-12.4l-.1-.1-2.1-2.1L26 175c-.3-.3-.6-.6-.9-1l-2.4-2.7c-1.2-1.4-2.4-2.9-3.5-4.4l-.3-.4c-.5-.7-1.1-1.4-1.6-2.2-.9-1.3-1.8-2.6-2.6-3.9-1-1.6-1.9-3.1-2.8-4.7-15.7-28.3-15.7-62.6 0-90.8.9-1.6 1.8-3.2 2.8-4.7.8-1.3 1.7-2.6 2.6-3.9 1.7-2.4 3.5-4.7 5.4-6.9.4-.4.8-.9 1.1-1.3.6-.7 1.2-1.4 1.9-2 1.5-1.6 3-3.1 4.6-4.5.5-.5 1.1-1 1.6-1.4.7-.6 1.5-1.3 2.2-1.9 2.1-1.7 4.2-3.3 6.4-4.9 4.1-2.8 8.4-5.3 12.8-7.5.1-.1.2-.1.4-.2 12.6-6 26.3-9 40.2-9 1.9 0 3.8.1 5.7.2 15.2.9 30 5.5 43.1 13.5 1.4.9 2.9 1.8 4.3 2.8l.4.3c1.3.9 2.5 1.8 3.8 2.7.5.3.9.7 1.3 1.1.7.5 1.4 1.1 2 1.7.5.4 1 .9 1.5 1.3.5.5 1.1 1 1.6 1.4 1.5 1.3 2.9 2.7 4.2 4.2l.3.4.9.9c.3.3.7.7 1 1.1.5.5.9 1 1.4 1.6 1.8 2.1 3.5 4.3 5.2 6.6 1.1 1.5 2.1 3.1 3.1 4.7.9 1.4 1.7 2.9 2.5 4.3.7 1.3 1.4 2.6 2.1 4 6.4 12.8 9.6 26.8 9.6 41z"/><path class="st0" d="M187.9 110.5c0 14.1-3.1 27.9-9.2 40.6l-.6 1.2c-.5 1.1-1.1 2.1-1.7 3.2-.3.6-.7 1.2-1 1.8-.5.9-1 1.7-1.5 2.6-.9 1.4-1.8 2.8-2.7 4.1l-.5.6c-.7 1-1.4 2-2.2 2.9-.4.5-.8 1.1-1.2 1.6l-1.8 2.1c-2 2.4-4.2 4.7-6.5 6.9-2.1 2.1-4.4 4-6.7 5.8-2.4 1.9-4.9 3.7-7.5 5.4-1.1.7-2.2 1.4-3.3 2l-.1.1c-2.1 1.2-4.2 2.3-6.3 3.4h-.1c-6 2.5-12.2 4.5-18.6 5.8l-3.3.6c-2.4.4-4.8.8-7.3 1-3.8.4-7.7.6-11.5.6h-1.5c-3.3 0-6.5-.2-9.7-.6-3.9-.4-7.8-1-11.6-1.9-1.2-.3-2.5-.6-3.7-.9l-.6-.1c-.8-.2-1.6-.4-2.4-.7-.3-.1-.5-.1-.8-.2-.9-.3-1.8-.5-2.7-.8-4-1.3-8-2.9-11.8-4.7-1.2-.7-2.5-1.4-3.7-2.1-5.9-3.5-11.4-7.7-16.4-12.4l-.1-.1-2.1-2.1L26 175c-.3-.3-.6-.6-.9-1l-2.4-2.7c-1.2-1.4-2.4-2.9-3.5-4.4l-.3-.4c-.5-.7-1.1-1.4-1.6-2.2-.9-1.3-1.8-2.6-2.6-3.9-1-1.6-1.9-3.1-2.8-4.7-15.7-28.3-15.7-62.6 0-90.8.9-1.6 1.8-3.2 2.8-4.7.8-1.3 1.7-2.6 2.6-3.9 1.7-2.4 3.5-4.7 5.4-6.9.4-.4.8-.9 1.1-1.3.6-.7 1.2-1.4 1.9-2 1.5-1.6 3-3.1 4.6-4.5.5-.5 1.1-1 1.6-1.4.7-.6 1.5-1.3 2.2-1.9 2.1-1.7 4.2-3.3 6.4-4.9 4.1-2.8 8.4-5.3 12.8-7.5.1-.1.2-.1.4-.2 12.6-6 26.3-9 40.2-9 1.9 0 3.8.1 5.7.2 15.2.9 30 5.5 43.1 13.5 1.4.9 2.9 1.8 4.3 2.8l.4.3c1.3.9 2.5 1.8 3.8 2.7.5.3.9.7 1.3 1.1.7.5 1.4 1.1 2 1.7.5.4 1 .9 1.5 1.3.5.5 1.1 1 1.6 1.4 1.5 1.3 2.9 2.7 4.2 4.2l.3.4.9.9c.3.3.7.7 1 1.1.5.5.9 1 1.4 1.6 1.8 2.1 3.5 4.3 5.2 6.6 1.1 1.5 2.1 3.1 3.1 4.7.9 1.4 1.7 2.9 2.5 4.3.7 1.3 1.4 2.6 2.1 4 6.4 12.8 9.6 26.8 9.6 41z"/><path class="st1" d="M109.8 80.1v49.2c0 1.2-.5 2.3-1.3 3.1-.8.8-2 1.3-3.1 1.3H15.7c-2.5 0-4.4-2-4.4-4.4V4.3C11.3 2 13.2.2 15.4.2h72.5L94.5 11l6.2 10.2 5.8.6 3.3.3v58z"/><path d="M109.8 22.1l-22.6 3.7c-1.7 0-3-1.3-3-3L87.9.2l21.9 21.9z" opacity=".25" fill-rule="evenodd" clip-rule="evenodd" fill="#0e7aaa"/><path class="st1" d="M109.8 22.1H90.9c-1.7 0-3-1.3-3-3V.2l21.9 21.9z"/><g id="Group"><path class="st3" d="M75.1 87.8l-1.8 2.1c-2 2.4-4.2 4.7-6.5 6.9-2.1 2.1-4.4 4-6.7 5.8-2.4 1.9-4.9 3.7-7.5 5.4-1.1.7-2.2 1.4-3.3 2l-.1.1c-2.1 1.2-4.2 2.3-6.3 3.4l-3.1-6.2-7.4-14.7-.1-.1-7.6-15-7.5-14.7L2 52.9l10.7-1.1c1.3.1 2.6-.4 3.6-1.4s1.5-2.2 1.5-3.5V21.5L13 18.1l-8.1-5.9C1.5 9.7-.2 5.6.4 1.4L.5 1C.6.6.9.2 1.3.1s.8 0 1.1.3l25.3 7.4c1.6 1.6 2.7 3.6 3.2 5.7l6.6 29L67 78l7.2 8.6.9 1.2z" transform="translate(92.196 81.28)"/><path class="st4" d="M66.9 78.1c-18.3 4.6-28.3 3-42.4-.6L32 92.7l34.9-14.6z" transform="translate(92.196 81.28)"/><path class="st5" d="M76.3 86.2c-.4.5-.8 1.1-1.2 1.6l-1.8 2.1c-2 2.4-4.2 4.7-6.5 6.9-2.1 2.1-4.4 4-6.7 5.8-2.4 1.9-4.9 3.7-7.5 5.4-1.1.7-2.2 1.4-3.3 2l-.1.1c-2.1 1.2-4.2 2.3-6.3 3.4h-.1c-6 2.5-12.2 4.5-18.6 5.8l-2.6-7.4L17 98.8 28.6 94l3.4-1.4.3-.1 5.2-2.2.7-.3 28.6-11.9.1-.1h.1l.9-.4.6-.2.1.1v.1l7 7.9.7.7z" transform="translate(92.196 81.28)"/><path class="st6" d="M76.3 86.2c-.4.5-.8 1.1-1.2 1.6l-1.8 2.1c-2 2.4-4.2 4.7-6.5 6.9-2.1 2.1-4.4 4-6.7 5.8-2.4 1.9-4.9 3.7-7.5 5.4-1.1.7-2.2 1.4-3.3 2l-.1.1c-2.1 1.2-4.2 2.3-6.3 3.4h-.1c-6 2.5-12.2 4.5-18.6 5.8l-2.6-7.4c6.2-1 12.2-2.6 18.1-4.6 10.8-3.8 21.2-9.9 34.4-20.7l1.5-1.2.7.8z" transform="translate(92.196 81.28)"/></g><path class="st7" d="M123.1 135.6l-8 6.7M123.1 135.6l-8 6.7"/><path class="st3" d="M75.1 87.8l-1.8 2.1c-2 2.4-4.2 4.7-6.5 6.9-2.1 2.1-4.4 4-6.7 5.8-2.4 1.9-4.9 3.7-7.5 5.4-1.1.7-2.2 1.4-3.3 2l-.1.1c-2.1 1.2-4.2 2.3-6.3 3.4l-3.1-6.2-7.4-14.7-.1-.1-7.6-15-7.5-14.7L2 52.9l10.7-1.1c1.3.1 2.6-.4 3.6-1.4s1.5-2.2 1.5-3.5V21.5L13 18.1l-8.1-5.9C1.5 9.7-.2 5.6.4 1.4L.5 1C.6.6.9.2 1.3.1s.8 0 1.1.3l25.3 7.4c1.6 1.6 2.7 3.6 3.2 5.7l6.6 29L67 78l7.2 8.6.9 1.2z" transform="translate(92.196 81.28)"/><path class="st4" d="M66.9 78.1c-18.3 4.6-28.3 3-42.4-.6L32 92.7l34.9-14.6z" transform="translate(92.196 81.28)"/><path class="st5" d="M76.3 86.2c-.4.5-.8 1.1-1.2 1.6l-1.8 2.1c-2 2.4-4.2 4.7-6.5 6.9-2.1 2.1-4.4 4-6.7 5.8-2.4 1.9-4.9 3.7-7.5 5.4-1.1.7-2.2 1.4-3.3 2l-.1.1c-2.1 1.2-4.2 2.3-6.3 3.4h-.1c-6 2.5-12.2 4.5-18.6 5.8l-2.6-7.4L17 98.8 28.6 94l3.4-1.4.3-.1 5.2-2.2.7-.3 28.6-11.9.1-.1h.1l.9-.4.6-.2.1.1v.1l7 7.9.7.7z" transform="translate(92.196 81.28)"/><path class="st6" d="M76.3 86.2c-.4.5-.8 1.1-1.2 1.6l-1.8 2.1c-2 2.4-4.2 4.7-6.5 6.9-2.1 2.1-4.4 4-6.7 5.8-2.4 1.9-4.9 3.7-7.5 5.4-1.1.7-2.2 1.4-3.3 2l-.1.1c-2.1 1.2-4.2 2.3-6.3 3.4h-.1c-6 2.5-12.2 4.5-18.6 5.8l-2.6-7.4c6.2-1 12.2-2.6 18.1-4.6 10.8-3.8 21.2-9.9 34.4-20.7l1.5-1.2.7.8z" transform="translate(92.196 81.28)"/><path class="st4" d="M104.5 136.5l-12.4-3h11.6c3.5 0 6.4-2.8 6.4-6.4l.2-24.3 5.4 21.6c1 3.2.2 6.8-2.1 9.3-2.3 2.6-5.8 3.6-9.1 2.8z"/><path id="Rectangle" class="st8" d="M44 69.8h45.3c1.6 0 2.9 1.3 2.9 2.9 0 1.6-1.3 2.9-2.9 2.9H44c-1.6 0-2.9-1.3-2.9-2.9 0-1.6 1.3-2.9 2.9-2.9z"/><ellipse id="Oval" class="st3" cx="29.7" cy="72.9" rx="4.8" ry="4.8"/><path class="st8" d="M44 85.4h45.3c1.6 0 2.9 1.3 2.9 2.9 0 1.6-1.3 2.9-2.9 2.9H44c-1.6 0-2.9-1.3-2.9-2.9 0-1.6 1.3-2.9 2.9-2.9z"/><ellipse class="st3" cx="29.7" cy="88.5" rx="4.8" ry="4.8"/><path class="st8" d="M44 101.1h45.3c1.6 0 2.9 1.3 2.9 2.9 0 1.6-1.3 2.9-2.9 2.9H44c-1.6 0-2.9-1.3-2.9-2.9 0-1.6 1.3-2.9 2.9-2.9z"/><ellipse class="st3" cx="29.7" cy="104.1" rx="4.8" ry="4.8"/><path class="st8" d="M80.6 34.8c0 8.2-4.9 15.6-12.5 18.7-7.6 3.1-16.3 1.4-22.1-4.4s-7.5-14.5-4.4-22c3.1-7.6 10.5-12.5 18.7-12.5 5.4 0 10.5 2.1 14.3 5.9s6 9 6 14.3z"/><g transform="translate(44.896 20.82)"><path class="st9" d="M15.4 1.6c3 0 5.4 2.4 5.4 5.4v12.5H10.1V6.9c0-3 2.4-5.3 5.3-5.3z"/><path class="st9" d="M30.5 27.4c-3.8 4.5-9.3 7.1-15.2 7.1-5.9 0-11.4-2.7-15.1-7.2.7-.6 1.5-1.2 2.3-1.7 1.4-.9 3-1.7 4.6-2.3 1.8-.7 3-2.4 3-4.4h10.7v.1c0 1.9 1.2 3.7 3 4.3 1.5.6 3 1.3 4.3 2.2.9.6 1.7 1.3 2.4 1.9z"/><path class="st0" d="M30.5 27.4c-3.8 4.5-9.3 7.1-15.2 7.1-5.9 0-11.4-2.7-15.1-7.2.7-.6 1.5-1.2 2.3-1.7h25.6c.9.5 1.7 1.2 2.4 1.8z"/><path class="st10" d="M15.4 8.8v3"/><ellipse class="st0" cx="17.7" cy="9.5" rx=".5" ry=".5"/><ellipse class="st0" cx="13.2" cy="9.5" rx=".5" ry=".5"/><path class="st0" d="M20.8 18.4V8c-2.4-1.4-4.1-3.2-4.9-5.4-.3-.8-.5-1.5-.6-2.3h.2l4.2 1.5c2.3.8 4 2.7 4.7 5l1.8 9.6-5.4 2z"/><path class="st0" d="M16 2c0 .2-.1.4-.1.5-.8 2.6-3.1 3.9-5.8 5.4v10l-5.5-1.2 1.8-10c.6-2.3 2.4-4.2 4.7-5L15.3.2h.2c.1.4.6 1.5.5 1.8z"/><path class="st11" d="M10.1 14.6v4.3l4.1-.7c-1.9-.5-3.5-1.5-4.1-3.6z"/><path class="st10" d="M16.9 13.2c-.5.7-1.4 1-2.2.6"/><path class="st11" d="M20.8 13s1.7-.7 1.7-1.7-1.7-1.7-1.7-1.7V13zM10.1 9.6s-1.7.7-1.7 1.7 1.7 1.7 1.7 1.7V9.6z"/></g></g></svg>